<svg xmlns="http://www.w3.org/2000/svg" viewBox="0 0 994.72 524.26"><defs><style>.cls-1,.cls-3,.cls-4,.cls-5{fill:none;}.cls-1{stroke:#eaeaea;stroke-dasharray:2;}.cls-2{isolation:isolate;font-size:10px;fill:#eee;font-family:PTMono-Regular, PT Mono;}.cls-3{stroke:#eee;stroke-dasharray:0;}.cls-4{stroke:#c87ef8;}.cls-4,.cls-5{stroke-width:2px;}.cls-5{stroke:#fcb643;}.cls-6{fill:#c87ef8;}.cls-7{fill:#fcb643;}</style></defs><g id="Layer_2" data-name="Layer 2"><g id="graphic"><g id="facets"><line class="cls-1" x1="21.94" y1="507.41" x2="980.16" y2="507.41"/><text class="cls-2" transform="translate(4.97 510.71)">0</text><line class="cls-1" x1="21.94" y1="468.78" x2="980.16" y2="468.78"/><text class="cls-2" transform="translate(4.97 472.08)">2</text><line class="cls-1" x1="21.94" y1="430.15" x2="980.16" y2="430.15"/><text class="cls-2" transform="translate(4.97 433.45)">4</text><line class="cls-1" x1="21.94" y1="391.52" x2="980.16" y2="391.52"/><text class="cls-2" transform="translate(4.97 394.82)">6</text><line class="cls-1" x1="21.94" y1="352.89" x2="980.16" y2="352.89"/><text class="cls-2" transform="translate(4.97 356.19)">8</text><line class="cls-1" x1="21.94" y1="314.25" x2="980.16" y2="314.25"/><text class="cls-2" transform="translate(0 317.55)">10</text><line class="cls-1" x1="21.94" y1="275.62" x2="980.16" y2="275.62"/><text class="cls-2" transform="translate(0 278.92)">12</text><line class="cls-1" x1="21.94" y1="236.99" x2="980.16" y2="236.99"/><text class="cls-2" transform="translate(0 240.29)">14</text><line class="cls-1" x1="21.94" y1="198.36" x2="980.16" y2="198.36"/><text class="cls-2" transform="translate(0 201.66)">16</text><line class="cls-1" x1="21.94" y1="159.73" x2="980.16" y2="159.73"/><text class="cls-2" transform="translate(0 163.03)">18</text><line class="cls-1" x1="21.94" y1="121.1" x2="980.16" y2="121.1"/><text class="cls-2" transform="translate(0 124.4)">20</text><line class="cls-1" x1="21.94" y1="82.46" x2="980.16" y2="82.46"/><text class="cls-2" transform="translate(0 85.76)">22</text><line class="cls-1" x1="21.94" y1="43.83" x2="980.16" y2="43.83"/><text class="cls-2" transform="translate(0 47.13)">24</text><line class="cls-1" x1="21.94" y1="5.2" x2="980.16" y2="5.2"/><text class="cls-2" transform="translate(0 8.5)">26</text><line class="cls-3" x1="22.44" y1="506.91" x2="22.44" y2="512.91"/><text class="cls-2" transform="translate(12.5 521.91)">1984</text><line class="cls-3" x1="118.33" y1="506.91" x2="118.33" y2="512.91"/><text class="cls-2" transform="translate(108.39 521.91)">1986</text><line class="cls-3" x1="214.08" y1="506.91" x2="214.08" y2="512.91"/><text class="cls-2" transform="translate(204.14 521.91)">1988</text><line class="cls-3" x1="309.97" y1="506.91" x2="309.97" y2="512.91"/><text class="cls-2" transform="translate(300.03 521.91)">1990</text><line class="cls-3" x1="405.73" y1="506.91" x2="405.73" y2="512.91"/><text class="cls-2" transform="translate(395.79 521.91)">1992</text><line class="cls-3" x1="501.61" y1="506.91" x2="501.61" y2="512.91"/><text class="cls-2" transform="translate(491.67 521.91)">1994</text><line class="cls-3" x1="597.37" y1="506.91" x2="597.37" y2="512.91"/><text class="cls-2" transform="translate(587.43 521.91)">1996</text><line class="cls-3" x1="693.26" y1="506.91" x2="693.26" y2="512.91"/><text class="cls-2" transform="translate(683.32 521.91)">1998</text><line class="cls-3" x1="789.01" y1="506.91" x2="789.01" y2="512.91"/><text class="cls-2" transform="translate(779.08 521.91)">2000</text><line class="cls-3" x1="884.9" y1="506.91" x2="884.9" y2="512.91"/><text class="cls-2" transform="translate(874.96 521.91)">2002</text><line class="cls-3" x1="980.66" y1="506.91" x2="980.66" y2="512.91"/><text class="cls-2" transform="translate(970.72 521.91)">2004</text></g><g id="lines"><path class="cls-4" d="M21.94,506.91l48-38.63,47.88-57.95,47.88,19.32,47.87,58h48l47.88-19.32L357.35,449l47.88,19.31,48,19.32,47.87-19.32L549,391h47.88l48-77.27,47.88,115.9,47.88-173.84,47.87,173.84,48,19.32,47.88-58,47.88,77.26h47.88"/><path class="cls-5" d="M21.94,391l48,19.31h47.88l47.88-77.26,47.87-38.63,48,96.58,47.88-96.58,47.88,57.95h47.88l48-38.64,47.87,19.32L549,217.17,596.87,82l48,77.27,47.88-115.9,47.88,270.42L788.51,120.6l48,231.79,47.88-77.27,47.88,38.63,47.88,38.64"/></g><g id="data-points"><path id="point-0-0" class="cls-6" d="M18.94,506.91a3,3,0,0,1,6,0h0a3,3,0,0,1-6,0Z"/><path id="point-0-1" class="cls-6" d="M67,468.28a3,3,0,1,1,3,3A3,3,0,0,1,67,468.28Z"/><path id="point-0-2" class="cls-6" d="M114.83,410.33a3,3,0,1,1,3,3A3,3,0,0,1,114.83,410.33Z"/><path id="point-0-3" class="cls-6" d="M162.71,429.65a3,3,0,1,1,3,3A3,3,0,0,1,162.71,429.65Z"/><path id="point-0-4" class="cls-6" d="M210.58,487.6a3,3,0,0,1,6,0h0a3,3,0,0,1-6,0Z"/><path id="point-0-5" class="cls-6" d="M258.59,487.6a3,3,0,0,1,6,0h0a3,3,0,0,1-6,0Z"/><path id="point-0-6" class="cls-6" d="M306.47,468.28a3,3,0,1,1,3,3A3,3,0,0,1,306.47,468.28Z"/><path id="point-0-7" class="cls-6" d="M354.35,449a3,3,0,1,1,3,3,3,3,0,0,1-3-3Z"/><path id="point-0-8" class="cls-6" d="M402.23,468.28a3,3,0,1,1,3,3A3,3,0,0,1,402.23,468.28Z"/><path id="point-0-9" class="cls-6" d="M450.24,487.6a3,3,0,0,1,6,0h0a3,3,0,0,1-6,0Z"/><path id="point-0-10" class="cls-6" d="M498.11,468.28a3,3,0,1,1,3,3A3,3,0,0,1,498.11,468.28Z"/><path id="point-0-11" class="cls-6" d="M546,391a3,3,0,1,1,3,3A3,3,0,0,1,546,391Z"/><path id="point-0-12" class="cls-6" d="M593.87,391a3,3,0,1,1,3,3A3,3,0,0,1,593.87,391Z"/><path id="point-0-13" class="cls-6" d="M641.88,313.75a3,3,0,1,1,3,3A3,3,0,0,1,641.88,313.75Z"/><path id="point-0-14" class="cls-6" d="M689.76,429.65a3,3,0,1,1,3,3A3,3,0,0,1,689.76,429.65Z"/><path id="point-0-15" class="cls-6" d="M737.64,255.81a3,3,0,0,1,6,0h0a3,3,0,1,1-6,0Z"/><path id="point-0-16" class="cls-6" d="M785.51,429.65a3,3,0,1,1,3,3A3,3,0,0,1,785.51,429.65Z"/><path id="point-0-17" class="cls-6" d="M833.52,449a3,3,0,1,1,3,3,3,3,0,0,1-3-3Z"/><path id="point-0-18" class="cls-6" d="M881.4,391a3,3,0,1,1,3,3A3,3,0,0,1,881.4,391Z"/><path id="point-0-19" class="cls-6" d="M929.28,468.28a3,3,0,1,1,3,3A3,3,0,0,1,929.28,468.28Z"/><path id="point-0-20" class="cls-6" d="M977.16,468.28a3,3,0,1,1,3,3A3,3,0,0,1,977.16,468.28Z"/><path id="point-1-0" class="cls-7" d="M18.94,391a3,3,0,1,1,3,3A3,3,0,0,1,18.94,391Z"/><path id="point-1-1" class="cls-7" d="M67,410.33a3,3,0,1,1,3,3A3,3,0,0,1,67,410.33Z"/><path id="point-1-2" class="cls-7" d="M114.83,410.33a3,3,0,1,1,3,3A3,3,0,0,1,114.83,410.33Z"/><path id="point-1-3" class="cls-7" d="M162.71,333.07a3,3,0,1,1,3,3A3,3,0,0,1,162.71,333.07Z"/><path id="point-1-4" class="cls-7" d="M210.58,294.44a3,3,0,1,1,3,3A3,3,0,0,1,210.58,294.44Z"/><path id="point-1-5" class="cls-7" d="M258.59,391a3,3,0,1,1,3,3A3,3,0,0,1,258.59,391Z"/><path id="point-1-6" class="cls-7" d="M306.47,294.44a3,3,0,1,1,3,3A3,3,0,0,1,306.47,294.44Z"/><path id="point-1-7" class="cls-7" d="M354.35,352.39a3,3,0,1,1,3,3A3,3,0,0,1,354.35,352.39Z"/><path id="point-1-8" class="cls-7" d="M402.23,352.39a3,3,0,1,1,3,3A3,3,0,0,1,402.23,352.39Z"/><path id="point-1-9" class="cls-7" d="M450.24,313.75a3,3,0,1,1,3,3A3,3,0,0,1,450.24,313.75Z"/><path id="point-1-10" class="cls-7" d="M498.11,333.07a3,3,0,1,1,3,3A3,3,0,0,1,498.11,333.07Z"/><path id="point-1-11" class="cls-7" d="M546,217.17a3,3,0,1,1,3,3A3,3,0,0,1,546,217.17Z"/><path id="point-1-12" class="cls-7" d="M593.87,82a3,3,0,1,1,3,3A3,3,0,0,1,593.87,82Z"/><path id="point-1-13" class="cls-7" d="M641.88,159.23a3,3,0,1,1,3,3A3,3,0,0,1,641.88,159.23Z"/><path id="point-1-14" class="cls-7" d="M689.76,43.33a3,3,0,1,1,3,3A3,3,0,0,1,689.76,43.33Z"/><path id="point-1-15" class="cls-7" d="M737.64,313.75a3,3,0,1,1,3,3A3,3,0,0,1,737.64,313.75Z"/><path id="point-1-16" class="cls-7" d="M785.51,120.6a3,3,0,1,1,3,3A3,3,0,0,1,785.51,120.6Z"/><path id="point-1-17" class="cls-7" d="M833.52,352.39a3,3,0,1,1,3,3A3,3,0,0,1,833.52,352.39Z"/><path id="point-1-18" class="cls-7" d="M881.4,275.12a3,3,0,1,1,3,3A3,3,0,0,1,881.4,275.12Z"/><path id="point-1-19" class="cls-7" d="M929.28,313.75a3,3,0,1,1,3,3A3,3,0,0,1,929.28,313.75Z"/><path id="point-1-20" class="cls-7" d="M977.16,352.39a3,3,0,1,1,3,3A3,3,0,0,1,977.16,352.39Z"/></g></g></g></svg>