<svg xmlns="http://www.w3.org/2000/svg" id="graphic" width="1043.21875" height="572.2125"><g id="facets"><g class="facet" transform="translate(75,25)" opacity="1"><rect class="facet-title-bg" height="0" fill="#eeeeee" x="0" y="0" clip-path="url(#facet-clip-0)"/><text class="facet-title" y="0" font-size="24px" font-weight="bold" dx="0" x="0" fill="#333333" clip-path="url(#facet-clip-0)" opacity="0"/><g class="plot"><clipPath class="facet-clip" id="facet-clip-0"><rect width="977.41875" height="559.8125" transform="translate(-9.6,-28.799999999999997)"/></clipPath><g class="bg"><rect fill="none" width="958.21875" height="502.2125" style="fill: none;"/></g><g class="interaction"><g class="series"/><g class="series"/></g><g class="axes"><g class="y axis" fill="none" font-size="10" font-family="sans-serif" text-anchor="end" style="font-family: &quot;Source Sans Pro&quot;;"><path class="domain" stroke="#eaeaea" d="M0.5,502.7125V0.5" stroke-dasharray="0" style=""/><g class="tick" opacity="1" transform="translate(0, 493.7209777832031)" style="visibility: visible;"><line stroke="#eaeaea" x2="-6" stroke-dasharray="0"/><text fill="rgb(153, 153, 153)" x="-9" dy="0.33em" opacity="1" text-anchor="end" font-size="12">2004</text></g><g class="tick" opacity="1" transform="translate(0, 469.4595031738281)" style="visibility: visible;"><line stroke="#eaeaea" x2="-6" stroke-dasharray="0"/><text fill="rgb(153, 153, 153)" x="-9" dy="0.33em" opacity="1" text-anchor="end" font-size="12">2003</text></g><g class="tick" opacity="1" transform="translate(0, 445.1980285644531)" style="visibility: visible;"><line stroke="#eaeaea" x2="-6" stroke-dasharray="0"/><text fill="rgb(153, 153, 153)" x="-9" dy="0.33em" opacity="1" text-anchor="end" font-size="12">2002</text></g><g class="tick" opacity="1" transform="translate(0, 420.9365539550781)" style="visibility: visible;"><line stroke="#eaeaea" x2="-6" stroke-dasharray="0"/><text fill="rgb(153, 153, 153)" x="-9" dy="0.33em" opacity="1" text-anchor="end" font-size="12">2001</text></g><g class="tick" opacity="1" transform="translate(0, 396.6750793457031)" style="visibility: visible;"><line stroke="#eaeaea" x2="-6" stroke-dasharray="0"/><text fill="rgb(153, 153, 153)" x="-9" dy="0.33em" opacity="1" text-anchor="end" font-size="12">2000</text></g><g class="tick" opacity="1" transform="translate(0, 372.4136047363281)" style="visibility: visible;"><line stroke="#eaeaea" x2="-6" stroke-dasharray="0"/><text fill="rgb(153, 153, 153)" x="-9" dy="0.33em" opacity="1" text-anchor="end" font-size="12">1999</text></g><g class="tick" opacity="1" transform="translate(0, 348.1521301269531)" style="visibility: visible;"><line stroke="#eaeaea" x2="-6" stroke-dasharray="0"/><text fill="rgb(153, 153, 153)" x="-9" dy="0.33em" opacity="1" text-anchor="end" font-size="12">1998</text></g><g class="tick" opacity="1" transform="translate(0, 323.8906555175781)" style="visibility: visible;"><line stroke="#eaeaea" x2="-6" stroke-dasharray="0"/><text fill="rgb(153, 153, 153)" x="-9" dy="0.33em" opacity="1" text-anchor="end" font-size="12">1997</text></g><g class="tick" opacity="1" transform="translate(0, 299.62921142578125)" style="visibility: visible;"><line stroke="#eaeaea" x2="-6" stroke-dasharray="0"/><text fill="rgb(153, 153, 153)" x="-9" dy="0.33em" opacity="1" text-anchor="end" font-size="12">1996</text></g><g class="tick" opacity="1" transform="translate(0, 275.36773681640625)" style="visibility: visible;"><line stroke="#eaeaea" x2="-6" stroke-dasharray="0"/><text fill="rgb(153, 153, 153)" x="-9" dy="0.33em" opacity="1" text-anchor="end" font-size="12">1995</text></g><g class="tick" opacity="1" transform="translate(0, 251.1062469482422)" style="visibility: visible;"><line stroke="#eaeaea" x2="-6" stroke-dasharray="0"/><text fill="rgb(153, 153, 153)" x="-9" dy="0.33em" opacity="1" text-anchor="end" font-size="12">1994</text></g><g class="tick" opacity="1" transform="translate(0, 226.8447723388672)" style="visibility: visible;"><line stroke="#eaeaea" x2="-6" stroke-dasharray="0"/><text fill="rgb(153, 153, 153)" x="-9" dy="0.33em" opacity="1" text-anchor="end" font-size="12">1993</text></g><g class="tick" opacity="1" transform="translate(0, 202.5832977294922)" style="visibility: visible;"><line stroke="#eaeaea" x2="-6" stroke-dasharray="0"/><text fill="rgb(153, 153, 153)" x="-9" dy="0.33em" opacity="1" text-anchor="end" font-size="12">1992</text></g><g class="tick" opacity="1" transform="translate(0, 178.3218231201172)" style="visibility: visible;"><line stroke="#eaeaea" x2="-6" stroke-dasharray="0"/><text fill="rgb(153, 153, 153)" x="-9" dy="0.33em" opacity="1" text-anchor="end" font-size="12">1991</text></g><g class="tick" opacity="1" transform="translate(0, 154.06036376953125)" style="visibility: visible;"><line stroke="#eaeaea" x2="-6" stroke-dasharray="0"/><text fill="rgb(153, 153, 153)" x="-9" dy="0.33em" opacity="1" text-anchor="end" font-size="12">1990</text></g><g class="tick" opacity="1" transform="translate(0, 129.79888916015625)" style="visibility: visible;"><line stroke="#eaeaea" x2="-6" stroke-dasharray="0"/><text fill="rgb(153, 153, 153)" x="-9" dy="0.33em" opacity="1" text-anchor="end" font-size="12">1989</text></g><g class="tick" opacity="1" transform="translate(0, 105.53740692138672)" style="visibility: visible;"><line stroke="#eaeaea" x2="-6" stroke-dasharray="0"/><text fill="rgb(153, 153, 153)" x="-9" dy="0.33em" opacity="1" text-anchor="end" font-size="12">1988</text></g><g class="tick" opacity="1" transform="translate(0, 81.27593231201172)" style="visibility: visible;"><line stroke="#eaeaea" x2="-6" stroke-dasharray="0"/><text fill="rgb(153, 153, 153)" x="-9" dy="0.33em" opacity="1" text-anchor="end" font-size="12">1987</text></g><g class="tick" opacity="1" transform="translate(0, 57.014461517333984)" style="visibility: visible;"><line stroke="#eaeaea" x2="-6" stroke-dasharray="0"/><text fill="rgb(153, 153, 153)" x="-9" dy="0.33em" opacity="1" text-anchor="end" font-size="12">1986</text></g><g class="tick" opacity="1" transform="translate(0, 32.75299072265625)" style="visibility: visible;"><line stroke="#eaeaea" x2="-6" stroke-dasharray="0"/><text fill="rgb(153, 153, 153)" x="-9" dy="0.33em" opacity="1" text-anchor="end" font-size="12">1985</text></g><g class="tick" opacity="1" transform="translate(0, 8.49151611328125)" style="visibility: visible;"><line stroke="#eaeaea" x2="-6" stroke-dasharray="0"/><text fill="rgb(153, 153, 153)" x="-9" dy="0.33em" opacity="1" text-anchor="end" font-size="12">1984</text></g></g><g class="x axis" transform="translate(0,502.2125)" fill="none" font-size="10" font-family="sans-serif" text-anchor="middle" style="font-family: &quot;Source Sans Pro&quot;;"><path class="domain" stroke="#eeeeee" d="M0.5,0.5H958.71875" stroke-dasharray="2" style="visibility: hidden;"/><g class="tick" opacity="1" transform="translate(0.5, 0)"><line stroke="#eeeeee" y2="-502.2125" stroke-dasharray="2"/><text fill="rgb(153, 153, 153)" y="3" dy="-9" opacity="1" dominant-baseline="central" font-size="10" transform="translate(0, 15)" dx="0" style="visibility: visible;">0</text></g><g class="tick" opacity="1" transform="translate(74.20913696289062, 0)"><line stroke="#eeeeee" y2="-502.2125" stroke-dasharray="2"/><text fill="rgb(153, 153, 153)" y="3" dy="-9" opacity="1" dominant-baseline="central" font-size="10" transform="translate(0, 15)" dx="0" style="visibility: visible;">2</text></g><g class="tick" opacity="1" transform="translate(147.91827392578125, 0)"><line stroke="#eeeeee" y2="-502.2125" stroke-dasharray="2"/><text fill="rgb(153, 153, 153)" y="3" dy="-9" opacity="1" dominant-baseline="central" font-size="10" transform="translate(0, 15)" dx="0" style="visibility: visible;">4</text></g><g class="tick" opacity="1" transform="translate(221.62741088867188, 0)"><line stroke="#eeeeee" y2="-502.2125" stroke-dasharray="2"/><text fill="rgb(153, 153, 153)" y="3" dy="-9" opacity="1" dominant-baseline="central" font-size="10" transform="translate(0, 15)" dx="0" style="visibility: visible;">6</text></g><g class="tick" opacity="1" transform="translate(295.3365478515625, 0)"><line stroke="#eeeeee" y2="-502.2125" stroke-dasharray="2"/><text fill="rgb(153, 153, 153)" y="3" dy="-9" opacity="1" dominant-baseline="central" font-size="10" transform="translate(0, 15)" dx="0" style="visibility: visible;">8</text></g><g class="tick" opacity="1" transform="translate(369.0456848144531, 0)"><line stroke="#eeeeee" y2="-502.2125" stroke-dasharray="2"/><text fill="rgb(153, 153, 153)" y="3" dy="-9" opacity="1" dominant-baseline="central" font-size="10" transform="translate(0, 15)" dx="0" style="visibility: visible;">10</text></g><g class="tick" opacity="1" transform="translate(442.75482177734375, 0)"><line stroke="#eeeeee" y2="-502.2125" stroke-dasharray="2"/><text fill="rgb(153, 153, 153)" y="3" dy="-9" opacity="1" dominant-baseline="central" font-size="10" transform="translate(0, 15)" dx="0" style="visibility: visible;">12</text></g><g class="tick" opacity="1" transform="translate(516.4639282226562, 0)"><line stroke="#eeeeee" y2="-502.2125" stroke-dasharray="2"/><text fill="rgb(153, 153, 153)" y="3" dy="-9" opacity="1" dominant-baseline="central" font-size="10" transform="translate(0, 15)" dx="0" style="visibility: visible;">14</text></g><g class="tick" opacity="1" transform="translate(590.173095703125, 0)"><line stroke="#eeeeee" y2="-502.2125" stroke-dasharray="2"/><text fill="rgb(153, 153, 153)" y="3" dy="-9" opacity="1" dominant-baseline="central" font-size="10" transform="translate(0, 15)" dx="0" style="visibility: visible;">16</text></g><g class="tick" opacity="1" transform="translate(663.8822021484375, 0)"><line stroke="#eeeeee" y2="-502.2125" stroke-dasharray="2"/><text fill="rgb(153, 153, 153)" y="3" dy="-9" opacity="1" dominant-baseline="central" font-size="10" transform="translate(0, 15)" dx="0" style="visibility: visible;">18</text></g><g class="tick" opacity="1" transform="translate(737.5913696289062, 0)"><line stroke="#eeeeee" y2="-502.2125" stroke-dasharray="2"/><text fill="rgb(153, 153, 153)" y="3" dy="-9" opacity="1" dominant-baseline="central" font-size="10" transform="translate(0, 15)" dx="0" style="visibility: visible;">20</text></g><g class="tick" opacity="1" transform="translate(811.3004760742188, 0)"><line stroke="#eeeeee" y2="-502.2125" stroke-dasharray="2"/><text fill="rgb(153, 153, 153)" y="3" dy="-9" opacity="1" dominant-baseline="central" font-size="10" transform="translate(0, 15)" dx="0" style="visibility: visible;">22</text></g><g class="tick" opacity="1" transform="translate(885.0096435546875, 0)"><line stroke="#eeeeee" y2="-502.2125" stroke-dasharray="2"/><text fill="rgb(153, 153, 153)" y="3" dy="-9" opacity="1" dominant-baseline="central" font-size="10" transform="translate(0, 15)" dx="0" style="visibility: visible;">24</text></g><g class="tick" opacity="1" transform="translate(958.71875, 0)"><line stroke="#eeeeee" y2="-502.2125" stroke-dasharray="2"/><text fill="rgb(153, 153, 153)" y="3" dy="-9" opacity="1" dominant-baseline="central" font-size="10" transform="translate(0, 15)" dx="0" style="visibility: visible;">26</text></g></g></g></g></g></g><g class="annotations below"><g class="axis-highlights" transform="translate(75, 25)" style="opacity: 1;"/></g><g id="areas"/><g id="lines"/><g id="data-points"><g class="series" transform="translate(75,25)"><path class="data-point" fill="#c87ef8" data-type="bar" transform="translate(0, 0)" d="M0,2.426147342995165L0,2.426147342995165L0,8.491515700483088L0,8.491515700483088Z" opacity="1" id="point-0-20"/><path class="data-point" fill="#c87ef8" data-type="bar" transform="translate(0, 0)" d="M0,26.687620772946854L73.70913461538461,26.687620772946854L73.70913461538461,32.75298913043478L0,32.75298913043478Z" opacity="1" id="point-0-19"/><path class="data-point" fill="#c87ef8" data-type="bar" transform="translate(0, 0)" d="M0,50.94909420289854L184.27283653846155,50.94909420289854L184.27283653846155,57.01446256038646L0,57.01446256038646Z" opacity="1" id="point-0-18"/><path class="data-point" fill="#c87ef8" data-type="bar" transform="translate(0, 0)" d="M0,75.21056763285023L147.41826923076923,75.21056763285023L147.41826923076923,81.27593599033816L0,81.27593599033816Z" opacity="1" id="point-0-17"/><path class="data-point" fill="#c87ef8" data-type="bar" transform="translate(0, 0)" d="M0,99.47204106280192L36.85456730769231,99.47204106280192L36.85456730769231,105.53740942028985L0,105.53740942028985Z" opacity="1" id="point-0-16"/><path class="data-point" fill="#c87ef8" data-type="bar" transform="translate(0, 0)" d="M0,123.73351449275361L36.85456730769231,123.73351449275361L36.85456730769231,129.79888285024154L0,129.79888285024154Z" opacity="1" id="point-0-15"/><path class="data-point" fill="#c87ef8" data-type="bar" transform="translate(0, 0)" d="M0,147.9949879227053L73.70913461538461,147.9949879227053L73.70913461538461,154.06035628019322L0,154.06035628019322Z" opacity="1" id="point-0-14"/><path class="data-point" fill="#c87ef8" data-type="bar" transform="translate(0, 0)" d="M0,172.256461352657L110.56370192307693,172.256461352657L110.56370192307693,178.32182971014493L0,178.32182971014493Z" opacity="1" id="point-0-13"/><path class="data-point" fill="#c87ef8" data-type="bar" transform="translate(0, 0)" d="M0,196.51793478260868L73.70913461538461,196.51793478260868L73.70913461538461,202.5833031400966L0,202.5833031400966Z" opacity="1" id="point-0-12"/><path class="data-point" fill="#c87ef8" data-type="bar" transform="translate(0, 0)" d="M0,220.77940821256036L36.85456730769231,220.77940821256036L36.85456730769231,226.84477657004828L0,226.84477657004828Z" opacity="1" id="point-0-11"/><path class="data-point" fill="#c87ef8" data-type="bar" transform="translate(0, 0)" d="M0,245.04088164251206L73.70913461538461,245.04088164251206L73.70913461538461,251.10625L0,251.10625Z" opacity="1" id="point-0-10"/><path class="data-point" fill="#c87ef8" data-type="bar" transform="translate(0, 0)" d="M0,269.3023550724638L221.12740384615387,269.3023550724638L221.12740384615387,275.3677234299517L0,275.3677234299517Z" opacity="1" id="point-0-9"/><path class="data-point" fill="#c87ef8" data-type="bar" transform="translate(0, 0)" d="M0,293.5638285024154L221.12740384615387,293.5638285024154L221.12740384615387,299.6291968599033L0,299.6291968599033Z" opacity="1" id="point-0-8"/><path class="data-point" fill="#c87ef8" data-type="bar" transform="translate(0, 0)" d="M0,317.8253019323671L368.5456730769231,317.8253019323671L368.5456730769231,323.890670289855L0,323.890670289855Z" opacity="1" id="point-0-7"/><path class="data-point" fill="#c87ef8" data-type="bar" transform="translate(0, 0)" d="M0,342.0867753623188L147.41826923076923,342.0867753623188L147.41826923076923,348.1521437198067L0,348.1521437198067Z" opacity="1" id="point-0-6"/><path class="data-point" fill="#c87ef8" data-type="bar" transform="translate(0, 0)" d="M0,366.3482487922705L479.109375,366.3482487922705L479.109375,372.4136171497584L0,372.4136171497584Z" opacity="1" id="point-0-5"/><path class="data-point" fill="#c87ef8" data-type="bar" transform="translate(0, 0)" d="M0,390.6097222222222L147.41826923076923,390.6097222222222L147.41826923076923,396.6750905797101L0,396.6750905797101Z" opacity="1" id="point-0-4"/><path class="data-point" fill="#c87ef8" data-type="bar" transform="translate(0, 0)" d="M0,414.8711956521739L110.56370192307693,414.8711956521739L110.56370192307693,420.9365640096618L0,420.9365640096618Z" opacity="1" id="point-0-3"/><path class="data-point" fill="#c87ef8" data-type="bar" transform="translate(0, 0)" d="M0,439.1326690821255L221.12740384615387,439.1326690821255L221.12740384615387,445.1980374396134L0,445.1980374396134Z" opacity="1" id="point-0-2"/><path class="data-point" fill="#c87ef8" data-type="bar" transform="translate(0, 0)" d="M0,463.3941425120772L73.70913461538461,463.3941425120772L73.70913461538461,469.4595108695651L0,469.4595108695651Z" opacity="1" id="point-0-1"/><path class="data-point" fill="#c87ef8" data-type="bar" transform="translate(0, 0)" d="M0,487.65561594202893L73.70913461538461,487.65561594202893L73.70913461538461,493.72098429951683L0,493.72098429951683Z" opacity="1" id="point-0-0"/></g><g class="series" transform="translate(75,25)"><path class="data-point" fill="#FCB643" data-type="bar" transform="translate(0, 0)" d="M0,8.491515700483088L221.12740384615387,8.491515700483088L221.12740384615387,14.556884057971011L0,14.556884057971011Z" opacity="1" id="point-1-20"/><path class="data-point" fill="#FCB643" data-type="bar" transform="translate(0, 0)" d="M0,32.75298913043478L184.27283653846155,32.75298913043478L184.27283653846155,38.8183574879227L0,38.8183574879227Z" opacity="1" id="point-1-19"/><path class="data-point" fill="#FCB643" data-type="bar" transform="translate(0, 0)" d="M0,57.01446256038646L184.27283653846155,57.01446256038646L184.27283653846155,63.07983091787438L0,63.07983091787438Z" opacity="1" id="point-1-18"/><path class="data-point" fill="#FCB643" data-type="bar" transform="translate(0, 0)" d="M0,81.27593599033816L331.6911057692308,81.27593599033816L331.6911057692308,87.34130434782608L0,87.34130434782608Z" opacity="1" id="point-1-17"/><path class="data-point" fill="#FCB643" data-type="bar" transform="translate(0, 0)" d="M0,105.53740942028985L405.40024038461536,105.53740942028985L405.40024038461536,111.60277777777777L0,111.60277777777777Z" opacity="1" id="point-1-16"/><path class="data-point" fill="#FCB643" data-type="bar" transform="translate(0, 0)" d="M0,129.79888285024154L221.12740384615387,129.79888285024154L221.12740384615387,135.86425120772947L0,135.86425120772947Z" opacity="1" id="point-1-15"/><path class="data-point" fill="#FCB643" data-type="bar" transform="translate(0, 0)" d="M0,154.06035628019322L405.40024038461536,154.06035628019322L405.40024038461536,160.12572463768115L0,160.12572463768115Z" opacity="1" id="point-1-14"/><path class="data-point" fill="#FCB643" data-type="bar" transform="translate(0, 0)" d="M0,178.32182971014493L294.83653846153845,178.32182971014493L294.83653846153845,184.38719806763285L0,184.38719806763285Z" opacity="1" id="point-1-13"/><path class="data-point" fill="#FCB643" data-type="bar" transform="translate(0, 0)" d="M0,202.5833031400966L294.83653846153845,202.5833031400966L294.83653846153845,208.64867149758453L0,208.64867149758453Z" opacity="1" id="point-1-12"/><path class="data-point" fill="#FCB643" data-type="bar" transform="translate(0, 0)" d="M0,226.84477657004828L368.5456730769231,226.84477657004828L368.5456730769231,232.9101449275362L0,232.9101449275362Z" opacity="1" id="point-1-11"/><path class="data-point" fill="#FCB643" data-type="bar" transform="translate(0, 0)" d="M0,251.10625L331.6911057692308,251.10625L331.6911057692308,257.1716183574879L0,257.1716183574879Z" opacity="1" id="point-1-10"/><path class="data-point" fill="#FCB643" data-type="bar" transform="translate(0, 0)" d="M0,275.3677234299517L552.8185096153845,275.3677234299517L552.8185096153845,281.4330917874396L0,281.4330917874396Z" opacity="1" id="point-1-9"/><path class="data-point" fill="#FCB643" data-type="bar" transform="translate(0, 0)" d="M0,299.6291968599033L810.8004807692307,299.6291968599033L810.8004807692307,305.6945652173912L0,305.6945652173912Z" opacity="1" id="point-1-8"/><path class="data-point" fill="#FCB643" data-type="bar" transform="translate(0, 0)" d="M0,323.890670289855L663.3822115384615,323.890670289855L663.3822115384615,329.9560386473429L0,329.9560386473429Z" opacity="1" id="point-1-7"/><path class="data-point" fill="#FCB643" data-type="bar" transform="translate(0, 0)" d="M0,348.1521437198067L884.5096153846155,348.1521437198067L884.5096153846155,354.2175120772946L0,354.2175120772946Z" opacity="1" id="point-1-6"/><path class="data-point" fill="#FCB643" data-type="bar" transform="translate(0, 0)" d="M0,372.4136171497584L368.5456730769231,372.4136171497584L368.5456730769231,378.4789855072463L0,378.4789855072463Z" opacity="1" id="point-1-5"/><path class="data-point" fill="#FCB643" data-type="bar" transform="translate(0, 0)" d="M0,396.6750905797101L737.0913461538462,396.6750905797101L737.0913461538462,402.740458937198L0,402.740458937198Z" opacity="1" id="point-1-4"/><path class="data-point" fill="#FCB643" data-type="bar" transform="translate(0, 0)" d="M0,420.9365640096618L294.83653846153845,420.9365640096618L294.83653846153845,427.0019323671497L0,427.0019323671497Z" opacity="1" id="point-1-3"/><path class="data-point" fill="#FCB643" data-type="bar" transform="translate(0, 0)" d="M0,445.1980374396134L442.25480769230774,445.1980374396134L442.25480769230774,451.2634057971013L0,451.2634057971013Z" opacity="1" id="point-1-2"/><path class="data-point" fill="#FCB643" data-type="bar" transform="translate(0, 0)" d="M0,469.4595108695651L368.5456730769231,469.4595108695651L368.5456730769231,475.524879227053L0,475.524879227053Z" opacity="1" id="point-1-1"/><path class="data-point" fill="#FCB643" data-type="bar" transform="translate(0, 0)" d="M0,493.72098429951683L294.83653846153845,493.72098429951683L294.83653846153845,499.7863526570047L0,499.7863526570047Z" opacity="1" id="point-1-0"/></g></g><g id="lines-secondary"/><g id="data-labels"/><g class="annotations above"><g class="axis-highlights" transform="translate(75, 25)" style="opacity: 1;"/></g></svg>