<?xml version="1.0" encoding="utf-8"?>
<!-- Generator: Adobe Illustrator 24.1.0, SVG Export Plug-In . SVG Version: 6.00 Build 0)  -->
<svg version="1.1" id="Layer_1" xmlns="http://www.w3.org/2000/svg" xmlns:xlink="http://www.w3.org/1999/xlink" x="0px" y="0px"
	 viewBox="0 0 100 100" style="enable-background:new 0 0 100 100;" xml:space="preserve">
<style type="text/css">
	.st0{fill:#46ACAA;}
</style>
<path class="st0" d="M43.8,6.2C19.7,6.2,0,25.9,0,50v42.6c0,0.6,0.5,1.2,1.2,1.2h41.4c0.6,0,1.2-0.5,1.2-1.2V51.2
	c0-0.6-0.5-1.2-1.2-1.2H12.5c0-17.3,13.9-31.2,31.2-31.2V6.2z M100,6.2C75.9,6.2,56.2,25.9,56.2,50v42.6c0,0.6,0.5,1.2,1.2,1.2h41.4
	c0.6,0,1.2-0.5,1.2-1.2V51.2c0-0.6-0.5-1.2-1.2-1.2H68.8c0-17.3,13.9-31.2,31.2-31.2V6.2z"/>
</svg>
