<?xml version="1.0" encoding="utf-8"?>
<!-- Generator: Adobe Illustrator 24.1.0, SVG Export Plug-In . SVG Version: 6.00 Build 0)  -->
<svg version="1.1" id="Layer_1" xmlns="http://www.w3.org/2000/svg" xmlns:xlink="http://www.w3.org/1999/xlink" x="0px" y="0px"
	 viewBox="0 0 100 100" style="enable-background:new 0 0 100 100;" xml:space="preserve">
<style type="text/css">
	.st0{fill:#B7B8BD;}
</style>
<path class="st0" d="M38,94c17.6,0,32-14.3,32-31.9c0-7.1-2.4-14.1-6.7-19.7L86,19.7V34c0,2.2,1.8,4,4,4s4-1.8,4-4V10
	c0-2.2-1.8-4-4-4H66c-2.2,0-4,1.8-4,4s1.8,4,4,4h14.3L57.6,36.8c-13.9-10.9-34.1-8.4-44.9,5.6s-8.4,34.1,5.6,44.9
	C23.9,91.6,30.9,94,38,94z M38,38c13.3,0,24,10.7,24,24S51.3,86,38,86S14,75.3,14,62S24.7,38,38,38z"/>
</svg>
