<?xml version="1.0" encoding="utf-8"?>
<!-- Generator: Adobe Illustrator 24.1.0, SVG Export Plug-In . SVG Version: 6.00 Build 0)  -->
<svg version="1.1" id="Layer_1" xmlns="http://www.w3.org/2000/svg" xmlns:xlink="http://www.w3.org/1999/xlink" x="0px" y="0px"
	 viewBox="0 0 149.6 100" style="enable-background:new 0 0 149.6 100;" xml:space="preserve">
<style type="text/css">
	.st0{fill:#B7B8BD;}
	.st1{fill:none;stroke:#B7B8BD;stroke-width:8.5106;stroke-miterlimit:8.5106;}
	.st2{fill:none;stroke:#B7B8BD;stroke-width:8.5106;stroke-linecap:round;stroke-miterlimit:8.5106;}
</style>
<path class="st0" d="M93.9,91.3c15.8,0,28.8-12.9,28.8-28.7c0-6.4-2.2-12.7-6-17.7l20.4-20.4v12.9c0,2,1.6,3.6,3.6,3.6
	c2,0,3.6-1.6,3.6-3.6V15.8c0-2-1.6-3.6-3.6-3.6h-21.6c-2,0-3.6,1.6-3.6,3.6s1.6,3.6,3.6,3.6H132l-20.4,20.5
	c-12.5-9.8-30.7-7.6-40.4,5s-7.6,30.7,5,40.4C81.3,89.1,87.5,91.3,93.9,91.3z M93.9,40.9c12,0,21.6,9.6,21.6,21.6
	s-9.6,21.6-21.6,21.6s-21.6-9.6-21.6-21.6S82,40.9,93.9,40.9z"/>
<g>
	<g transform="translate(-659.000000, -128.000000)">
		<g transform="translate(659.000000, 128.000000)">
			<circle class="st1" cx="35.9" cy="33.8" r="25.5"/>
			<path class="st2" d="M35.9,61.2v28.4"/>
			<path class="st2" d="M23.7,77h24.6"/>
		</g>
	</g>
</g>
</svg>
