<svg xmlns="http://www.w3.org/2000/svg" viewBox="0 0 1070.32 912.78"><defs><style>.cls-1{fill:#f4f4f4;}.cls-2,.cls-5,.cls-9{isolation:isolate;}.cls-3,.cls-5{fill:#2d2d2d;}.cls-4{fill:none;stroke:#eee;}.cls-5{font-size:10px;font-family:DroidSansMono, Droid Sans Mono;}.cls-6{fill:#a02799;}.cls-7{fill:#ff6e5d;}.cls-8{opacity:0;}.cls-9{font-size:16px;fill:#fff;font-family:ArialMT, Arial;}</style></defs><g id="Layer_2" data-name="Layer 2"><g id="graphic"><rect class="cls-1" x="46.01" width="190.38" height="168.07"/><rect class="cls-1" x="254.49" width="190.38" height="168.07"/><rect class="cls-1" x="462.97" width="190.38" height="168.07"/><rect class="cls-1" x="671.46" width="190.38" height="168.07"/><rect class="cls-1" x="879.94" width="190.38" height="168.07"/><rect class="cls-1" x="46.01" y="186.18" width="190.38" height="168.07"/><rect class="cls-1" x="254.49" y="186.18" width="190.38" height="168.07"/><rect class="cls-1" x="462.97" y="186.18" width="190.38" height="168.07"/><rect class="cls-1" x="671.46" y="186.18" width="190.38" height="168.07"/><rect class="cls-1" x="879.94" y="186.18" width="190.38" height="168.07"/><rect class="cls-1" x="46.01" y="372.35" width="190.38" height="168.07"/><rect class="cls-1" x="254.49" y="372.35" width="190.38" height="168.07"/><rect class="cls-1" x="462.97" y="372.35" width="190.38" height="168.07"/><rect class="cls-1" x="671.46" y="372.35" width="190.38" height="168.07"/><rect class="cls-1" x="879.94" y="372.35" width="190.38" height="168.07"/><rect class="cls-1" x="46.01" y="558.53" width="190.38" height="168.07"/><rect class="cls-1" x="254.49" y="558.53" width="190.38" height="168.07"/><rect class="cls-1" x="462.97" y="558.53" width="190.38" height="168.07"/><rect class="cls-1" x="671.46" y="558.53" width="190.38" height="168.07"/><rect class="cls-1" x="879.94" y="558.53" width="190.38" height="168.07"/><rect class="cls-1" x="46.01" y="744.7" width="190.38" height="168.07"/><rect class="cls-1" x="254.49" y="744.7" width="190.38" height="168.07"/><rect class="cls-1" x="462.97" y="744.7" width="190.38" height="168.07"/><rect class="cls-1" x="671.46" y="744.7" width="190.38" height="168.07"/><rect class="cls-1" x="879.94" y="744.7" width="190.38" height="168.07"/><g class="cls-2"><path class="cls-3" d="M85,16.43h.92L88,20.55l.63,1.36h0c0-.66-.11-1.39-.11-2.08v-3.4h.8V23h-.92l-2.1-4.11-.63-1.36h0c0,.67.11,1.37.11,2V23H85Z"/><path class="cls-3" d="M91,21.72c0-1.08,1-1.61,3.53-1.81a1.15,1.15,0,0,0-1.29-1.22,3.39,3.39,0,0,0-1.7.58l-.33-.56a4.26,4.26,0,0,1,2.17-.7,1.81,1.81,0,0,1,2,2v3h-.69l-.07-.66h0a3.27,3.27,0,0,1-1.91.78A1.47,1.47,0,0,1,91,21.72Zm3.53,0V20.46c-2.08.16-2.71.57-2.71,1.2s.5.77,1.06.77A2.65,2.65,0,0,0,94.48,21.71Z"/><path class="cls-3" d="M98.21,21.1V18.8H96.83v-.62l1.41-.05.11-1.56H99v1.56h2.38v.67H99v2.31c0,.86.29,1.31,1.23,1.31a3.2,3.2,0,0,0,1.16-.22l.18.61a4.24,4.24,0,0,1-1.52.29C98.67,23.1,98.21,22.29,98.21,21.1Z"/><path class="cls-3" d="M105.3,18.8h-2.25v-.67h3.08V23h-.83ZM105,16.47a.66.66,0,1,1,.66.64A.63.63,0,0,1,105,16.47Z"/><path class="cls-3" d="M108.75,20.57a2.4,2.4,0,1,1,4.79,0,2.4,2.4,0,1,1-4.79,0Zm4,0c0-1.12-.62-1.87-1.55-1.87s-1.55.75-1.55,1.87.62,1.84,1.55,1.84S112.7,21.67,112.7,20.57Z"/><path class="cls-3" d="M115.08,18.13h.68l.07.82h0A2.52,2.52,0,0,1,117.7,18c1.15,0,1.68.68,1.68,2v3h-.83v-2.9c0-.92-.32-1.35-1.11-1.35-.58,0-1,.29-1.53.87V23h-.83Z"/><path class="cls-3" d="M121,21.72c0-1.08,1-1.61,3.53-1.81a1.15,1.15,0,0,0-1.29-1.22,3.39,3.39,0,0,0-1.7.58l-.33-.56a4.26,4.26,0,0,1,2.17-.7,1.81,1.81,0,0,1,2,2v3h-.69l-.07-.66h0a3.27,3.27,0,0,1-1.91.78A1.47,1.47,0,0,1,121,21.72Zm3.53,0V20.46c-2.08.16-2.71.57-2.71,1.2s.5.77,1.06.77A2.65,2.65,0,0,0,124.48,21.71Z"/><path class="cls-3" d="M128.61,21.36V16.54h-1.72v-.67h2.55v5.54a.87.87,0,0,0,1,1,2.2,2.2,0,0,0,.91-.22l.21.62a3,3,0,0,1-1.3.29C129.18,23.1,128.61,22.5,128.61,21.36Z"/><path class="cls-3" d="M138.68,19.71c0-2.12,1.21-3.4,2.91-3.4a2.39,2.39,0,0,1,1.8.8l-.47.53a1.72,1.72,0,0,0-1.33-.59c-1.23,0-2,1-2,2.64s.73,2.67,2,2.67a1.64,1.64,0,0,0,1.12-.37V20.28H141.4v-.69h2.07v2.75a2.73,2.73,0,0,1-1.95.76C139.87,23.1,138.68,21.84,138.68,19.71Z"/><path class="cls-3" d="M144.83,20.55A2.44,2.44,0,0,1,147.31,18a2.08,2.08,0,0,1,2.21,2.28,3.11,3.11,0,0,1,0,.49h-4.1v-.63H149l-.2.23c0-1.15-.57-1.72-1.46-1.72a1.71,1.71,0,0,0-1.68,1.89,1.76,1.76,0,0,0,1.9,1.89A2.69,2.69,0,0,0,149,22l.3.53a3.3,3.3,0,0,1-1.87.58A2.46,2.46,0,0,1,144.83,20.55Z"/><path class="cls-3" d="M150.75,20.57a2.4,2.4,0,1,1,4.79,0,2.4,2.4,0,1,1-4.79,0Zm3.94,0c0-1.12-.61-1.87-1.54-1.87s-1.55.75-1.55,1.87.62,1.84,1.55,1.84S154.69,21.67,154.69,20.57Z"/><path class="cls-3" d="M156.87,23.87a1.35,1.35,0,0,1,.8-1.08v0a.88.88,0,0,1-.5-.8,1.17,1.17,0,0,1,.58-.9v0a1.55,1.55,0,0,1-.6-1.26A1.78,1.78,0,0,1,159.06,18a2,2,0,0,1,.72.12h2v.67h-1.26a1.43,1.43,0,0,1,.42,1,1.7,1.7,0,0,1-1.88,1.67,2.29,2.29,0,0,1-.82-.18.64.64,0,0,0-.38.55c0,.38.37.56,1,.56H160c1.24,0,1.84.32,1.84,1.14s-1.05,1.7-2.69,1.7C157.69,25.22,156.87,24.73,156.87,23.87Zm4.12-.22c0-.46-.37-.59-1.1-.59h-.95a2.75,2.75,0,0,1-.74-.08c-.46.25-.62.53-.62.81,0,.51.55.83,1.59.83S161,24.15,161,23.65Zm-.81-3.9a1.12,1.12,0,1,0-1.12,1.15A1.1,1.1,0,0,0,160.18,19.75Z"/><path class="cls-3" d="M163.6,18.13h.69l.08,1.15h0A2.56,2.56,0,0,1,166.56,18a2,2,0,0,1,.95.2l-.19.71a2.42,2.42,0,0,0-.89-.16,2.28,2.28,0,0,0-2,1.39V23h-.83Z"/><path class="cls-3" d="M169,21.72c0-1.08,1-1.61,3.52-1.81a1.15,1.15,0,0,0-1.28-1.22,3.39,3.39,0,0,0-1.7.58l-.33-.56a4.26,4.26,0,0,1,2.17-.7,1.8,1.8,0,0,1,2,2v3h-.69l-.07-.66h0a3.24,3.24,0,0,1-1.9.78A1.47,1.47,0,0,1,169,21.72Zm3.52,0V20.46c-2.07.16-2.7.57-2.7,1.2s.5.77,1.06.77A2.6,2.6,0,0,0,172.47,21.71Z"/><path class="cls-3" d="M175.08,18.13h.68l.07.62h0a2.58,2.58,0,0,1,1.68-.74c1.3,0,2,1,2,2.48a2.35,2.35,0,0,1-2.2,2.61,2.31,2.31,0,0,1-1.45-.63h0l0,.92V25h-.83Zm3.61,2.36c0-1.07-.4-1.78-1.36-1.78a2.06,2.06,0,0,0-1.42.72v2.41a2,2,0,0,0,1.29.56C178.05,22.4,178.69,21.69,178.69,20.49Z"/><path class="cls-3" d="M181.08,15.87h.83v1.94l0,1.15h0a2.43,2.43,0,0,1,1.8-.95c1.15,0,1.68.68,1.68,2v3h-.83v-2.9c0-.92-.32-1.35-1.1-1.35-.58,0-1,.29-1.53.87V23h-.83Z"/><path class="cls-3" d="M189.3,18.8h-2.25v-.67h3.07V23h-.82ZM189,16.47a.66.66,0,1,1,.65.64A.62.62,0,0,1,189,16.47Z"/><path class="cls-3" d="M193,20.57A2.52,2.52,0,0,1,195.66,18a2.46,2.46,0,0,1,1.76.71l-.41.53a2,2,0,0,0-1.32-.55,1.78,1.78,0,0,0-1.89,1.87,1.76,1.76,0,0,0,1.87,1.84,2.31,2.31,0,0,0,1.49-.61l.37.54a2.89,2.89,0,0,1-1.93.76A2.45,2.45,0,0,1,193,20.57Z"/></g><path class="cls-4" d="M46.51,168.57H235.79"/><g class="cls-2"><path class="cls-3" d="M304.73,16.42h.94l.48,4.12c.06.54.1.87.13,1.51h0c.12-.64.19-1,.32-1.5l.64-2.44h.8l.62,2.44c.14.53.2.86.32,1.5h0c0-.64.06-1,.12-1.5l.46-4.13h.9l-1,6.56h-1l-.64-2.63c-.1-.4-.18-.78-.24-1.18h0c-.07.4-.13.78-.23,1.18L306.75,23h-1Z"/><path class="cls-3" d="M311.43,21.72c0-1.08,1-1.61,3.53-1.81a1.15,1.15,0,0,0-1.29-1.22,3.39,3.39,0,0,0-1.7.58l-.33-.56a4.26,4.26,0,0,1,2.17-.7,1.81,1.81,0,0,1,2,2v3h-.69l-.07-.66h0a3.27,3.27,0,0,1-1.91.78A1.47,1.47,0,0,1,311.43,21.72Zm3.53,0V20.46c-2.08.16-2.71.57-2.71,1.2s.5.77,1.06.77A2.65,2.65,0,0,0,315,21.71Z"/><path class="cls-3" d="M317.34,22.34l.38-.55a3.47,3.47,0,0,0,2.11.66c.82,0,1.22-.33,1.22-.75s-.19-.63-1.51-.89-1.9-.69-1.9-1.42.69-1.38,2-1.38a3.65,3.65,0,0,1,2,.62l-.4.53a2.87,2.87,0,0,0-1.63-.51c-.82,0-1.12.33-1.12.7s.42.6,1.42.81c1.61.35,2,.75,2,1.5s-.77,1.44-2.16,1.44A4.27,4.27,0,0,1,317.34,22.34Z"/><path class="cls-3" d="M323.56,15.87h.83v1.94L324.34,19h0a2.44,2.44,0,0,1,1.81-.95c1.15,0,1.68.68,1.68,2v3H327v-2.9c0-.92-.32-1.35-1.11-1.35-.58,0-1,.29-1.53.87V23h-.83Z"/><path class="cls-3" d="M331.78,18.8h-2.25v-.67h3.08V23h-.83Zm-.33-2.33a.66.66,0,1,1,.66.64A.63.63,0,0,1,331.45,16.47Z"/><path class="cls-3" d="M335.56,18.13h.68l.07.82h0a2.52,2.52,0,0,1,1.83-.94c1.15,0,1.68.68,1.68,2v3H339v-2.9c0-.92-.32-1.35-1.11-1.35-.58,0-1,.29-1.53.87V23h-.83Z"/><path class="cls-3" d="M341.35,23.87a1.35,1.35,0,0,1,.8-1.08v0a.88.88,0,0,1-.5-.8,1.17,1.17,0,0,1,.58-.9v0a1.55,1.55,0,0,1-.6-1.26A1.78,1.78,0,0,1,343.54,18a2,2,0,0,1,.72.12h2v.67H345a1.47,1.47,0,0,1,.41,1,1.7,1.7,0,0,1-1.88,1.67,2.29,2.29,0,0,1-.82-.18.64.64,0,0,0-.38.55c0,.38.37.56,1,.56h1.09c1.25,0,1.85.32,1.85,1.14s-1.05,1.7-2.7,1.7C342.17,25.22,341.35,24.73,341.35,23.87Zm4.13-.22c0-.46-.37-.59-1.11-.59h-.95a2.75,2.75,0,0,1-.74-.08c-.46.25-.62.53-.62.81,0,.51.55.83,1.59.83S345.48,24.15,345.48,23.65Zm-.82-3.9a1.12,1.12,0,1,0-1.12,1.15A1.1,1.1,0,0,0,344.66,19.75Z"/><path class="cls-3" d="M348.69,21.1V18.8h-1.38v-.62l1.41-.05.11-1.56h.69v1.56h2.38v.67h-2.38v2.31c0,.86.29,1.31,1.23,1.31a3.2,3.2,0,0,0,1.16-.22l.18.61a4.24,4.24,0,0,1-1.52.29C349.15,23.1,348.69,22.29,348.69,21.1Z"/><path class="cls-3" d="M353.23,20.57a2.4,2.4,0,1,1,4.8,0,2.4,2.4,0,1,1-4.8,0Zm3.95,0c0-1.12-.62-1.87-1.55-1.87s-1.55.75-1.55,1.87.62,1.84,1.55,1.84S357.18,21.67,357.18,20.57Z"/><path class="cls-3" d="M359.56,18.13h.68l.07.82h0a2.52,2.52,0,0,1,1.83-.94c1.15,0,1.68.68,1.68,2v3H363v-2.9c0-.92-.32-1.35-1.11-1.35-.58,0-1,.29-1.53.87V23h-.83Z"/><path class="cls-3" d="M371.65,16.43h2c1.45,0,2.43.49,2.43,1.93s-1,2-2.43,2h-1.14V23h-.84Zm1.88,3.28c1.14,0,1.69-.42,1.69-1.35s-.56-1.25-1.69-1.25h-1v2.6Z"/><path class="cls-3" d="M377.23,20.57a2.4,2.4,0,1,1,4.8,0,2.4,2.4,0,1,1-4.8,0Zm3.95,0c0-1.12-.62-1.87-1.55-1.87s-1.55.75-1.55,1.87.62,1.84,1.55,1.84S381.18,21.67,381.18,20.57Z"/><path class="cls-3" d="M383.34,22.34l.38-.55a3.47,3.47,0,0,0,2.11.66c.82,0,1.22-.33,1.22-.75s-.19-.63-1.51-.89-1.9-.69-1.9-1.42.69-1.38,2-1.38a3.65,3.65,0,0,1,2,.62l-.4.53a2.87,2.87,0,0,0-1.63-.51c-.82,0-1.12.33-1.12.7s.42.6,1.42.81c1.61.35,2,.75,2,1.5s-.77,1.44-2.16,1.44A4.27,4.27,0,0,1,383.34,22.34Z"/><path class="cls-3" d="M390.69,21.1V18.8h-1.38v-.62l1.41-.05.11-1.56h.69v1.56h2.38v.67h-2.38v2.31c0,.86.29,1.31,1.23,1.31a3.2,3.2,0,0,0,1.16-.22l.18.61a4.24,4.24,0,0,1-1.52.29C391.15,23.1,390.69,22.29,390.69,21.1Z"/></g><path class="cls-4" d="M255,168.57H444.27"/><text class="cls-5" transform="translate(510.11 22.98)">Associated Press</text><path class="cls-4" d="M463.47,168.57H652.76"/><g class="cls-2"><path class="cls-3" d="M716.94,16.43h.83v5.84H721V23h-4.07Z"/><path class="cls-3" d="M722.2,20.57a2.4,2.4,0,1,1,4.8,0,2.4,2.4,0,1,1-4.8,0Zm3.95,0c0-1.12-.62-1.87-1.55-1.87s-1.55.75-1.55,1.87.62,1.84,1.55,1.84S726.15,21.67,726.15,20.57Z"/><path class="cls-3" d="M728.31,22.34l.38-.55a3.47,3.47,0,0,0,2.11.66c.82,0,1.22-.33,1.22-.75s-.19-.63-1.51-.89-1.9-.69-1.9-1.42.69-1.38,2-1.38a3.65,3.65,0,0,1,2,.62l-.4.53a2.87,2.87,0,0,0-1.63-.51c-.82,0-1.12.33-1.12.7s.42.6,1.42.81c1.61.35,2,.75,2,1.5s-.77,1.44-2.16,1.44A4.27,4.27,0,0,1,728.31,22.34Z"/><path class="cls-3" d="M742.12,16.43h1L745.29,23h-.9l-1.13-3.65c-.23-.73-.45-1.45-.65-2.21h0c-.21.76-.42,1.48-.65,2.21L740.77,23h-.86Zm-1,3.89h3V21h-3Z"/><path class="cls-3" d="M746.53,18.13h.68l.07.82h0a2.52,2.52,0,0,1,1.83-.94c1.15,0,1.68.68,1.68,2v3H750v-2.9c0-.92-.32-1.35-1.11-1.35-.58,0-1,.29-1.53.87V23h-.83Z"/><path class="cls-3" d="M752.32,23.87a1.35,1.35,0,0,1,.8-1.08v0a.88.88,0,0,1-.5-.8,1.17,1.17,0,0,1,.58-.9v0a1.55,1.55,0,0,1-.6-1.26A1.78,1.78,0,0,1,754.51,18a2,2,0,0,1,.72.12h2v.67H756a1.47,1.47,0,0,1,.41,1,1.7,1.7,0,0,1-1.88,1.67,2.29,2.29,0,0,1-.82-.18.64.64,0,0,0-.38.55c0,.38.37.56,1,.56h1.09c1.25,0,1.85.32,1.85,1.14s-1,1.7-2.7,1.7C753.14,25.22,752.32,24.73,752.32,23.87Zm4.13-.22c0-.46-.37-.59-1.11-.59h-1a2.75,2.75,0,0,1-.74-.08c-.46.25-.62.53-.62.81,0,.51.55.83,1.59.83S756.45,24.15,756.45,23.65Zm-.82-3.9a1.12,1.12,0,1,0-1.12,1.15A1.1,1.1,0,0,0,755.63,19.75Z"/><path class="cls-3" d="M758.28,20.55A2.44,2.44,0,0,1,760.76,18,2.09,2.09,0,0,1,763,20.29a3.11,3.11,0,0,1,0,.49h-4.11v-.63h3.62l-.21.23c0-1.15-.57-1.72-1.46-1.72a1.71,1.71,0,0,0-1.68,1.89,1.76,1.76,0,0,0,1.9,1.89,2.72,2.72,0,0,0,1.48-.45l.3.53a3.33,3.33,0,0,1-1.88.58A2.46,2.46,0,0,1,758.28,20.55Z"/><path class="cls-3" d="M766.06,21.36V16.54h-1.72v-.67h2.55v5.54a.87.87,0,0,0,1,1,2.2,2.2,0,0,0,.91-.22l.21.62a3,3,0,0,1-1.3.29C766.63,23.1,766.06,22.5,766.06,21.36Z"/><path class="cls-3" d="M770.28,20.55A2.44,2.44,0,0,1,772.76,18,2.09,2.09,0,0,1,775,20.29a3.11,3.11,0,0,1,0,.49h-4.11v-.63h3.62l-.21.23c0-1.15-.57-1.72-1.46-1.72a1.71,1.71,0,0,0-1.68,1.89,1.76,1.76,0,0,0,1.9,1.89,2.72,2.72,0,0,0,1.48-.45l.3.53a3.33,3.33,0,0,1-1.88.58A2.46,2.46,0,0,1,770.28,20.55Z"/><path class="cls-3" d="M776.31,22.34l.38-.55a3.47,3.47,0,0,0,2.11.66c.82,0,1.22-.33,1.22-.75s-.19-.63-1.51-.89-1.9-.69-1.9-1.42.69-1.38,2-1.38a3.65,3.65,0,0,1,2,.62l-.4.53a2.87,2.87,0,0,0-1.63-.51c-.82,0-1.12.33-1.12.7s.42.6,1.42.81c1.61.35,2,.75,2,1.5s-.77,1.44-2.16,1.44A4.27,4.27,0,0,1,776.31,22.34Z"/><path class="cls-3" d="M790.18,17.14H788v-.71h5.18v.71H791V23h-.84Z"/><path class="cls-3" d="M796.75,18.8H794.5v-.67h3.08V23h-.83Zm-.33-2.33a.66.66,0,1,1,.66.64A.63.63,0,0,1,796.42,16.47Z"/><path class="cls-3" d="M800.18,18.13h.66l.07.64h0A1.21,1.21,0,0,1,802,18c.48,0,.78.28.92.84.28-.52.58-.84,1.14-.84s1.08.53,1.08,1.5V23h-.82V19.57c0-.56-.16-.85-.52-.85s-.52.25-.78.75V23h-.76V19.57c0-.56-.14-.85-.5-.85s-.56.25-.8.75V23h-.82Z"/><path class="cls-3" d="M806.28,20.55A2.44,2.44,0,0,1,808.76,18,2.09,2.09,0,0,1,811,20.29a3.11,3.11,0,0,1,0,.49h-4.11v-.63h3.62l-.21.23c0-1.15-.57-1.72-1.46-1.72a1.71,1.71,0,0,0-1.68,1.89,1.76,1.76,0,0,0,1.9,1.89,2.72,2.72,0,0,0,1.48-.45l.3.53a3.33,3.33,0,0,1-1.88.58A2.46,2.46,0,0,1,806.28,20.55Z"/><path class="cls-3" d="M812.31,22.34l.38-.55a3.47,3.47,0,0,0,2.11.66c.82,0,1.22-.33,1.22-.75s-.19-.63-1.51-.89-1.9-.69-1.9-1.42.69-1.38,2-1.38a3.65,3.65,0,0,1,2,.62l-.4.53a2.87,2.87,0,0,0-1.63-.51c-.82,0-1.12.33-1.12.7s.42.6,1.42.81c1.61.35,2,.75,2,1.5s-.77,1.44-2.16,1.44A4.27,4.27,0,0,1,812.31,22.34Z"/></g><path class="cls-4" d="M672,168.57H861.24"/><g class="cls-2"><path class="cls-3" d="M913.1,16.43h2c1.45,0,2.43.49,2.43,1.93s-1,2-2.43,2h-1.14V23h-.84ZM915,19.71c1.14,0,1.69-.42,1.69-1.35s-.56-1.25-1.69-1.25h-1v2.6Z"/><path class="cls-3" d="M919,15.87h.83v1.94L919.79,19h0a2.44,2.44,0,0,1,1.81-.95c1.15,0,1.68.68,1.68,2v3h-.83v-2.9c0-.92-.32-1.35-1.11-1.35-.58,0-1,.29-1.53.87V23H919Z"/><path class="cls-3" d="M927.23,18.8H925v-.67h3.08V23h-.83Zm-.33-2.33a.66.66,0,1,1,.66.64A.63.63,0,0,1,926.9,16.47Z"/><path class="cls-3" d="M932.54,21.36V16.54h-1.72v-.67h2.55v5.54a.87.87,0,0,0,1,1,2.2,2.2,0,0,0,.91-.22l.21.62a3,3,0,0,1-1.3.29C933.11,23.1,932.54,22.5,932.54,21.36Z"/><path class="cls-3" d="M936.88,21.72c0-1.08,1-1.61,3.53-1.81a1.15,1.15,0,0,0-1.29-1.22,3.39,3.39,0,0,0-1.7.58l-.33-.56a4.26,4.26,0,0,1,2.17-.7,1.81,1.81,0,0,1,2,2v3h-.69l-.07-.66h0a3.27,3.27,0,0,1-1.91.78A1.47,1.47,0,0,1,936.88,21.72Zm3.53,0V20.46c-2.08.16-2.71.57-2.71,1.2s.5.77,1.06.77A2.65,2.65,0,0,0,940.41,21.71Z"/><path class="cls-3" d="M942.68,20.57a2.34,2.34,0,0,1,2.2-2.56,2.09,2.09,0,0,1,1.46.62h0l0-.89V15.87h.83V23h-.68l-.07-.64h0a2.33,2.33,0,0,1-1.59.76C943.52,23.1,942.68,22.18,942.68,20.57Zm3.64,1.12V19.27a1.8,1.8,0,0,0-1.27-.56,1.66,1.66,0,0,0-1.52,1.85c0,1.15.54,1.84,1.43,1.84A1.85,1.85,0,0,0,946.32,21.69Z"/><path class="cls-3" d="M948.76,20.55A2.44,2.44,0,0,1,951.24,18a2.09,2.09,0,0,1,2.22,2.28,3.11,3.11,0,0,1,0,.49h-4.11v-.63h3.62l-.21.23c0-1.15-.57-1.72-1.46-1.72a1.71,1.71,0,0,0-1.68,1.89,1.76,1.76,0,0,0,1.9,1.89A2.72,2.72,0,0,0,953,22l.3.53a3.33,3.33,0,0,1-1.88.58A2.46,2.46,0,0,1,948.76,20.55Z"/><path class="cls-3" d="M956.54,21.36V16.54h-1.72v-.67h2.55v5.54a.87.87,0,0,0,1,1,2.2,2.2,0,0,0,.91-.22l.21.62a3,3,0,0,1-1.3.29C957.11,23.1,956.54,22.5,956.54,21.36Z"/><path class="cls-3" d="M961,18.13h.68l.07.62h0a2.58,2.58,0,0,1,1.68-.74c1.31,0,2,1,2,2.48a2.35,2.35,0,0,1-2.21,2.61,2.31,2.31,0,0,1-1.45-.63h0l0,.92V25H961Zm3.62,2.36c0-1.07-.4-1.78-1.37-1.78a2.06,2.06,0,0,0-1.42.72v2.41a2,2,0,0,0,1.29.56C964,22.4,964.63,21.69,964.63,20.49Z"/><path class="cls-3" d="M967,15.87h.83v1.94L967.79,19h0a2.44,2.44,0,0,1,1.81-.95c1.15,0,1.68.68,1.68,2v3h-.83v-2.9c0-.92-.32-1.35-1.11-1.35-.58,0-1,.29-1.53.87V23H967Z"/><path class="cls-3" d="M975.23,18.8H973v-.67h3.08V23h-.83Zm-.33-2.33a.66.66,0,1,1,.66.64A.63.63,0,0,1,974.9,16.47Z"/><path class="cls-3" d="M978.88,21.72c0-1.08,1-1.61,3.53-1.81a1.15,1.15,0,0,0-1.29-1.22,3.39,3.39,0,0,0-1.7.58l-.33-.56a4.26,4.26,0,0,1,2.17-.7,1.81,1.81,0,0,1,2,2v3h-.69l-.07-.66h0a3.27,3.27,0,0,1-1.91.78A1.47,1.47,0,0,1,978.88,21.72Zm3.53,0V20.46c-2.08.16-2.71.57-2.71,1.2s.5.77,1.06.77A2.65,2.65,0,0,0,982.41,21.71Z"/><path class="cls-3" d="M991,22.27h1.63V17.14H991v-.71h4.1v.71H993.5v5.13h1.63V23H991Z"/><path class="cls-3" d="M997,18.13h.68l.07.82h0a2.52,2.52,0,0,1,1.83-.94c1.15,0,1.68.68,1.68,2v3h-.83v-2.9c0-.92-.32-1.35-1.11-1.35-.58,0-1,.29-1.53.87V23H997Z"/><path class="cls-3" d="M1006.32,23.26l0-.9h0a2.26,2.26,0,0,1-1.56.74c-1.26,0-2.1-.92-2.1-2.53a2.34,2.34,0,0,1,2.2-2.56,2.07,2.07,0,0,1,1.5.66h0l.08-.54h.66V25h-.83Zm0-1.57V19.27a1.8,1.8,0,0,0-1.27-.56,1.66,1.66,0,0,0-1.52,1.85c0,1.15.54,1.84,1.43,1.84A1.85,1.85,0,0,0,1006.32,21.69Z"/><path class="cls-3" d="M1008.85,21.15v-3h.83V21c0,.92.32,1.35,1.12,1.35a1.93,1.93,0,0,0,1.51-.89V18.13h.83V23h-.69l-.07-.85h0a2.37,2.37,0,0,1-1.81,1C1009.38,23.1,1008.85,22.42,1008.85,21.15Z"/><path class="cls-3" d="M1017.23,18.8H1015v-.67h3.08V23h-.83Zm-.33-2.33a.66.66,0,1,1,.66.64A.63.63,0,0,1,1016.9,16.47Z"/><path class="cls-3" d="M1021.53,18.13h.69l.08,1.15h0a2.56,2.56,0,0,1,2.17-1.27,2,2,0,0,1,1,.2l-.19.71a2.44,2.44,0,0,0-.9-.16,2.28,2.28,0,0,0-2,1.39V23h-.83Z"/><path class="cls-3" d="M1026.76,20.55a2.44,2.44,0,0,1,2.48-2.54,2.09,2.09,0,0,1,2.22,2.28,3.11,3.11,0,0,1,0,.49h-4.11v-.63h3.62l-.21.23c0-1.15-.57-1.72-1.46-1.72a1.71,1.71,0,0,0-1.68,1.89,1.76,1.76,0,0,0,1.9,1.89A2.72,2.72,0,0,0,1031,22l.3.53a3.33,3.33,0,0,1-1.88.58A2.46,2.46,0,0,1,1026.76,20.55Z"/><path class="cls-3" d="M1033.53,18.13h.69l.08,1.15h0a2.56,2.56,0,0,1,2.17-1.27,2,2,0,0,1,1,.2l-.19.71a2.44,2.44,0,0,0-.9-.16,2.28,2.28,0,0,0-2,1.39V23h-.83Z"/></g><path class="cls-4" d="M880.44,168.57h189.28"/><g class="cls-2"><path class="cls-3" d="M123.87,202.6h1l.92,2.8.32,1.06h0l.31-1.06.93-2.8h1v6.56h-.79v-3.28c0-.64.1-1.76.14-2.32h0l-.37,1.28-.94,2.58h-.6l-.92-2.58-.38-1.28h0c.06.56.14,1.68.14,2.32v3.28h-.78Z"/><path class="cls-3" d="M130,207.9c0-1.09,1-1.62,3.53-1.82a1.15,1.15,0,0,0-1.29-1.22,3.39,3.39,0,0,0-1.7.58l-.33-.56a4.26,4.26,0,0,1,2.17-.7,1.81,1.81,0,0,1,2,2v3h-.69l-.07-.66h0a3.27,3.27,0,0,1-1.91.78A1.47,1.47,0,0,1,130,207.9Zm3.53,0v-1.26c-2.08.16-2.71.57-2.71,1.21s.5.77,1.06.77A2.65,2.65,0,0,0,133.48,207.89Z"/><path class="cls-3" d="M135.87,210.05a1.35,1.35,0,0,1,.8-1.08v0a.88.88,0,0,1-.5-.8,1.18,1.18,0,0,1,.58-.91v0a1.55,1.55,0,0,1-.6-1.26,1.78,1.78,0,0,1,1.91-1.74,2,2,0,0,1,.72.12h2V205h-1.25a1.47,1.47,0,0,1,.41,1,1.7,1.7,0,0,1-1.88,1.67,2.1,2.1,0,0,1-.82-.18.67.67,0,0,0-.38.56c0,.38.37.56,1,.56H139c1.25,0,1.84.32,1.84,1.14s-1,1.7-2.69,1.7C136.69,211.4,135.87,210.91,135.87,210.05Zm4.13-.22c0-.46-.37-.59-1.11-.59h-.95a2.75,2.75,0,0,1-.74-.08c-.46.25-.62.53-.62.81,0,.51.55.83,1.59.83S140,210.33,140,209.83Zm-.82-3.91a1.12,1.12,0,1,0-1.12,1.15A1.1,1.1,0,0,0,139.18,205.92Z"/><path class="cls-3" d="M142.08,204.3h.68l.07.82h0a2.52,2.52,0,0,1,1.83-.94c1.14,0,1.67.68,1.67,2v3h-.83v-2.91c0-.92-.31-1.35-1.1-1.35-.58,0-1,.29-1.53.87v3.39h-.83Z"/><path class="cls-3" d="M147.92,207.32v-3h.83v2.91c0,.91.32,1.35,1.12,1.35a1.93,1.93,0,0,0,1.51-.89V204.3h.82v4.86h-.68l-.07-.85h0a2.37,2.37,0,0,1-1.81,1C148.45,209.28,147.92,208.6,147.92,207.32Z"/><path class="cls-3" d="M153.73,204.3h.66l.07.64h0a1.21,1.21,0,0,1,1.11-.76c.48,0,.78.28.92.84.28-.52.58-.84,1.14-.84s1.07.53,1.07,1.5v3.48h-.82v-3.42c0-.56-.15-.85-.51-.85s-.52.25-.78.75v3.52h-.76v-3.42c0-.56-.14-.85-.5-.85s-.56.25-.8.75v3.52h-.82Z"/></g><g class="cls-2"><path class="cls-3" d="M320.62,202.6h1.86c1.34,0,2.25.45,2.25,1.6a1.43,1.43,0,0,1-1.15,1.43v0c1,.15,1.52.67,1.52,1.57,0,1.29-1,1.92-2.47,1.92h-2Zm1.72,2.76c1.12,0,1.57-.36,1.57-1.09s-.52-1-1.53-1h-.93v2.06Zm.17,3.1c1.12,0,1.77-.37,1.77-1.26s-.62-1.14-1.77-1.14h-1.06v2.4Z"/><path class="cls-3" d="M328.09,207.53v-4.82h-1.72V202h2.55v5.55a.88.88,0,0,0,1,1,2.2,2.2,0,0,0,.91-.22l.21.62a3,3,0,0,1-1.3.29C328.66,209.28,328.09,208.68,328.09,207.53Z"/><path class="cls-3" d="M332.43,207.9c0-1.09,1-1.62,3.53-1.82a1.15,1.15,0,0,0-1.29-1.22,3.39,3.39,0,0,0-1.7.58l-.33-.56a4.26,4.26,0,0,1,2.17-.7,1.81,1.81,0,0,1,2,2v3h-.69l-.07-.66h0a3.27,3.27,0,0,1-1.91.78A1.47,1.47,0,0,1,332.43,207.9Zm3.53,0v-1.26c-2.08.16-2.71.57-2.71,1.21s.5.77,1.06.77A2.65,2.65,0,0,0,336,207.89Z"/><path class="cls-3" d="M338.43,206.74a2.52,2.52,0,0,1,2.71-2.56,2.47,2.47,0,0,1,1.77.71l-.41.53a2,2,0,0,0-1.33-.55,1.78,1.78,0,0,0-1.89,1.87,1.76,1.76,0,0,0,1.87,1.85,2.31,2.31,0,0,0,1.5-.61l.37.54a2.89,2.89,0,0,1-1.93.76A2.45,2.45,0,0,1,338.43,206.74Z"/><path class="cls-3" d="M344.68,202h.83v4.81h0l2.61-2.55h.95l-3.6,3.54v1.32h-.83Zm1.87,4.54.5-.54,2.32,3.12h-.92Z"/><path class="cls-3" d="M356.3,208.31l.5-.58a2.76,2.76,0,0,0,1.92.81c.9,0,1.42-.43,1.42-1s-.51-.9-1.17-1.18l-1-.42a1.87,1.87,0,0,1-1.41-1.69,1.91,1.91,0,0,1,2.15-1.74,2.86,2.86,0,0,1,2,.81l-.44.54a2.31,2.31,0,0,0-1.61-.61c-.76,0-1.27.36-1.27.95s.61.86,1.17,1.08l.92.41c.81.32,1.45.78,1.45,1.75s-.88,1.87-2.32,1.87A3.33,3.33,0,0,1,356.3,208.31Z"/><path class="cls-3" d="M363.69,207.27V205h-1.38v-.62l1.41,0,.11-1.56h.69v1.56h2.38V205h-2.38v2.31c0,.87.29,1.32,1.23,1.32a3.2,3.2,0,0,0,1.16-.22l.18.61a4.24,4.24,0,0,1-1.52.29C364.15,209.28,363.69,208.47,363.69,207.27Z"/><path class="cls-3" d="M368.43,207.9c0-1.09,1-1.62,3.53-1.82a1.15,1.15,0,0,0-1.29-1.22,3.39,3.39,0,0,0-1.7.58l-.33-.56a4.26,4.26,0,0,1,2.17-.7,1.81,1.81,0,0,1,2,2v3h-.69l-.07-.66h0a3.27,3.27,0,0,1-1.91.78A1.47,1.47,0,0,1,368.43,207.9Zm3.53,0v-1.26c-2.08.16-2.71.57-2.71,1.21s.5.77,1.06.77A2.65,2.65,0,0,0,372,207.89Z"/><path class="cls-3" d="M375.08,204.3h.69l.08,1.15h0a2.56,2.56,0,0,1,2.17-1.27,2,2,0,0,1,1,.2l-.19.71a2.44,2.44,0,0,0-.9-.16,2.28,2.28,0,0,0-2,1.39v2.84h-.83Z"/></g><g class="cls-2"><path class="cls-3" d="M498.77,205.88c0-2.11,1.23-3.4,2.93-3.4a2.46,2.46,0,0,1,1.8.8l-.48.53a1.76,1.76,0,0,0-1.32-.59c-1.24,0-2.06,1-2.06,2.64s.82,2.68,2.06,2.68a1.89,1.89,0,0,0,1.47-.72l.48.51a2.54,2.54,0,0,1-2,.95C500,209.28,498.77,208,498.77,205.88Z"/><path class="cls-3" d="M504.72,206.74a2.4,2.4,0,1,1,2.39,2.54A2.38,2.38,0,0,1,504.72,206.74Zm3.94,0c0-1.12-.62-1.87-1.55-1.87s-1.54.75-1.54,1.87.62,1.85,1.54,1.85S508.66,207.85,508.66,206.74Z"/><path class="cls-3" d="M511.05,204.3h.68l.07.82h0a2.5,2.5,0,0,1,1.82-.94c1.15,0,1.68.68,1.68,2v3h-.83v-2.91c0-.92-.32-1.35-1.11-1.35-.58,0-1,.29-1.52.87v3.39h-.83Z"/><path class="cls-3" d="M518.17,207.27V205H516.8v-.62l1.4,0,.11-1.56H519v1.56h2.38V205H519v2.31c0,.87.29,1.32,1.23,1.32a3.2,3.2,0,0,0,1.16-.22l.18.61a4.24,4.24,0,0,1-1.52.29C518.63,209.28,518.17,208.47,518.17,207.27Z"/><path class="cls-3" d="M522.92,207.9c0-1.09,1-1.62,3.52-1.82a1.15,1.15,0,0,0-1.29-1.22,3.32,3.32,0,0,0-1.69.58l-.34-.56a4.26,4.26,0,0,1,2.17-.7,1.81,1.81,0,0,1,2,2v3h-.69l-.07-.66h0a3.27,3.27,0,0,1-1.91.78A1.47,1.47,0,0,1,522.92,207.9Zm3.52,0v-1.26c-2.08.16-2.71.57-2.71,1.21s.5.77,1.06.77A2.65,2.65,0,0,0,526.44,207.89Z"/><path class="cls-3" d="M528.92,206.74a2.51,2.51,0,0,1,2.7-2.56,2.47,2.47,0,0,1,1.77.71l-.41.53a2,2,0,0,0-1.33-.55,1.78,1.78,0,0,0-1.89,1.87,1.76,1.76,0,0,0,1.87,1.85,2.31,2.31,0,0,0,1.5-.61l.37.54a2.89,2.89,0,0,1-1.93.76A2.44,2.44,0,0,1,528.92,206.74Z"/><path class="cls-3" d="M536.17,207.27V205H534.8v-.62l1.4,0,.11-1.56H537v1.56h2.38V205H537v2.31c0,.87.29,1.32,1.23,1.32a3.2,3.2,0,0,0,1.16-.22l.18.61a4.24,4.24,0,0,1-1.52.29C536.63,209.28,536.17,208.47,536.17,207.27Z"/><path class="cls-3" d="M547.13,202.6h2c1.45,0,2.43.49,2.43,1.93s-1,2-2.43,2H548v2.6h-.84Zm1.88,3.28c1.14,0,1.69-.42,1.69-1.35s-.56-1.25-1.69-1.25h-1v2.6Z"/><path class="cls-3" d="M553.56,204.3h.69l.08,1.15h0a2.56,2.56,0,0,1,2.17-1.27,2,2,0,0,1,1,.2l-.19.71a2.44,2.44,0,0,0-.9-.16,2.28,2.28,0,0,0-2,1.39v2.84h-.83Z"/><path class="cls-3" d="M558.79,206.72a2.44,2.44,0,0,1,2.48-2.54,2.09,2.09,0,0,1,2.22,2.28,3.37,3.37,0,0,1,0,.5h-4.11v-.64H563l-.21.23c0-1.15-.57-1.72-1.46-1.72a1.71,1.71,0,0,0-1.68,1.89,1.76,1.76,0,0,0,1.9,1.9,2.65,2.65,0,0,0,1.48-.46l.3.54a3.33,3.33,0,0,1-1.88.58A2.46,2.46,0,0,1,558.79,206.72Z"/><path class="cls-3" d="M564.82,208.52l.38-.55a3.47,3.47,0,0,0,2.11.66c.82,0,1.22-.34,1.22-.75s-.19-.63-1.51-.9-1.9-.69-1.9-1.42.69-1.38,2-1.38a3.65,3.65,0,0,1,2,.62l-.4.53a2.87,2.87,0,0,0-1.63-.51c-.82,0-1.12.33-1.12.7s.42.6,1.42.81c1.61.35,2,.75,2,1.5s-.77,1.45-2.16,1.45A4.27,4.27,0,0,1,564.82,208.52Z"/><path class="cls-3" d="M570.82,208.52l.38-.55a3.47,3.47,0,0,0,2.11.66c.82,0,1.22-.34,1.22-.75s-.19-.63-1.51-.9-1.9-.69-1.9-1.42.69-1.38,2-1.38a3.65,3.65,0,0,1,2,.62l-.4.53a2.87,2.87,0,0,0-1.63-.51c-.82,0-1.12.33-1.12.7s.42.6,1.42.81c1.61.35,2,.75,2,1.5s-.77,1.45-2.16,1.45A4.27,4.27,0,0,1,570.82,208.52Z"/><path class="cls-3" d="M583.06,208.45h1.63v-5.14h-1.63v-.71h4.1v.71h-1.63v5.14h1.63v.71h-4.1Z"/><path class="cls-3" d="M588.69,204.3h.66l.07.64h0a1.21,1.21,0,0,1,1.11-.76c.48,0,.78.28.92.84.28-.52.58-.84,1.14-.84s1.08.53,1.08,1.5v3.48h-.82v-3.42c0-.56-.16-.85-.52-.85s-.52.25-.78.75v3.52h-.76v-3.42c0-.56-.14-.85-.5-.85s-.56.25-.8.75v3.52h-.82Z"/><path class="cls-3" d="M594.91,207.9c0-1.09,1-1.62,3.53-1.82a1.15,1.15,0,0,0-1.29-1.22,3.39,3.39,0,0,0-1.7.58l-.33-.56a4.26,4.26,0,0,1,2.17-.7,1.81,1.81,0,0,1,2,2v3h-.69l-.07-.66h0a3.27,3.27,0,0,1-1.91.78A1.47,1.47,0,0,1,594.91,207.9Zm3.53,0v-1.26c-2.08.16-2.71.57-2.71,1.21s.5.77,1.06.77A2.65,2.65,0,0,0,598.44,207.89Z"/><path class="cls-3" d="M600.83,210.05a1.35,1.35,0,0,1,.8-1.08v0a.88.88,0,0,1-.5-.8,1.18,1.18,0,0,1,.58-.91v0a1.55,1.55,0,0,1-.6-1.26,1.78,1.78,0,0,1,1.91-1.74,2,2,0,0,1,.72.12h2V205h-1.26a1.47,1.47,0,0,1,.41,1,1.7,1.7,0,0,1-1.88,1.67,2.1,2.1,0,0,1-.82-.18.67.67,0,0,0-.38.56c0,.38.37.56,1,.56h1.09c1.25,0,1.85.32,1.85,1.14s-1,1.7-2.7,1.7C601.65,211.4,600.83,210.91,600.83,210.05Zm4.13-.22c0-.46-.37-.59-1.11-.59h-1a2.75,2.75,0,0,1-.74-.08c-.46.25-.62.53-.62.81,0,.51.55.83,1.59.83S605,210.33,605,209.83Zm-.82-3.91a1.12,1.12,0,1,0-1.12,1.15A1.1,1.1,0,0,0,604.14,205.92Z"/><path class="cls-3" d="M606.79,206.72a2.44,2.44,0,0,1,2.48-2.54,2.09,2.09,0,0,1,2.22,2.28,3.37,3.37,0,0,1,0,.5h-4.11v-.64H611l-.21.23c0-1.15-.57-1.72-1.46-1.72a1.71,1.71,0,0,0-1.68,1.89,1.76,1.76,0,0,0,1.9,1.9,2.65,2.65,0,0,0,1.48-.46l.3.54a3.33,3.33,0,0,1-1.88.58A2.46,2.46,0,0,1,606.79,206.72Z"/><path class="cls-3" d="M612.82,208.52l.38-.55a3.47,3.47,0,0,0,2.11.66c.82,0,1.22-.34,1.22-.75s-.19-.63-1.51-.9-1.9-.69-1.9-1.42.69-1.38,2-1.38a3.65,3.65,0,0,1,2,.62l-.4.53a2.87,2.87,0,0,0-1.63-.51c-.82,0-1.12.33-1.12.7s.42.6,1.42.81c1.61.35,2,.75,2,1.5s-.77,1.45-2.16,1.45A4.27,4.27,0,0,1,612.82,208.52Z"/></g><g class="cls-2"><path class="cls-3" d="M757.18,203.31H755v-.71h5.18v.71H758v5.85h-.84Z"/><path class="cls-3" d="M761.55,208.45h1.63v-5.14h-1.63v-.71h4.1v.71H764v5.14h1.63v.71h-4.1Z"/><path class="cls-3" d="M767.32,202.6h1l.92,2.8.32,1.06h0l.31-1.06.93-2.8h1v6.56h-.8v-3.28c0-.64.1-1.76.14-2.32h0l-.37,1.28-.94,2.58h-.6l-.92-2.58-.38-1.28h0c.06.56.14,1.68.14,2.32v3.28h-.78Z"/><path class="cls-3" d="M773.74,202.6h4.06v.71h-3.22v2.05h2.72v.71h-2.72v2.38h3.32v.71h-4.16Z"/></g><g class="cls-2"><path class="cls-3" d="M907.1,202.6h2c1.45,0,2.43.49,2.43,1.93s-1,2-2.43,2h-1.14v2.6h-.84Zm1.88,3.28c1.14,0,1.69-.42,1.69-1.35s-.56-1.25-1.69-1.25h-1v2.6Z"/><path class="cls-3" d="M915.23,205H913v-.67h3.08v4.86h-.83Zm-.33-2.33a.66.66,0,1,1,.66.64A.63.63,0,0,1,914.9,202.64Z"/><path class="cls-3" d="M920.14,207.27V205h-1.38v-.62l1.41,0,.11-1.56H921v1.56h2.38V205H921v2.31c0,.87.29,1.32,1.23,1.32a3.2,3.2,0,0,0,1.16-.22l.18.61a4.24,4.24,0,0,1-1.52.29C920.6,209.28,920.14,208.47,920.14,207.27Z"/><path class="cls-3" d="M926.14,207.27V205h-1.38v-.62l1.41,0,.11-1.56H927v1.56h2.38V205H927v2.31c0,.87.29,1.32,1.23,1.32a3.2,3.2,0,0,0,1.16-.22l.18.61a4.24,4.24,0,0,1-1.52.29C926.6,209.28,926.14,208.47,926.14,207.27Z"/><path class="cls-3" d="M930.79,208.52l.38-.55a3.47,3.47,0,0,0,2.11.66c.82,0,1.22-.34,1.22-.75s-.19-.63-1.51-.9-1.9-.69-1.9-1.42.69-1.38,2-1.38a3.65,3.65,0,0,1,2,.62l-.4.53a2.87,2.87,0,0,0-1.63-.51c-.82,0-1.12.33-1.12.7s.42.6,1.42.81c1.61.35,2,.75,2,1.5s-.77,1.45-2.16,1.45A4.27,4.27,0,0,1,930.79,208.52Z"/><path class="cls-3" d="M937.78,208.62h0l-.08.54H937V202h.83V204l0,.94h0a2.39,2.39,0,0,1,1.63-.74c1.31,0,2,1,2,2.47a2.35,2.35,0,0,1-2.19,2.63A2.4,2.4,0,0,1,937.78,208.62Zm2.85-2c0-1.07-.4-1.78-1.37-1.78a2.06,2.06,0,0,0-1.42.72V208a2,2,0,0,0,1.31.56C940,208.58,940.63,207.86,940.63,206.66Z"/><path class="cls-3" d="M942.85,207.32v-3h.83v2.91c0,.91.32,1.35,1.12,1.35a1.93,1.93,0,0,0,1.51-.89V204.3h.83v4.86h-.69l-.07-.85h0a2.37,2.37,0,0,1-1.81,1C943.38,209.28,942.85,208.6,942.85,207.32Z"/><path class="cls-3" d="M949.53,204.3h.69l.08,1.15h0a2.56,2.56,0,0,1,2.17-1.27,2,2,0,0,1,1,.2l-.19.71a2.44,2.44,0,0,0-.9-.16,2.28,2.28,0,0,0-2,1.39v2.84h-.83Z"/><path class="cls-3" d="M954.8,210.05a1.35,1.35,0,0,1,.8-1.08v0a.88.88,0,0,1-.5-.8,1.18,1.18,0,0,1,.58-.91v0a1.55,1.55,0,0,1-.6-1.26,1.78,1.78,0,0,1,1.91-1.74,2,2,0,0,1,.72.12h2V205h-1.26a1.47,1.47,0,0,1,.41,1,1.7,1.7,0,0,1-1.88,1.67,2.1,2.1,0,0,1-.82-.18.67.67,0,0,0-.38.56c0,.38.37.56,1,.56h1.09c1.25,0,1.85.32,1.85,1.14s-1,1.7-2.7,1.7C955.62,211.4,954.8,210.91,954.8,210.05Zm4.13-.22c0-.46-.37-.59-1.11-.59h-1a2.75,2.75,0,0,1-.74-.08c-.46.25-.62.53-.62.81,0,.51.55.83,1.59.83S958.93,210.33,958.93,209.83Zm-.82-3.91a1.12,1.12,0,1,0-1.12,1.15A1.1,1.1,0,0,0,958.11,205.92Z"/><path class="cls-3" d="M961,202h.83V204l-.05,1.15h0a2.44,2.44,0,0,1,1.81-.95c1.15,0,1.68.68,1.68,2v3h-.83v-2.91c0-.92-.32-1.35-1.11-1.35-.58,0-1,.29-1.53.87v3.39H961Z"/><path class="cls-3" d="M973.1,202.6h2c1.45,0,2.43.49,2.43,1.93s-1,2-2.43,2h-1.14v2.6h-.84Zm1.88,3.28c1.14,0,1.69-.42,1.69-1.35s-.56-1.25-1.69-1.25h-1v2.6Z"/><path class="cls-3" d="M978.68,206.74a2.4,2.4,0,1,1,2.4,2.54A2.38,2.38,0,0,1,978.68,206.74Zm4,0c0-1.12-.62-1.87-1.55-1.87s-1.55.75-1.55,1.87.62,1.85,1.55,1.85S982.63,207.85,982.63,206.74Z"/><path class="cls-3" d="M984.79,208.52l.38-.55a3.47,3.47,0,0,0,2.11.66c.82,0,1.22-.34,1.22-.75s-.19-.63-1.51-.9-1.9-.69-1.9-1.42.69-1.38,2-1.38a3.65,3.65,0,0,1,2,.62l-.4.53a2.87,2.87,0,0,0-1.63-.51c-.82,0-1.12.33-1.12.7s.42.6,1.42.81c1.61.35,2,.75,2,1.5s-.77,1.45-2.16,1.45A4.27,4.27,0,0,1,984.79,208.52Z"/><path class="cls-3" d="M992.14,207.27V205h-1.38v-.62l1.41,0,.11-1.56H993v1.56h2.38V205H993v2.31c0,.87.29,1.32,1.23,1.32a3.2,3.2,0,0,0,1.16-.22l.18.61a4.24,4.24,0,0,1-1.52.29C992.6,209.28,992.14,208.47,992.14,207.27Z"/><path class="cls-3" d="M996.93,205.55h4.3v.62h-4.3Z"/><path class="cls-3" d="M1002.61,205.88c0-2.12,1.21-3.4,2.91-3.4a2.41,2.41,0,0,1,1.81.8l-.48.53a1.71,1.71,0,0,0-1.33-.59c-1.23,0-2,1-2,2.64s.73,2.68,2,2.68a1.64,1.64,0,0,0,1.13-.38v-1.71h-1.3v-.69h2.08v2.76a2.76,2.76,0,0,1-2,.76C1003.8,209.28,1002.61,208,1002.61,205.88Z"/><path class="cls-3" d="M1008.88,207.9c0-1.09,1-1.62,3.53-1.82a1.15,1.15,0,0,0-1.29-1.22,3.39,3.39,0,0,0-1.7.58l-.33-.56a4.26,4.26,0,0,1,2.17-.7,1.81,1.81,0,0,1,2,2v3h-.69l-.07-.66h0a3.27,3.27,0,0,1-1.91.78A1.47,1.47,0,0,1,1008.88,207.9Zm3.53,0v-1.26c-2.08.16-2.71.57-2.71,1.21s.5.77,1.06.77A2.65,2.65,0,0,0,1012.41,207.89Z"/><path class="cls-3" d="M1014.79,208.72l3.32-3.75h-3v-.67h4.14v.44l-3.32,3.74h3.41v.68h-4.6Z"/><path class="cls-3" d="M1020.76,206.72a2.44,2.44,0,0,1,2.48-2.54,2.09,2.09,0,0,1,2.22,2.28,3.37,3.37,0,0,1,0,.5h-4.11v-.64h3.62l-.21.23c0-1.15-.57-1.72-1.46-1.72a1.71,1.71,0,0,0-1.68,1.89,1.76,1.76,0,0,0,1.9,1.9,2.65,2.65,0,0,0,1.48-.46l.3.54a3.33,3.33,0,0,1-1.88.58A2.46,2.46,0,0,1,1020.76,206.72Z"/><path class="cls-3" d="M1028.14,207.27V205h-1.38v-.62l1.41,0,.11-1.56h.69v1.56h2.38V205H1029v2.31c0,.87.29,1.32,1.23,1.32a3.2,3.2,0,0,0,1.16-.22l.18.61a4.24,4.24,0,0,1-1.52.29C1028.6,209.28,1028.14,208.47,1028.14,207.27Z"/><path class="cls-3" d="M1034.14,207.27V205h-1.38v-.62l1.41,0,.11-1.56h.69v1.56h2.38V205H1035v2.31c0,.87.29,1.32,1.23,1.32a3.2,3.2,0,0,0,1.16-.22l.18.61a4.24,4.24,0,0,1-1.52.29C1034.6,209.28,1034.14,208.47,1034.14,207.27Z"/><path class="cls-3" d="M1038.76,206.72a2.44,2.44,0,0,1,2.48-2.54,2.09,2.09,0,0,1,2.22,2.28,3.37,3.37,0,0,1,0,.5h-4.11v-.64h3.62l-.21.23c0-1.15-.57-1.72-1.46-1.72a1.71,1.71,0,0,0-1.68,1.89,1.76,1.76,0,0,0,1.9,1.9,2.65,2.65,0,0,0,1.48-.46l.3.54a3.33,3.33,0,0,1-1.88.58A2.46,2.46,0,0,1,1038.76,206.72Z"/></g><g class="cls-2"><path class="cls-3" d="M106.14,388.28H108c1.34,0,2.25.45,2.25,1.6a1.43,1.43,0,0,1-1.15,1.43v0c1,.15,1.51.67,1.51,1.57,0,1.29-1,1.92-2.46,1.92h-2Zm1.72,2.76c1.12,0,1.57-.36,1.57-1.09s-.52-1-1.53-1H107V391Zm.17,3.1c1.12,0,1.77-.37,1.77-1.26s-.62-1.14-1.77-1.14H107v2.4Z"/><path class="cls-3" d="M111.75,392.42a2.4,2.4,0,1,1,2.4,2.54A2.38,2.38,0,0,1,111.75,392.42Zm4,0c0-1.12-.62-1.87-1.55-1.87s-1.55.75-1.55,1.87.62,1.85,1.55,1.85S115.7,393.53,115.7,392.42Z"/><path class="cls-3" d="M117.86,394.2l.38-.55a3.47,3.47,0,0,0,2.11.66c.82,0,1.22-.34,1.22-.75s-.19-.63-1.51-.9-1.9-.69-1.9-1.42.69-1.38,2-1.38a3.65,3.65,0,0,1,2,.62l-.4.53a2.87,2.87,0,0,0-1.63-.51c-.82,0-1.12.33-1.12.7s.42.6,1.42.81c1.61.35,2,.75,2,1.5s-.77,1.45-2.16,1.45A4.27,4.27,0,0,1,117.86,394.2Z"/><path class="cls-3" d="M125.21,393v-2.3h-1.38V390l1.41,0,.11-1.56H126V390h2.37v.67H126V393c0,.87.29,1.32,1.23,1.32a3.18,3.18,0,0,0,1.15-.22l.18.61a4.23,4.23,0,0,1-1.51.29C125.67,395,125.21,394.15,125.21,393Z"/><path class="cls-3" d="M129.75,392.42a2.4,2.4,0,1,1,2.4,2.54A2.38,2.38,0,0,1,129.75,392.42Zm3.94,0c0-1.12-.61-1.87-1.54-1.87s-1.55.75-1.55,1.87.62,1.85,1.55,1.85S133.69,393.53,133.69,392.42Z"/><path class="cls-3" d="M136.08,390h.68l.07.82h0a2.52,2.52,0,0,1,1.83-.94c1.14,0,1.67.68,1.67,2v3h-.83v-2.91c0-.92-.31-1.35-1.1-1.35-.58,0-1,.29-1.53.87v3.39h-.83Z"/><path class="cls-3" d="M147.68,391.56c0-2.12,1.21-3.4,2.91-3.4a2.39,2.39,0,0,1,1.8.8l-.47.53a1.72,1.72,0,0,0-1.33-.59c-1.23,0-2,1-2,2.64s.73,2.68,2,2.68a1.59,1.59,0,0,0,1.12-.38v-1.71H150.4v-.69h2.07v2.76a2.73,2.73,0,0,1-1.95.76C148.87,395,147.68,393.7,147.68,391.56Z"/><path class="cls-3" d="M155.61,393.21v-4.82h-1.72v-.67h2.55v5.55a.88.88,0,0,0,1,1,2.19,2.19,0,0,0,.9-.22l.21.62a2.91,2.91,0,0,1-1.29.29C156.18,395,155.61,394.36,155.61,393.21Z"/><path class="cls-3" d="M159.75,392.42a2.4,2.4,0,1,1,2.4,2.54A2.38,2.38,0,0,1,159.75,392.42Zm3.94,0c0-1.12-.62-1.87-1.54-1.87s-1.55.75-1.55,1.87.62,1.85,1.55,1.85S163.69,393.53,163.69,392.42Z"/><path class="cls-3" d="M166.85,394.3h0l-.08.54h-.66v-7.12h.83v1.94l0,.94h0a2.39,2.39,0,0,1,1.62-.74c1.31,0,2,1,2,2.47a2.35,2.35,0,0,1-2.19,2.63A2.4,2.4,0,0,1,166.85,394.3Zm2.84-2c0-1.07-.4-1.78-1.36-1.78a2.06,2.06,0,0,0-1.42.72v2.42a2,2,0,0,0,1.31.56C169.05,394.26,169.69,393.54,169.69,392.34Z"/><path class="cls-3" d="M171.83,392.4a2.44,2.44,0,0,1,2.48-2.54,2.09,2.09,0,0,1,2.21,2.28,3.37,3.37,0,0,1,0,.5h-4.1V392H176l-.21.23c0-1.15-.57-1.72-1.45-1.72a1.71,1.71,0,0,0-1.68,1.89,1.76,1.76,0,0,0,1.89,1.9,2.65,2.65,0,0,0,1.48-.46l.3.54a3.32,3.32,0,0,1-1.87.58A2.46,2.46,0,0,1,171.83,392.4Z"/></g><path class="cls-4" d="M46.51,540.42H235.79"/><g class="cls-2"><path class="cls-3" d="M314.35,388.28h1l.92,2.8.32,1.06h0l.31-1.06.93-2.8h1v6.56h-.8v-3.28c0-.64.1-1.76.14-2.32h0l-.37,1.28-.94,2.58h-.6l-.92-2.58-.38-1.28h0c.06.56.14,1.68.14,2.32v3.28h-.78Z"/><path class="cls-3" d="M322.78,390.65h-2.25V390h3.08v4.86h-.83Zm-.33-2.33a.66.66,0,1,1,.66.64A.63.63,0,0,1,322.45,388.32Z"/><path class="cls-3" d="M326.43,393.58c0-1.09,1-1.62,3.53-1.82a1.15,1.15,0,0,0-1.29-1.22,3.39,3.39,0,0,0-1.7.58l-.33-.56a4.26,4.26,0,0,1,2.17-.7,1.81,1.81,0,0,1,2,2v3h-.69l-.07-.66h0a3.27,3.27,0,0,1-1.91.78A1.47,1.47,0,0,1,326.43,393.58Zm3.53,0v-1.26c-2.08.16-2.71.57-2.71,1.21s.5.77,1.06.77A2.65,2.65,0,0,0,330,393.57Z"/><path class="cls-3" d="M332.21,390h.66l.07.64h0a1.21,1.21,0,0,1,1.11-.76c.48,0,.78.28.92.84.28-.52.58-.84,1.14-.84s1.08.53,1.08,1.5v3.48h-.82v-3.42c0-.56-.16-.85-.52-.85s-.52.25-.78.75v3.52h-.76v-3.42c0-.56-.14-.85-.5-.85s-.56.25-.8.75v3.52h-.82Z"/><path class="cls-3" d="M340.78,390.65h-2.25V390h3.08v4.86h-.83Zm-.33-2.33a.66.66,0,1,1,.66.64A.63.63,0,0,1,340.45,388.32Z"/><path class="cls-3" d="M350.42,388.28h.85V391H354v-2.74h.85v6.56H354v-3.08h-2.72v3.08h-.85Z"/><path class="cls-3" d="M356.31,392.4a2.44,2.44,0,0,1,2.48-2.54,2.09,2.09,0,0,1,2.22,2.28,3.37,3.37,0,0,1,0,.5h-4.11V392h3.62l-.21.23c0-1.15-.57-1.72-1.46-1.72a1.71,1.71,0,0,0-1.68,1.89,1.76,1.76,0,0,0,1.9,1.9,2.65,2.65,0,0,0,1.48-.46l.3.54a3.33,3.33,0,0,1-1.88.58A2.46,2.46,0,0,1,356.31,392.4Z"/><path class="cls-3" d="M363.08,390h.69l.08,1.15h0a2.56,2.56,0,0,1,2.17-1.27,2,2,0,0,1,1,.2l-.19.71a2.44,2.44,0,0,0-.9-.16,2.28,2.28,0,0,0-2,1.39v2.84h-.83Z"/><path class="cls-3" d="M368.43,393.58c0-1.09,1-1.62,3.53-1.82a1.15,1.15,0,0,0-1.29-1.22,3.39,3.39,0,0,0-1.7.58l-.33-.56a4.26,4.26,0,0,1,2.17-.7,1.81,1.81,0,0,1,2,2v3h-.69l-.07-.66h0a3.27,3.27,0,0,1-1.91.78A1.47,1.47,0,0,1,368.43,393.58Zm3.53,0v-1.26c-2.08.16-2.71.57-2.71,1.21s.5.77,1.06.77A2.65,2.65,0,0,0,372,393.57Z"/><path class="cls-3" d="M376.09,393.21v-4.82h-1.72v-.67h2.55v5.55a.88.88,0,0,0,1,1,2.2,2.2,0,0,0,.91-.22l.21.62a3,3,0,0,1-1.3.29C376.66,395,376.09,394.36,376.09,393.21Z"/><path class="cls-3" d="M380.23,392.42a2.34,2.34,0,0,1,2.2-2.56,2.09,2.09,0,0,1,1.46.62h0l0-.89v-1.87h.83v7.12H384l-.07-.64h0a2.33,2.33,0,0,1-1.59.76C381.07,395,380.23,394,380.23,392.42Zm3.64,1.12v-2.42a1.8,1.8,0,0,0-1.27-.56,1.66,1.66,0,0,0-1.52,1.85c0,1.16.54,1.85,1.43,1.85A1.83,1.83,0,0,0,383.87,393.54Z"/></g><path class="cls-4" d="M255,540.42H444.27"/><g class="cls-2"><path class="cls-3" d="M502,388.28h1.61c2,0,3,1.17,3,3.25s-1.07,3.31-3,3.31H502Zm1.55,5.87c1.49,0,2.23-1,2.23-2.62S505,389,503.54,389h-.71v5.18Z"/><path class="cls-3" d="M507.92,393.58c0-1.09,1-1.62,3.52-1.82a1.15,1.15,0,0,0-1.29-1.22,3.35,3.35,0,0,0-1.69.58l-.33-.56a4.22,4.22,0,0,1,2.16-.7,1.81,1.81,0,0,1,2,2v3h-.69l-.07-.66h0a3.27,3.27,0,0,1-1.91.78A1.47,1.47,0,0,1,507.92,393.58Zm3.52,0v-1.26c-2.08.16-2.7.57-2.7,1.21s.49.77,1.05.77A2.65,2.65,0,0,0,511.44,393.57Z"/><path class="cls-3" d="M515.57,393.21v-4.82h-1.71v-.67h2.54v5.55a.88.88,0,0,0,1,1,2.2,2.2,0,0,0,.91-.22l.21.62a3,3,0,0,1-1.3.29C516.14,395,515.57,394.36,515.57,393.21Z"/><path class="cls-3" d="M521.57,393.21v-4.82h-1.71v-.67h2.54v5.55a.88.88,0,0,0,1,1,2.2,2.2,0,0,0,.91-.22l.21.62a3,3,0,0,1-1.3.29C522.14,395,521.57,394.36,521.57,393.21Z"/><path class="cls-3" d="M525.92,393.58c0-1.09,1-1.62,3.52-1.82a1.15,1.15,0,0,0-1.29-1.22,3.32,3.32,0,0,0-1.69.58l-.34-.56a4.26,4.26,0,0,1,2.17-.7,1.81,1.81,0,0,1,2,2v3h-.69l-.07-.66h0a3.27,3.27,0,0,1-1.91.78A1.47,1.47,0,0,1,525.92,393.58Zm3.52,0v-1.26c-2.08.16-2.71.57-2.71,1.21s.5.77,1.06.77A2.65,2.65,0,0,0,529.44,393.57Z"/><path class="cls-3" d="M531.83,394.2l.38-.55a3.42,3.42,0,0,0,2.1.66c.82,0,1.22-.34,1.22-.75s-.19-.63-1.51-.9-1.9-.69-1.9-1.42.69-1.38,2-1.38a3.65,3.65,0,0,1,2,.62l-.4.53a2.87,2.87,0,0,0-1.63-.51c-.82,0-1.12.33-1.12.7s.42.6,1.42.81c1.61.35,2,.75,2,1.5s-.77,1.45-2.16,1.45A4.24,4.24,0,0,1,531.83,394.2Z"/><path class="cls-3" d="M543.84,388.28h1l.92,2.8.32,1.06h0l.31-1.06.93-2.8h1v6.56h-.8v-3.28c0-.64.1-1.76.14-2.32h0l-.37,1.28-.94,2.58h-.6l-.91-2.58-.38-1.28h0c.06.56.13,1.68.13,2.32v3.28h-.77Z"/><path class="cls-3" d="M549.71,392.42a2.4,2.4,0,1,1,2.4,2.54A2.38,2.38,0,0,1,549.71,392.42Zm3.95,0c0-1.12-.62-1.87-1.55-1.87s-1.55.75-1.55,1.87.62,1.85,1.55,1.85S553.66,393.53,553.66,392.42Z"/><path class="cls-3" d="M556.56,390h.69l.08,1.15h0a2.56,2.56,0,0,1,2.17-1.27,2,2,0,0,1,1,.2l-.19.71a2.44,2.44,0,0,0-.9-.16,2.28,2.28,0,0,0-2,1.39v2.84h-.83Z"/><path class="cls-3" d="M562,390h.68l.07.82h0a2.52,2.52,0,0,1,1.83-.94c1.15,0,1.68.68,1.68,2v3h-.83v-2.91c0-.92-.32-1.35-1.11-1.35-.58,0-1,.29-1.53.87v3.39H562Z"/><path class="cls-3" d="M570.26,390.65H568V390h3.08v4.86h-.83Zm-.33-2.33a.66.66,0,1,1,.66.64A.63.63,0,0,1,569.93,388.32Z"/><path class="cls-3" d="M574,390h.68l.07.82h0a2.52,2.52,0,0,1,1.83-.94c1.15,0,1.68.68,1.68,2v3h-.83v-2.91c0-.92-.32-1.35-1.11-1.35-.58,0-1,.29-1.53.87v3.39H574Z"/><path class="cls-3" d="M579.83,395.73a1.35,1.35,0,0,1,.8-1.08v0a.88.88,0,0,1-.5-.8,1.18,1.18,0,0,1,.58-.91v0a1.55,1.55,0,0,1-.6-1.26,1.78,1.78,0,0,1,1.91-1.74,2,2,0,0,1,.72.12h2v.67h-1.26a1.47,1.47,0,0,1,.41,1A1.7,1.7,0,0,1,582,393.3a2.1,2.1,0,0,1-.82-.18.67.67,0,0,0-.38.56c0,.38.37.56,1,.56h1.09c1.25,0,1.85.32,1.85,1.14s-1,1.69-2.7,1.69C580.65,397.07,579.83,396.59,579.83,395.73Zm4.13-.22c0-.46-.37-.59-1.11-.59h-1a2.75,2.75,0,0,1-.74-.08c-.46.25-.62.53-.62.81,0,.51.55.82,1.59.82S584,396,584,395.51Zm-.82-3.91a1.12,1.12,0,1,0-1.12,1.15A1.1,1.1,0,0,0,583.14,391.6Z"/><path class="cls-3" d="M591.93,388.28h.92l2.1,4.12.63,1.36h0c0-.65-.11-1.39-.11-2.08v-3.4h.8v6.56h-.92l-2.1-4.12-.63-1.36h0c0,.67.11,1.37.11,2.05v3.43h-.8Z"/><path class="cls-3" d="M597.79,392.4a2.44,2.44,0,0,1,2.48-2.54,2.09,2.09,0,0,1,2.22,2.28,3.37,3.37,0,0,1,0,.5h-4.11V392H602l-.21.23c0-1.15-.57-1.72-1.46-1.72a1.71,1.71,0,0,0-1.68,1.89,1.76,1.76,0,0,0,1.9,1.9,2.65,2.65,0,0,0,1.48-.46l.3.54a3.33,3.33,0,0,1-1.88.58A2.46,2.46,0,0,1,597.79,392.4Z"/><path class="cls-3" d="M603.19,390H604l.58,2.82c.09.46.16.88.22,1.34h0a12.26,12.26,0,0,1,.28-1.34l.6-2.52h.82l.58,2.52a12.89,12.89,0,0,1,.3,1.34h0c.08-.46.13-.88.22-1.34l.58-2.82H609l-1,4.86h-1.06l-.56-2.32q-.12-.51-.24-1.44h0q-.12.93-.24,1.44l-.54,2.32h-1.06Z"/><path class="cls-3" d="M609.82,394.2l.38-.55a3.47,3.47,0,0,0,2.11.66c.82,0,1.22-.34,1.22-.75s-.19-.63-1.51-.9-1.9-.69-1.9-1.42.69-1.38,2-1.38a3.65,3.65,0,0,1,2,.62l-.4.53a2.87,2.87,0,0,0-1.63-.51c-.82,0-1.12.33-1.12.7s.42.6,1.42.81c1.61.35,2,.75,2,1.5s-.77,1.45-2.16,1.45A4.27,4.27,0,0,1,609.82,394.2Z"/></g><path class="cls-4" d="M463.47,540.42H652.76"/><g class="cls-2"><path class="cls-3" d="M701.08,391.53c0-2.12,1-3.37,2.52-3.37s2.52,1.25,2.52,3.37-1,3.43-2.52,3.43S701.08,393.68,701.08,391.53Zm4.17,0c0-1.65-.66-2.63-1.65-2.63s-1.65,1-1.65,2.63.66,2.69,1.65,2.69S705.25,393.21,705.25,391.53Z"/><path class="cls-3" d="M708.05,390h.69l.08,1.15h0a2.56,2.56,0,0,1,2.17-1.27,2,2,0,0,1,1,.2l-.19.71a2.44,2.44,0,0,0-.9-.16,2.28,2.28,0,0,0-2,1.39v2.84h-.83Z"/><path class="cls-3" d="M713.4,393.58c0-1.09,1-1.62,3.53-1.82a1.15,1.15,0,0,0-1.29-1.22,3.39,3.39,0,0,0-1.7.58l-.33-.56a4.26,4.26,0,0,1,2.17-.7,1.81,1.81,0,0,1,2,2v3h-.69l-.07-.66h0a3.27,3.27,0,0,1-1.91.78A1.47,1.47,0,0,1,713.4,393.58Zm3.53,0v-1.26c-2.08.16-2.71.57-2.71,1.21s.5.77,1.06.77A2.65,2.65,0,0,0,716.93,393.57Z"/><path class="cls-3" d="M719.53,390h.68l.07.82h0a2.52,2.52,0,0,1,1.83-.94c1.15,0,1.68.68,1.68,2v3H723v-2.91c0-.92-.32-1.35-1.11-1.35-.58,0-1,.29-1.53.87v3.39h-.83Z"/><path class="cls-3" d="M725.32,395.73a1.35,1.35,0,0,1,.8-1.08v0a.88.88,0,0,1-.5-.8,1.18,1.18,0,0,1,.58-.91v0a1.55,1.55,0,0,1-.6-1.26,1.78,1.78,0,0,1,1.91-1.74,2,2,0,0,1,.72.12h2v.67H729a1.47,1.47,0,0,1,.41,1,1.7,1.7,0,0,1-1.88,1.67,2.1,2.1,0,0,1-.82-.18.67.67,0,0,0-.38.56c0,.38.37.56,1,.56h1.09c1.25,0,1.85.32,1.85,1.14s-1,1.69-2.7,1.69C726.14,397.07,725.32,396.59,725.32,395.73Zm4.13-.22c0-.46-.37-.59-1.11-.59h-1a2.75,2.75,0,0,1-.74-.08c-.46.25-.62.53-.62.81,0,.51.55.82,1.59.82S729.45,396,729.45,395.51Zm-.82-3.91a1.12,1.12,0,1,0-1.12,1.15A1.1,1.1,0,0,0,728.63,391.6Z"/><path class="cls-3" d="M731.28,392.4a2.44,2.44,0,0,1,2.48-2.54,2.09,2.09,0,0,1,2.22,2.28,3.37,3.37,0,0,1,0,.5h-4.11V392h3.62l-.21.23c0-1.15-.57-1.72-1.46-1.72a1.71,1.71,0,0,0-1.68,1.89,1.76,1.76,0,0,0,1.9,1.9,2.65,2.65,0,0,0,1.48-.46l.3.54a3.33,3.33,0,0,1-1.88.58A2.46,2.46,0,0,1,731.28,392.4Z"/><path class="cls-3" d="M743.25,391.56c0-2.11,1.23-3.4,2.94-3.4a2.46,2.46,0,0,1,1.8.8l-.48.53a1.76,1.76,0,0,0-1.32-.59c-1.25,0-2.07,1-2.07,2.64s.82,2.68,2.07,2.68a1.89,1.89,0,0,0,1.47-.72l.48.51a2.54,2.54,0,0,1-2,.95C744.49,395,743.25,393.7,743.25,391.56Z"/><path class="cls-3" d="M749.2,392.42a2.4,2.4,0,1,1,2.4,2.54A2.38,2.38,0,0,1,749.2,392.42Zm3.95,0c0-1.12-.62-1.87-1.55-1.87s-1.55.75-1.55,1.87.62,1.85,1.55,1.85S753.15,393.53,753.15,392.42Z"/><path class="cls-3" d="M755.37,393v-3h.83v2.91c0,.91.32,1.35,1.12,1.35a1.93,1.93,0,0,0,1.51-.89V390h.83v4.86H759l-.07-.85h0a2.37,2.37,0,0,1-1.81,1C755.9,395,755.37,394.28,755.37,393Z"/><path class="cls-3" d="M761.53,390h.68l.07.82h0a2.52,2.52,0,0,1,1.83-.94c1.15,0,1.68.68,1.68,2v3H765v-2.91c0-.92-.32-1.35-1.11-1.35-.58,0-1,.29-1.53.87v3.39h-.83Z"/><path class="cls-3" d="M768.66,393v-2.3h-1.38V390l1.41,0,.11-1.56h.69V390h2.38v.67h-2.38V393c0,.87.29,1.32,1.23,1.32a3.2,3.2,0,0,0,1.16-.22l.18.61a4.24,4.24,0,0,1-1.52.29C769.12,395,768.66,394.15,768.66,393Z"/><path class="cls-3" d="M773.27,396.83l.17-.66a1.56,1.56,0,0,0,.44.07,1.41,1.41,0,0,0,1.33-1l.14-.36L773.09,390h.84l1.18,2.68c.19.43.4.94.6,1.41h0l.52-1.41,1.05-2.68h.8L776,395.24a2.17,2.17,0,0,1-2.06,1.69A2,2,0,0,1,773.27,396.83Z"/><path class="cls-3" d="M785.59,388.28h2c1.33,0,2.3.48,2.3,1.85s-1,1.94-2.3,1.94h-1.2v2.77h-.85Zm1.93,3.11c1,0,1.58-.42,1.58-1.26s-.56-1.17-1.58-1.17h-1.08v2.43Zm.61,0,2,3.44h-.94l-1.71-3Z"/><path class="cls-3" d="M791.28,392.4a2.44,2.44,0,0,1,2.48-2.54,2.09,2.09,0,0,1,2.22,2.28,3.37,3.37,0,0,1,0,.5h-4.11V392h3.62l-.21.23c0-1.15-.57-1.72-1.46-1.72a1.71,1.71,0,0,0-1.68,1.89,1.76,1.76,0,0,0,1.9,1.9,2.65,2.65,0,0,0,1.48-.46l.3.54a3.33,3.33,0,0,1-1.88.58A2.46,2.46,0,0,1,791.28,392.4Z"/><path class="cls-3" d="M797.32,395.73a1.35,1.35,0,0,1,.8-1.08v0a.88.88,0,0,1-.5-.8,1.18,1.18,0,0,1,.58-.91v0a1.55,1.55,0,0,1-.6-1.26,1.78,1.78,0,0,1,1.91-1.74,2,2,0,0,1,.72.12h2v.67H801a1.47,1.47,0,0,1,.41,1,1.7,1.7,0,0,1-1.88,1.67,2.1,2.1,0,0,1-.82-.18.67.67,0,0,0-.38.56c0,.38.37.56,1,.56h1.09c1.25,0,1.84.32,1.84,1.14s-1,1.69-2.69,1.69C798.14,397.07,797.32,396.59,797.32,395.73Zm4.13-.22c0-.46-.37-.59-1.11-.59h-1a2.75,2.75,0,0,1-.74-.08c-.46.25-.62.53-.62.81,0,.51.55.82,1.59.82S801.45,396,801.45,395.51Zm-.82-3.91a1.12,1.12,0,1,0-1.12,1.15A1.1,1.1,0,0,0,800.63,391.6Z"/><path class="cls-3" d="M805.75,390.65H803.5V390h3.08v4.86h-.83Zm-.33-2.33a.66.66,0,1,1,.66.64A.63.63,0,0,1,805.42,388.32Z"/><path class="cls-3" d="M809.31,394.2l.38-.55a3.47,3.47,0,0,0,2.11.66c.82,0,1.22-.34,1.22-.75s-.19-.63-1.51-.9-1.9-.69-1.9-1.42.69-1.38,2-1.38a3.65,3.65,0,0,1,2,.62l-.4.53a2.87,2.87,0,0,0-1.63-.51c-.82,0-1.12.33-1.12.7s.42.6,1.42.81c1.61.35,2,.75,2,1.5s-.77,1.45-2.16,1.45A4.27,4.27,0,0,1,809.31,394.2Z"/><path class="cls-3" d="M816.66,393v-2.3h-1.38V390l1.41,0,.11-1.56h.69V390h2.38v.67h-2.38V393c0,.87.29,1.32,1.23,1.32a3.2,3.2,0,0,0,1.16-.22l.17.61a4.14,4.14,0,0,1-1.51.29C817.12,395,816.66,394.15,816.66,393Z"/><path class="cls-3" d="M821.28,392.4a2.44,2.44,0,0,1,2.48-2.54,2.08,2.08,0,0,1,2.21,2.28,2.41,2.41,0,0,1,0,.5h-4.1V392h3.62l-.21.23c0-1.15-.57-1.72-1.46-1.72a1.71,1.71,0,0,0-1.68,1.89,1.76,1.76,0,0,0,1.9,1.9,2.65,2.65,0,0,0,1.48-.46l.3.54a3.36,3.36,0,0,1-1.88.58A2.46,2.46,0,0,1,821.28,392.4Z"/><path class="cls-3" d="M828.05,390h.69l.08,1.15h0a2.56,2.56,0,0,1,2.17-1.27,2,2,0,0,1,1,.2l-.18.71a2.47,2.47,0,0,0-.9-.16,2.28,2.28,0,0,0-2,1.39v2.84h-.83Z"/></g><path class="cls-4" d="M672,540.42H861.24"/><g class="cls-2"><path class="cls-3" d="M912.75,394l.5-.58a2.76,2.76,0,0,0,1.92.81c.9,0,1.42-.43,1.42-1s-.51-.9-1.17-1.18l-.95-.42a1.87,1.87,0,0,1-1.41-1.69,1.91,1.91,0,0,1,2.15-1.74,2.86,2.86,0,0,1,2,.81l-.44.54a2.31,2.31,0,0,0-1.61-.61c-.76,0-1.27.36-1.27,1s.61.86,1.17,1.08l.92.41c.81.32,1.45.78,1.45,1.75s-.88,1.87-2.32,1.87A3.33,3.33,0,0,1,912.75,394Z"/><path class="cls-3" d="M918.88,393.58c0-1.09,1-1.62,3.53-1.82a1.15,1.15,0,0,0-1.29-1.22,3.39,3.39,0,0,0-1.7.58l-.33-.56a4.26,4.26,0,0,1,2.17-.7,1.81,1.81,0,0,1,2,2v3h-.69l-.07-.66h0a3.27,3.27,0,0,1-1.91.78A1.47,1.47,0,0,1,918.88,393.58Zm3.53,0v-1.26c-2.08.16-2.71.57-2.71,1.21s.5.77,1.06.77A2.65,2.65,0,0,0,922.41,393.57Z"/><path class="cls-3" d="M925,390h.68l.07.82h0a2.52,2.52,0,0,1,1.83-.94c1.15,0,1.68.68,1.68,2v3h-.83v-2.91c0-.92-.32-1.35-1.11-1.35-.58,0-1,.29-1.53.87v3.39H925Z"/><path class="cls-3" d="M936.88,393.87l.53-.51a1.71,1.71,0,0,0,1.41.86c.93,0,1.35-.47,1.35-1.55V389h-2.74v-.71H941v4.47a2,2,0,0,1-2.18,2.22A2.28,2.28,0,0,1,936.88,393.87Z"/><path class="cls-3" d="M942.68,392.42a2.4,2.4,0,1,1,2.4,2.54A2.38,2.38,0,0,1,942.68,392.42Zm4,0c0-1.12-.62-1.87-1.55-1.87s-1.55.75-1.55,1.87.62,1.85,1.55,1.85S946.63,393.53,946.63,392.42Z"/><path class="cls-3" d="M948.79,394.2l.38-.55a3.47,3.47,0,0,0,2.11.66c.82,0,1.22-.34,1.22-.75s-.19-.63-1.51-.9-1.9-.69-1.9-1.42.69-1.38,2-1.38a3.65,3.65,0,0,1,2,.62l-.4.53a2.87,2.87,0,0,0-1.63-.51c-.82,0-1.12.33-1.12.7s.42.6,1.42.81c1.61.35,2,.75,2,1.5s-.77,1.45-2.16,1.45A4.27,4.27,0,0,1,948.79,394.2Z"/><path class="cls-3" d="M954.76,392.4a2.44,2.44,0,0,1,2.48-2.54,2.09,2.09,0,0,1,2.22,2.28,3.37,3.37,0,0,1,0,.5h-4.11V392h3.62l-.21.23c0-1.15-.57-1.72-1.46-1.72a1.71,1.71,0,0,0-1.68,1.89,1.76,1.76,0,0,0,1.9,1.9,2.65,2.65,0,0,0,1.48-.46l.3.54a3.33,3.33,0,0,1-1.88.58A2.46,2.46,0,0,1,954.76,392.4Z"/><path class="cls-3" d="M966.8,388.28h1l.92,2.8.32,1.06h0l.31-1.06.93-2.8h1v6.56h-.8v-3.28c0-.64.1-1.76.14-2.32h0l-.37,1.28-.94,2.58h-.6l-.92-2.58-.38-1.28h0c.06.56.14,1.68.14,2.32v3.28h-.78Z"/><path class="cls-3" d="M972.76,392.4a2.44,2.44,0,0,1,2.48-2.54,2.09,2.09,0,0,1,2.22,2.28,3.37,3.37,0,0,1,0,.5h-4.11V392h3.62l-.21.23c0-1.15-.57-1.72-1.46-1.72a1.71,1.71,0,0,0-1.68,1.89,1.76,1.76,0,0,0,1.9,1.9,2.65,2.65,0,0,0,1.48-.46l.3.54a3.33,3.33,0,0,1-1.88.58A2.46,2.46,0,0,1,972.76,392.4Z"/><path class="cls-3" d="M979.53,390h.69l.08,1.15h0a2.56,2.56,0,0,1,2.17-1.27,2,2,0,0,1,1,.2l-.19.71a2.44,2.44,0,0,0-.9-.16,2.28,2.28,0,0,0-2,1.39v2.84h-.83Z"/><path class="cls-3" d="M984.88,392.42a2.52,2.52,0,0,1,2.71-2.56,2.47,2.47,0,0,1,1.77.71l-.41.53a2,2,0,0,0-1.33-.55,1.78,1.78,0,0,0-1.89,1.87,1.76,1.76,0,0,0,1.87,1.85,2.31,2.31,0,0,0,1.5-.61l.37.54a2.89,2.89,0,0,1-1.93.76A2.45,2.45,0,0,1,984.88,392.42Z"/><path class="cls-3" d="M990.85,393v-3h.83v2.91c0,.91.32,1.35,1.12,1.35a1.93,1.93,0,0,0,1.51-.89V390h.83v4.86h-.69l-.07-.85h0a2.37,2.37,0,0,1-1.81,1C991.38,395,990.85,394.28,990.85,393Z"/><path class="cls-3" d="M997.53,390h.69l.08,1.15h0a2.56,2.56,0,0,1,2.17-1.27,2,2,0,0,1,1,.2l-.19.71a2.44,2.44,0,0,0-.9-.16,2.28,2.28,0,0,0-2,1.39v2.84h-.83Z"/><path class="cls-3" d="M1002.75,396.83l.17-.66a1.56,1.56,0,0,0,.44.07,1.41,1.41,0,0,0,1.33-1l.14-.36-2.26-4.87h.84l1.18,2.68c.19.43.4.94.6,1.41h0l.52-1.41,1-2.68h.8l-2.15,5.26a2.17,2.17,0,0,1-2.06,1.69A2,2,0,0,1,1002.75,396.83Z"/><path class="cls-3" d="M1014.9,388.28h.92l2.1,4.12.63,1.36h0c0-.65-.11-1.39-.11-2.08v-3.4h.8v6.56h-.92l-2.1-4.12-.63-1.36h0c0,.67.11,1.37.11,2.05v3.43h-.8Z"/><path class="cls-3" d="M1020.76,392.4a2.44,2.44,0,0,1,2.48-2.54,2.09,2.09,0,0,1,2.22,2.28,3.37,3.37,0,0,1,0,.5h-4.11V392h3.62l-.21.23c0-1.15-.57-1.72-1.46-1.72a1.71,1.71,0,0,0-1.68,1.89,1.76,1.76,0,0,0,1.9,1.9,2.65,2.65,0,0,0,1.48-.46l.3.54a3.33,3.33,0,0,1-1.88.58A2.46,2.46,0,0,1,1020.76,392.4Z"/><path class="cls-3" d="M1026.16,390h.82l.58,2.82c.09.46.16.88.22,1.34h0a12.26,12.26,0,0,1,.28-1.34l.6-2.52h.82l.58,2.52a12.89,12.89,0,0,1,.3,1.34h0c.08-.46.13-.88.22-1.34l.58-2.82h.76l-1,4.86h-1.06l-.56-2.32q-.12-.51-.24-1.44h0q-.12.93-.24,1.44l-.54,2.32h-1.06Z"/><path class="cls-3" d="M1032.79,394.2l.38-.55a3.47,3.47,0,0,0,2.11.66c.82,0,1.22-.34,1.22-.75s-.19-.63-1.51-.9-1.9-.69-1.9-1.42.69-1.38,2-1.38a3.65,3.65,0,0,1,2,.62l-.4.53a2.87,2.87,0,0,0-1.63-.51c-.82,0-1.12.33-1.12.7s.42.6,1.42.81c1.61.35,2,.75,2,1.5s-.77,1.45-2.16,1.45A4.27,4.27,0,0,1,1032.79,394.2Z"/></g><path class="cls-4" d="M880.44,540.42h189.28"/><g class="cls-2"><path class="cls-3" d="M87.82,580.16l.5-.58a2.76,2.76,0,0,0,1.92.81c.9,0,1.42-.43,1.42-1s-.51-.9-1.17-1.18l-.95-.42a1.87,1.87,0,0,1-1.41-1.69c0-1,.9-1.73,2.15-1.73a2.86,2.86,0,0,1,2,.81l-.44.54a2.31,2.31,0,0,0-1.61-.61c-.76,0-1.27.36-1.27.95s.61.85,1.17,1.07l.92.41c.81.32,1.45.78,1.45,1.75s-.88,1.87-2.32,1.87A3.33,3.33,0,0,1,87.82,580.16Z"/><path class="cls-3" d="M94.08,576.16h.68l.07.62h0a2.59,2.59,0,0,1,1.68-.75c1.31,0,2,1,2,2.48a2.35,2.35,0,0,1-2.21,2.62,2.31,2.31,0,0,1-1.45-.63h0l0,.92v1.64h-.83Zm3.62,2.35c0-1.07-.4-1.77-1.37-1.77a2,2,0,0,0-1.42.71v2.42a2,2,0,0,0,1.29.56C97.06,580.43,97.7,579.71,97.7,578.51Z"/><path class="cls-3" d="M99.75,578.59a2.4,2.4,0,1,1,2.4,2.54A2.38,2.38,0,0,1,99.75,578.59Zm4,0c0-1.12-.62-1.87-1.55-1.87s-1.55.75-1.55,1.87.62,1.85,1.55,1.85S103.7,579.7,103.7,578.59Z"/><path class="cls-3" d="M106.6,576.16h.69l.08,1.14h0a2.58,2.58,0,0,1,2.17-1.27,1.93,1.93,0,0,1,1,.21l-.19.71a2.25,2.25,0,0,0-.9-.17,2.3,2.3,0,0,0-2,1.39V581h-.83Z"/><path class="cls-3" d="M113.21,579.12v-2.3h-1.38v-.62l1.41,0,.11-1.56H114v1.56h2.38v.66H114v2.31c0,.87.29,1.32,1.23,1.32a3.1,3.1,0,0,0,1.15-.22l.18.61a4.14,4.14,0,0,1-1.51.29C113.67,581.13,113.21,580.32,113.21,579.12Z"/><path class="cls-3" d="M117.86,580.37l.38-.55a3.47,3.47,0,0,0,2.11.66c.82,0,1.22-.34,1.22-.75s-.19-.63-1.51-.9-1.9-.69-1.9-1.42.69-1.38,2-1.38a3.57,3.57,0,0,1,2,.63l-.4.52a2.87,2.87,0,0,0-1.63-.51c-.82,0-1.12.33-1.12.7s.42.6,1.42.81c1.61.35,2,.75,2,1.5s-.77,1.45-2.16,1.45A4.27,4.27,0,0,1,117.86,580.37Z"/><path class="cls-3" d="M130.1,580.3h1.63v-5.13H130.1v-.71h4.1v.71h-1.63v5.13h1.63V581h-4.1Z"/><path class="cls-3" d="M137.61,579.38v-4.81h-1.72v-.67h2.55v5.54a.88.88,0,0,0,1,1,2.19,2.19,0,0,0,.9-.22l.21.62a2.91,2.91,0,0,1-1.29.29C138.18,581.13,137.61,580.53,137.61,579.38Z"/><path class="cls-3" d="M143.61,579.38v-4.81h-1.72v-.67h2.55v5.54a.88.88,0,0,0,1,1,2.19,2.19,0,0,0,.9-.22l.21.62a2.91,2.91,0,0,1-1.29.29C144.18,581.13,143.61,580.53,143.61,579.38Z"/><path class="cls-3" d="M147.92,579.17v-3h.83v2.9c0,.91.32,1.35,1.12,1.35a1.93,1.93,0,0,0,1.51-.89v-3.36h.82V581h-.68l-.07-.85h0a2.37,2.37,0,0,1-1.81,1C148.45,581.13,147.92,580.45,147.92,579.17Z"/><path class="cls-3" d="M153.86,580.37l.38-.55a3.47,3.47,0,0,0,2.11.66c.82,0,1.21-.34,1.21-.75s-.18-.63-1.5-.9-1.9-.69-1.9-1.42.69-1.38,2-1.38a3.54,3.54,0,0,1,1.95.63l-.4.52a2.81,2.81,0,0,0-1.62-.51c-.82,0-1.12.33-1.12.7s.42.6,1.42.81c1.6.35,2,.75,2,1.5s-.77,1.45-2.15,1.45A4.27,4.27,0,0,1,153.86,580.37Z"/><path class="cls-3" d="M161.21,579.12v-2.3h-1.38v-.62l1.41,0,.11-1.56H162v1.56h2.37v.66H162v2.31c0,.87.29,1.32,1.23,1.32a3.18,3.18,0,0,0,1.15-.22l.18.61a4.23,4.23,0,0,1-1.51.29C161.67,581.13,161.21,580.32,161.21,579.12Z"/><path class="cls-3" d="M166.6,576.16h.69l.08,1.14h0a2.58,2.58,0,0,1,2.17-1.27,1.9,1.9,0,0,1,.95.21l-.19.71a2.24,2.24,0,0,0-.89-.17,2.3,2.3,0,0,0-2,1.39V581h-.83Z"/><path class="cls-3" d="M172,579.75c0-1.09,1-1.62,3.52-1.82a1.15,1.15,0,0,0-1.28-1.22,3.39,3.39,0,0,0-1.7.58l-.33-.55a4.17,4.17,0,0,1,2.17-.71,1.8,1.8,0,0,1,2,2v3h-.69l-.07-.66h0a3.24,3.24,0,0,1-1.9.78A1.47,1.47,0,0,1,172,579.75Zm3.52,0v-1.26c-2.07.16-2.7.57-2.7,1.21s.5.77,1.06.77A2.6,2.6,0,0,0,175.47,579.74Z"/><path class="cls-3" d="M179.21,579.12v-2.3h-1.38v-.62l1.41,0,.11-1.56H180v1.56h2.37v.66H180v2.31c0,.87.29,1.32,1.22,1.32a3.2,3.2,0,0,0,1.16-.22l.18.61a4.24,4.24,0,0,1-1.52.29C179.67,581.13,179.21,580.32,179.21,579.12Z"/><path class="cls-3" d="M183.83,578.57a2.44,2.44,0,0,1,2.48-2.54,2.09,2.09,0,0,1,2.21,2.28,3.37,3.37,0,0,1,0,.5h-4.1v-.64H188l-.21.23c0-1.15-.57-1.71-1.45-1.71a1.7,1.7,0,0,0-1.68,1.88,1.76,1.76,0,0,0,1.89,1.9A2.65,2.65,0,0,0,188,580l.3.54a3.32,3.32,0,0,1-1.87.58A2.46,2.46,0,0,1,183.83,578.57Z"/><path class="cls-3" d="M189.75,578.59A2.34,2.34,0,0,1,192,576a2.07,2.07,0,0,1,1.45.63h0l0-.89V573.9h.83V581h-.68l-.07-.64h0a2.31,2.31,0,0,1-1.58.76C190.59,581.13,189.75,580.21,189.75,578.59Zm3.63,1.12v-2.42a1.77,1.77,0,0,0-1.26-.55,1.65,1.65,0,0,0-1.52,1.84c0,1.16.54,1.85,1.43,1.85A1.82,1.82,0,0,0,193.38,579.71Z"/></g><path class="cls-4" d="M46.51,726.6H235.79"/><g class="cls-2"><path class="cls-3" d="M305.05,574.46h.9L307,578c.23.77.39,1.4.63,2.16h0c.24-.76.41-1.39.63-2.16l1.05-3.53h.86L308.13,581h-1Z"/><path class="cls-3" d="M313.78,576.82h-2.25v-.66h3.08V581h-.83Zm-.33-2.32a.66.66,0,1,1,.66.64A.63.63,0,0,1,313.45,574.5Z"/><path class="cls-3" d="M318.08,576.16h.69l.08,1.14h0A2.58,2.58,0,0,1,321,576a1.93,1.93,0,0,1,1,.21l-.19.71a2.25,2.25,0,0,0-.9-.17,2.3,2.3,0,0,0-2,1.39V581h-.83Z"/><path class="cls-3" d="M323.35,581.9a1.35,1.35,0,0,1,.8-1.08v0a.88.88,0,0,1-.5-.8,1.18,1.18,0,0,1,.58-.91v0a1.55,1.55,0,0,1-.6-1.26,1.94,1.94,0,0,1,2.63-1.61h2v.66H327a1.47,1.47,0,0,1,.41,1,1.7,1.7,0,0,1-1.88,1.67,2.1,2.1,0,0,1-.82-.18.67.67,0,0,0-.38.56c0,.38.37.56,1,.56h1.09c1.25,0,1.85.32,1.85,1.14s-1.05,1.7-2.7,1.7C324.17,583.25,323.35,582.76,323.35,581.9Zm4.13-.22c0-.46-.37-.59-1.11-.59h-.95a2.75,2.75,0,0,1-.74-.08c-.46.25-.62.53-.62.81,0,.51.55.83,1.59.83S327.48,582.18,327.48,581.68Zm-.82-3.91a1.12,1.12,0,1,0-1.12,1.15A1.1,1.1,0,0,0,326.66,577.77Z"/><path class="cls-3" d="M331.78,576.82h-2.25v-.66h3.08V581h-.83Zm-.33-2.32a.66.66,0,1,1,.66.64A.63.63,0,0,1,331.45,574.5Z"/><path class="cls-3" d="M335.56,576.16h.68l.07.81h0a2.55,2.55,0,0,1,1.83-.94c1.15,0,1.68.68,1.68,2v3H339V578.1c0-.92-.32-1.35-1.11-1.35-.58,0-1,.29-1.53.87V581h-.83Z"/><path class="cls-3" d="M343.78,576.82h-2.25v-.66h3.08V581h-.83Zm-.33-2.32a.66.66,0,1,1,.66.64A.63.63,0,0,1,343.45,574.5Z"/><path class="cls-3" d="M347.43,579.75c0-1.09,1-1.62,3.53-1.82a1.15,1.15,0,0,0-1.29-1.22,3.39,3.39,0,0,0-1.7.58l-.33-.55a4.17,4.17,0,0,1,2.17-.71,1.81,1.81,0,0,1,2,2v3h-.69l-.07-.66h0a3.27,3.27,0,0,1-1.91.78A1.47,1.47,0,0,1,347.43,579.75Zm3.53,0v-1.26c-2.08.16-2.71.57-2.71,1.21s.5.77,1.06.77A2.65,2.65,0,0,0,351,579.74Z"/><path class="cls-3" d="M353.56,576.16h.68l.07.81h0a2.55,2.55,0,0,1,1.83-.94c1.15,0,1.68.68,1.68,2v3H357V578.1c0-.92-.32-1.35-1.11-1.35-.58,0-1,.29-1.53.87V581h-.83Z"/><path class="cls-3" d="M359.48,577.4h4.3V578h-4.3Z"/><path class="cls-3" d="M365.65,574.46h2c1.45,0,2.43.49,2.43,1.92s-1,2-2.43,2h-1.14V581h-.84Zm1.88,3.27c1.14,0,1.69-.42,1.69-1.35s-.56-1.24-1.69-1.24h-1v2.59Z"/><path class="cls-3" d="M373.78,576.82h-2.25v-.66h3.08V581h-.83Zm-.33-2.32a.66.66,0,1,1,.66.64A.63.63,0,0,1,373.45,574.5Z"/><path class="cls-3" d="M379.09,579.38v-4.81h-1.72v-.67h2.55v5.54a.88.88,0,0,0,1,1,2.2,2.2,0,0,0,.91-.22l.21.62a3,3,0,0,1-1.3.29C379.66,581.13,379.09,580.53,379.09,579.38Z"/><path class="cls-3" d="M383.23,578.59a2.4,2.4,0,1,1,2.4,2.54A2.38,2.38,0,0,1,383.23,578.59Zm3.95,0c0-1.12-.62-1.87-1.55-1.87s-1.55.75-1.55,1.87.62,1.85,1.55,1.85S387.18,579.7,387.18,578.59Z"/><path class="cls-3" d="M390.69,579.12v-2.3h-1.38v-.62l1.41,0,.11-1.56h.69v1.56h2.38v.66h-2.38v2.31c0,.87.29,1.32,1.23,1.32a3.2,3.2,0,0,0,1.16-.22l.18.61a4.24,4.24,0,0,1-1.52.29C391.15,581.13,390.69,580.32,390.69,579.12Z"/></g><path class="cls-4" d="M255,726.6H444.27"/><g class="cls-2"><path class="cls-3" d="M510.91,574.46h.85v2.73h2.71v-2.73h.85V581h-.85v-3.08h-2.71V581h-.85Z"/><path class="cls-3" d="M516.92,579.75c0-1.09,1-1.62,3.52-1.82a1.15,1.15,0,0,0-1.29-1.22,3.35,3.35,0,0,0-1.69.58l-.33-.55a4.13,4.13,0,0,1,2.16-.71,1.81,1.81,0,0,1,2,2v3h-.69l-.07-.66h0a3.27,3.27,0,0,1-1.91.78A1.47,1.47,0,0,1,516.92,579.75Zm3.52,0v-1.26c-2.08.16-2.7.57-2.7,1.21s.49.77,1,.77A2.65,2.65,0,0,0,520.44,579.74Z"/><path class="cls-3" d="M523.57,576.16h.68l.08,1.14h0a2.58,2.58,0,0,1,2.17-1.27,1.93,1.93,0,0,1,1,.21l-.19.71a2.19,2.19,0,0,0-2.89,1.22V581h-.83Z"/><path class="cls-3" d="M530.17,579.12v-2.3H528.8v-.62l1.4,0,.11-1.56H531v1.56h2.38v.66H531v2.31c0,.87.29,1.32,1.23,1.32a3.2,3.2,0,0,0,1.16-.22l.18.61a4.24,4.24,0,0,1-1.52.29C530.63,581.13,530.17,580.32,530.17,579.12Z"/><path class="cls-3" d="M535.15,576.2l1.4,0h2.83v.66h-4.23Zm1.38-.46a1.77,1.77,0,0,1,2-2,3.61,3.61,0,0,1,1.4.28l-.19.62a2.63,2.63,0,0,0-1.13-.23c-.87,0-1.22.49-1.22,1.27V581h-.82Z"/><path class="cls-3" d="M540.72,578.59a2.4,2.4,0,1,1,2.39,2.54A2.37,2.37,0,0,1,540.72,578.59Zm3.94,0c0-1.12-.62-1.87-1.55-1.87s-1.55.75-1.55,1.87.62,1.85,1.55,1.85S544.66,579.7,544.66,578.59Z"/><path class="cls-3" d="M547.56,576.16h.69l.08,1.14h0a2.58,2.58,0,0,1,2.17-1.27,1.93,1.93,0,0,1,1,.21l-.19.71a2.25,2.25,0,0,0-.9-.17,2.3,2.3,0,0,0-2,1.39V581h-.83Z"/><path class="cls-3" d="M552.72,578.59a2.33,2.33,0,0,1,2.19-2.56,2.1,2.1,0,0,1,1.46.63h0l0-.89V573.9h.83V581h-.68l-.07-.64h0a2.33,2.33,0,0,1-1.59.76C553.55,581.13,552.72,580.21,552.72,578.59Zm3.63,1.12v-2.42a1.79,1.79,0,0,0-1.27-.55,1.65,1.65,0,0,0-1.52,1.84c0,1.16.54,1.85,1.43,1.85A1.83,1.83,0,0,0,556.35,579.71Z"/><path class="cls-3" d="M564.76,577.73c0-2.1,1.23-3.39,2.94-3.39a2.46,2.46,0,0,1,1.8.8l-.48.53a1.76,1.76,0,0,0-1.32-.59c-1.25,0-2.07,1-2.07,2.63s.82,2.68,2.07,2.68a1.89,1.89,0,0,0,1.47-.72l.48.51a2.54,2.54,0,0,1-2,1C566,581.13,564.76,579.87,564.76,577.73Z"/><path class="cls-3" d="M570.71,578.59a2.4,2.4,0,1,1,2.4,2.54A2.38,2.38,0,0,1,570.71,578.59Zm3.95,0c0-1.12-.62-1.87-1.55-1.87s-1.55.75-1.55,1.87.62,1.85,1.55,1.85S574.66,579.7,574.66,578.59Z"/><path class="cls-3" d="M576.88,579.17v-3h.83v2.9c0,.91.32,1.35,1.12,1.35a1.93,1.93,0,0,0,1.51-.89v-3.36h.83V581h-.69l-.07-.85h0a2.37,2.37,0,0,1-1.81,1C577.41,581.13,576.88,580.45,576.88,579.17Z"/><path class="cls-3" d="M583.56,576.16h.69l.08,1.14h0a2.58,2.58,0,0,1,2.17-1.27,1.93,1.93,0,0,1,1,.21l-.19.71a2.25,2.25,0,0,0-.9-.17,2.3,2.3,0,0,0-2,1.39V581h-.83Z"/><path class="cls-3" d="M588.92,579.75c0-1.09,1-1.62,3.52-1.82a1.15,1.15,0,0,0-1.29-1.22,3.39,3.39,0,0,0-1.7.58l-.33-.55a4.17,4.17,0,0,1,2.17-.71,1.81,1.81,0,0,1,2,2v3h-.69l-.07-.66h0a3.27,3.27,0,0,1-1.91.78A1.47,1.47,0,0,1,588.92,579.75Zm3.52,0v-1.26c-2.08.16-2.71.57-2.71,1.21s.5.77,1.06.77A2.65,2.65,0,0,0,592.44,579.74Z"/><path class="cls-3" d="M595,576.16h.68l.07.81h0a2.55,2.55,0,0,1,1.83-.94c1.15,0,1.68.68,1.68,2v3h-.83V578.1c0-.92-.32-1.35-1.11-1.35-.58,0-1,.29-1.53.87V581H595Z"/><path class="cls-3" d="M602.17,579.12v-2.3h-1.38v-.62l1.41,0,.11-1.56H603v1.56h2.38v.66H603v2.31c0,.87.29,1.32,1.23,1.32a3.2,3.2,0,0,0,1.16-.22l.18.61a4.24,4.24,0,0,1-1.52.29C602.63,581.13,602.17,580.32,602.17,579.12Z"/></g><path class="cls-4" d="M463.47,726.6H652.76"/><g class="cls-2"><path class="cls-3" d="M709.12,574.46h1l2.21,6.55h-.9l-1.13-3.66c-.23-.73-.45-1.44-.65-2.2h0c-.21.76-.42,1.47-.65,2.2L707.77,581h-.86Zm-1,3.88h3V579h-3Z"/><path class="cls-3" d="M713.32,581.9a1.35,1.35,0,0,1,.8-1.08v0a.88.88,0,0,1-.5-.8,1.18,1.18,0,0,1,.58-.91v0a1.55,1.55,0,0,1-.6-1.26,1.94,1.94,0,0,1,2.63-1.61h2v.66H717a1.47,1.47,0,0,1,.41,1,1.7,1.7,0,0,1-1.88,1.67,2.1,2.1,0,0,1-.82-.18.67.67,0,0,0-.38.56c0,.38.37.56,1,.56h1.09c1.25,0,1.85.32,1.85,1.14s-1,1.7-2.7,1.7C714.14,583.25,713.32,582.76,713.32,581.9Zm4.13-.22c0-.46-.37-.59-1.11-.59h-1a2.75,2.75,0,0,1-.74-.08c-.46.25-.62.53-.62.81,0,.51.55.83,1.59.83S717.45,582.18,717.45,581.68Zm-.82-3.91a1.12,1.12,0,1,0-1.12,1.15A1.1,1.1,0,0,0,716.63,577.77Z"/><path class="cls-3" d="M719.28,578.57a2.44,2.44,0,0,1,2.48-2.54,2.1,2.1,0,0,1,2.22,2.28,3.37,3.37,0,0,1,0,.5h-4.11v-.64h3.62l-.21.23c0-1.15-.57-1.71-1.46-1.71a1.7,1.7,0,0,0-1.68,1.88,1.76,1.76,0,0,0,1.9,1.9,2.65,2.65,0,0,0,1.48-.46l.3.54a3.33,3.33,0,0,1-1.88.58A2.46,2.46,0,0,1,719.28,578.57Z"/><path class="cls-3" d="M725.53,576.16h.68l.07.81h0a2.55,2.55,0,0,1,1.83-.94c1.15,0,1.68.68,1.68,2v3H729V578.1c0-.92-.32-1.35-1.11-1.35-.58,0-1,.29-1.53.87V581h-.83Z"/><path class="cls-3" d="M731.4,578.59a2.67,2.67,0,0,1,4.48-1.85l-.41.53a2,2,0,0,0-1.33-.55,1.78,1.78,0,0,0-1.89,1.87,1.76,1.76,0,0,0,1.87,1.85,2.31,2.31,0,0,0,1.5-.61l.37.54a2.89,2.89,0,0,1-1.93.76A2.45,2.45,0,0,1,731.4,578.59Z"/><path class="cls-3" d="M737.28,578.57a2.44,2.44,0,0,1,2.48-2.54,2.1,2.1,0,0,1,2.22,2.28,3.37,3.37,0,0,1,0,.5h-4.11v-.64h3.62l-.21.23c0-1.15-.57-1.71-1.46-1.71a1.7,1.7,0,0,0-1.68,1.88,1.76,1.76,0,0,0,1.9,1.9,2.65,2.65,0,0,0,1.48-.46l.3.54a3.33,3.33,0,0,1-1.88.58A2.46,2.46,0,0,1,737.28,578.57Z"/><path class="cls-3" d="M749.93,574.46h4v.71h-3.19v2.2h2.7v.71h-2.7V581h-.84Z"/><path class="cls-3" d="M756.05,576.16h.69l.08,1.14h0A2.58,2.58,0,0,1,759,576a1.93,1.93,0,0,1,1,.21l-.19.71a2.25,2.25,0,0,0-.9-.17,2.3,2.3,0,0,0-2,1.39V581h-.83Z"/><path class="cls-3" d="M761.4,579.75c0-1.09,1-1.62,3.53-1.82a1.15,1.15,0,0,0-1.29-1.22,3.39,3.39,0,0,0-1.7.58l-.33-.55a4.17,4.17,0,0,1,2.17-.71,1.81,1.81,0,0,1,2,2v3h-.69l-.07-.66h0a3.27,3.27,0,0,1-1.91.78A1.47,1.47,0,0,1,761.4,579.75Zm3.53,0v-1.26c-2.08.16-2.71.57-2.71,1.21s.5.77,1.06.77A2.65,2.65,0,0,0,764.93,579.74Z"/><path class="cls-3" d="M767.53,576.16h.68l.07.81h0a2.55,2.55,0,0,1,1.83-.94c1.15,0,1.68.68,1.68,2v3H771V578.1c0-.92-.32-1.35-1.11-1.35-.58,0-1,.29-1.53.87V581h-.83Z"/><path class="cls-3" d="M773.4,578.59a2.67,2.67,0,0,1,4.48-1.85l-.41.53a2,2,0,0,0-1.33-.55,1.78,1.78,0,0,0-1.89,1.87,1.76,1.76,0,0,0,1.87,1.85,2.31,2.31,0,0,0,1.5-.61l.37.54a2.89,2.89,0,0,1-1.93.76A2.45,2.45,0,0,1,773.4,578.59Z"/><path class="cls-3" d="M779.28,578.57a2.44,2.44,0,0,1,2.48-2.54,2.1,2.1,0,0,1,2.22,2.28,3.37,3.37,0,0,1,0,.5h-4.11v-.64h3.62l-.21.23c0-1.15-.57-1.71-1.46-1.71a1.7,1.7,0,0,0-1.68,1.88,1.76,1.76,0,0,0,1.9,1.9,2.65,2.65,0,0,0,1.48-.46l.3.54a3.33,3.33,0,0,1-1.88.58A2.46,2.46,0,0,1,779.28,578.57Z"/><path class="cls-3" d="M785.45,577.4h4.3V578h-4.3Z"/><path class="cls-3" d="M791.62,574.46h2c1.45,0,2.43.49,2.43,1.92s-1,2-2.43,2h-1.14V581h-.84Zm1.88,3.27c1.14,0,1.69-.42,1.69-1.35s-.56-1.24-1.69-1.24h-1v2.59Z"/><path class="cls-3" d="M798.05,576.16h.69l.08,1.14h0A2.58,2.58,0,0,1,801,576a1.93,1.93,0,0,1,1,.21l-.19.71a2.25,2.25,0,0,0-.9-.17,2.3,2.3,0,0,0-2,1.39V581h-.83Z"/><path class="cls-3" d="M803.28,578.57a2.44,2.44,0,0,1,2.48-2.54,2.1,2.1,0,0,1,2.22,2.28,3.37,3.37,0,0,1,0,.5h-4.11v-.64h3.62l-.21.23c0-1.15-.57-1.71-1.46-1.71a1.7,1.7,0,0,0-1.68,1.88,1.76,1.76,0,0,0,1.9,1.9,2.65,2.65,0,0,0,1.48-.46l.3.54a3.33,3.33,0,0,1-1.88.58A2.46,2.46,0,0,1,803.28,578.57Z"/><path class="cls-3" d="M809.31,580.37l.38-.55a3.47,3.47,0,0,0,2.11.66c.82,0,1.22-.34,1.22-.75s-.19-.63-1.51-.9-1.9-.69-1.9-1.42.69-1.38,2-1.38a3.57,3.57,0,0,1,2,.63l-.4.52a2.87,2.87,0,0,0-1.63-.51c-.82,0-1.12.33-1.12.7s.42.6,1.42.81c1.61.35,2,.75,2,1.5s-.77,1.45-2.16,1.45A4.27,4.27,0,0,1,809.31,580.37Z"/><path class="cls-3" d="M815.31,580.37l.38-.55a3.47,3.47,0,0,0,2.11.66c.82,0,1.22-.34,1.22-.75s-.19-.63-1.51-.9-1.9-.69-1.9-1.42.69-1.38,2-1.38a3.57,3.57,0,0,1,2,.63l-.4.52a2.87,2.87,0,0,0-1.63-.51c-.82,0-1.12.33-1.12.7s.42.6,1.42.81c1.61.35,2,.75,2,1.5s-.77,1.45-2.16,1.45A4.27,4.27,0,0,1,815.31,580.37Z"/><path class="cls-3" d="M821.28,578.57a2.44,2.44,0,0,1,2.48-2.54,2.09,2.09,0,0,1,2.21,2.28,2.41,2.41,0,0,1,0,.5h-4.1v-.64h3.62l-.21.23c0-1.15-.57-1.71-1.46-1.71a1.7,1.7,0,0,0-1.68,1.88,1.76,1.76,0,0,0,1.9,1.9,2.65,2.65,0,0,0,1.48-.46l.3.54a3.36,3.36,0,0,1-1.88.58A2.46,2.46,0,0,1,821.28,578.57Z"/></g><path class="cls-4" d="M672,726.6H861.24"/><g class="cls-2"><path class="cls-3" d="M922,574.46h1.62c2,0,3,1.17,3,3.24s-1.07,3.31-3,3.31H922Zm1.56,5.86c1.49,0,2.23-1,2.23-2.62s-.74-2.55-2.23-2.55h-.72v5.17Z"/><path class="cls-3" d="M927.76,578.57a2.44,2.44,0,0,1,2.48-2.54,2.1,2.1,0,0,1,2.22,2.28,3.37,3.37,0,0,1,0,.5h-4.11v-.64h3.62l-.21.23c0-1.15-.57-1.71-1.46-1.71a1.7,1.7,0,0,0-1.68,1.88,1.76,1.76,0,0,0,1.9,1.9A2.65,2.65,0,0,0,932,580l.3.54a3.33,3.33,0,0,1-1.88.58A2.46,2.46,0,0,1,927.76,578.57Z"/><path class="cls-3" d="M935.14,579.12v-2.3h-1.38v-.62l1.41,0,.11-1.56H936v1.56h2.38v.66H936v2.31c0,.87.29,1.32,1.23,1.32a3.2,3.2,0,0,0,1.16-.22l.18.61a4.24,4.24,0,0,1-1.52.29C935.6,581.13,935.14,580.32,935.14,579.12Z"/><path class="cls-3" d="M940.53,576.16h.69l.08,1.14h0a2.58,2.58,0,0,1,2.17-1.27,1.93,1.93,0,0,1,1,.21l-.19.71a2.25,2.25,0,0,0-.9-.17,2.3,2.3,0,0,0-2,1.39V581h-.83Z"/><path class="cls-3" d="M945.68,578.59a2.4,2.4,0,1,1,2.4,2.54A2.38,2.38,0,0,1,945.68,578.59Zm4,0c0-1.12-.62-1.87-1.55-1.87s-1.55.75-1.55,1.87.62,1.85,1.55,1.85S949.63,579.7,949.63,578.59Z"/><path class="cls-3" d="M954.23,576.82H952v-.66h3.08V581h-.83Zm-.33-2.32a.66.66,0,1,1,.66.64A.63.63,0,0,1,953.9,574.5Z"/><path class="cls-3" d="M959.14,579.12v-2.3h-1.38v-.62l1.41,0,.11-1.56H960v1.56h2.38v.66H960v2.31c0,.87.29,1.32,1.23,1.32a3.2,3.2,0,0,0,1.16-.22l.18.61a4.24,4.24,0,0,1-1.52.29C959.6,581.13,959.14,580.32,959.14,579.12Z"/><path class="cls-3" d="M970.41,574.46h4v.71h-3.19v2.2H974v.71h-2.7V581h-.84Z"/><path class="cls-3" d="M976.53,576.16h.69l.08,1.14h0a2.58,2.58,0,0,1,2.17-1.27,1.93,1.93,0,0,1,1,.21l-.19.71a2.25,2.25,0,0,0-.9-.17,2.3,2.3,0,0,0-2,1.39V581h-.83Z"/><path class="cls-3" d="M981.76,578.57a2.44,2.44,0,0,1,2.48-2.54,2.1,2.1,0,0,1,2.22,2.28,3.37,3.37,0,0,1,0,.5h-4.11v-.64h3.62l-.21.23c0-1.15-.57-1.71-1.46-1.71a1.7,1.7,0,0,0-1.68,1.88,1.76,1.76,0,0,0,1.9,1.9A2.65,2.65,0,0,0,986,580l.3.54a3.33,3.33,0,0,1-1.88.58A2.46,2.46,0,0,1,981.76,578.57Z"/><path class="cls-3" d="M987.76,578.57a2.44,2.44,0,0,1,2.48-2.54,2.1,2.1,0,0,1,2.22,2.28,3.37,3.37,0,0,1,0,.5h-4.11v-.64h3.62l-.21.23c0-1.15-.57-1.71-1.46-1.71a1.7,1.7,0,0,0-1.68,1.88,1.76,1.76,0,0,0,1.9,1.9A2.65,2.65,0,0,0,992,580l.3.54a3.33,3.33,0,0,1-1.88.58A2.46,2.46,0,0,1,987.76,578.57Z"/><path class="cls-3" d="M1000.1,574.46h2c1.45,0,2.43.49,2.43,1.92s-1,2-2.43,2h-1.14V581h-.84Zm1.88,3.27c1.14,0,1.69-.42,1.69-1.35s-.56-1.24-1.69-1.24h-1v2.59Z"/><path class="cls-3" d="M1006.53,576.16h.69l.08,1.14h0a2.58,2.58,0,0,1,2.17-1.27,1.93,1.93,0,0,1,1,.21l-.19.71a2.25,2.25,0,0,0-.9-.17,2.3,2.3,0,0,0-2,1.39V581h-.83Z"/><path class="cls-3" d="M1011.76,578.57a2.44,2.44,0,0,1,2.48-2.54,2.1,2.1,0,0,1,2.22,2.28,3.37,3.37,0,0,1,0,.5h-4.11v-.64h3.62l-.21.23c0-1.15-.57-1.71-1.46-1.71a1.7,1.7,0,0,0-1.68,1.88,1.76,1.76,0,0,0,1.9,1.9A2.65,2.65,0,0,0,1016,580l.3.54a3.33,3.33,0,0,1-1.88.58A2.46,2.46,0,0,1,1011.76,578.57Z"/><path class="cls-3" d="M1017.79,580.37l.38-.55a3.47,3.47,0,0,0,2.11.66c.82,0,1.22-.34,1.22-.75s-.19-.63-1.51-.9-1.9-.69-1.9-1.42.69-1.38,2-1.38a3.57,3.57,0,0,1,2,.63l-.4.52a2.87,2.87,0,0,0-1.63-.51c-.82,0-1.12.33-1.12.7s.42.6,1.42.81c1.61.35,2,.75,2,1.5s-.77,1.45-2.16,1.45A4.27,4.27,0,0,1,1017.79,580.37Z"/><path class="cls-3" d="M1023.79,580.37l.38-.55a3.47,3.47,0,0,0,2.11.66c.82,0,1.22-.34,1.22-.75s-.19-.63-1.51-.9-1.9-.69-1.9-1.42.69-1.38,2-1.38a3.57,3.57,0,0,1,2,.63l-.4.52a2.87,2.87,0,0,0-1.63-.51c-.82,0-1.12.33-1.12.7s.42.6,1.42.81c1.61.35,2,.75,2,1.5s-.77,1.45-2.16,1.45A4.27,4.27,0,0,1,1023.79,580.37Z"/></g><path class="cls-4" d="M880.44,726.6h189.28"/><g class="cls-2"><path class="cls-3" d="M96.8,764.41c0-2.11,1.23-3.4,2.94-3.4a2.46,2.46,0,0,1,1.8.8l-.48.53a1.76,1.76,0,0,0-1.32-.59c-1.25,0-2.07,1-2.07,2.64s.82,2.68,2.07,2.68a1.89,1.89,0,0,0,1.47-.72l.48.51a2.54,2.54,0,0,1-2,.95C98,767.81,96.8,766.55,96.8,764.41Z"/><path class="cls-3" d="M103.08,760.57h.83v1.94l0,1.15h0a2.44,2.44,0,0,1,1.81-.95c1.15,0,1.68.68,1.68,2v3h-.83v-2.91c0-.92-.32-1.35-1.11-1.35-.58,0-1,.29-1.53.87v3.39h-.83Z"/><path class="cls-3" d="M111.3,763.5h-2.25v-.67h3.08v4.86h-.83Zm-.33-2.33a.66.66,0,1,1,.66.64A.63.63,0,0,1,111,761.17Z"/><path class="cls-3" d="M115,765.27a2.52,2.52,0,0,1,2.71-2.56,2.44,2.44,0,0,1,1.76.71L119,764a2,2,0,0,0-1.32-.55,1.78,1.78,0,0,0-1.89,1.87,1.76,1.76,0,0,0,1.87,1.85,2.26,2.26,0,0,0,1.49-.61l.37.54a2.87,2.87,0,0,1-1.92.76A2.45,2.45,0,0,1,115,765.27Z"/><path class="cls-3" d="M121,766.43c0-1.09,1-1.62,3.53-1.82a1.15,1.15,0,0,0-1.29-1.22,3.39,3.39,0,0,0-1.7.58l-.33-.56a4.26,4.26,0,0,1,2.17-.7,1.8,1.8,0,0,1,2,2v3h-.68l-.08-.66h0a3.27,3.27,0,0,1-1.91.78A1.47,1.47,0,0,1,121,766.43Zm3.53,0v-1.26c-2.08.16-2.71.57-2.71,1.21s.5.77,1.06.77A2.65,2.65,0,0,0,124.48,766.42Z"/><path class="cls-3" d="M126.87,768.58a1.35,1.35,0,0,1,.8-1.08v0a.88.88,0,0,1-.5-.8,1.18,1.18,0,0,1,.58-.91v0a1.55,1.55,0,0,1-.6-1.26,1.78,1.78,0,0,1,1.91-1.74,2,2,0,0,1,.72.12h2v.67h-1.26a1.43,1.43,0,0,1,.42,1,1.7,1.7,0,0,1-1.88,1.67,2.1,2.1,0,0,1-.82-.18.67.67,0,0,0-.38.56c0,.38.37.56,1,.56H130c1.24,0,1.84.32,1.84,1.14s-1.05,1.7-2.69,1.7C127.69,769.93,126.87,769.44,126.87,768.58Zm4.12-.22c0-.46-.37-.59-1.1-.59h-.95a2.75,2.75,0,0,1-.74-.08c-.46.25-.62.53-.62.81,0,.51.55.83,1.59.83S131,768.86,131,768.36Zm-.81-3.91a1.12,1.12,0,1,0-1.12,1.15A1.1,1.1,0,0,0,130.18,764.45Z"/><path class="cls-3" d="M132.75,765.27a2.4,2.4,0,1,1,2.4,2.54A2.38,2.38,0,0,1,132.75,765.27Zm3.94,0c0-1.12-.61-1.87-1.54-1.87s-1.55.75-1.55,1.87.62,1.85,1.55,1.85S136.69,766.38,136.69,765.27Z"/><path class="cls-3" d="M146.73,761.84h-2.17v-.71h5.17v.71h-2.16v5.85h-.84Z"/><path class="cls-3" d="M151.6,762.83h.69l.08,1.15h0a2.56,2.56,0,0,1,2.16-1.27,2,2,0,0,1,1,.2l-.19.71a2.44,2.44,0,0,0-.9-.16,2.27,2.27,0,0,0-2,1.39v2.84h-.83Z"/><path class="cls-3" d="M159.3,763.5h-2.25v-.67h3.07v4.86h-.82Zm-.33-2.33a.66.66,0,1,1,.65.64A.62.62,0,0,1,159,761.17Z"/><path class="cls-3" d="M163.85,767.15h0l-.08.54h-.66v-7.12h.83v1.94l0,.94h0a2.39,2.39,0,0,1,1.62-.74c1.31,0,2,1,2,2.47a2.35,2.35,0,0,1-2.19,2.63A2.4,2.4,0,0,1,163.85,767.15Zm2.84-2c0-1.07-.4-1.78-1.36-1.78a2.06,2.06,0,0,0-1.42.72v2.42a2,2,0,0,0,1.31.56C166.05,767.11,166.69,766.39,166.69,765.19Z"/><path class="cls-3" d="M168.92,765.85v-3h.83v2.91c0,.91.32,1.35,1.12,1.35a1.91,1.91,0,0,0,1.5-.89v-3.37h.83v4.86h-.69l-.07-.85h0a2.33,2.33,0,0,1-1.8,1C169.45,767.81,168.92,767.13,168.92,765.85Z"/><path class="cls-3" d="M175.08,762.83h.68l.07.82h0a2.52,2.52,0,0,1,1.82-.94c1.15,0,1.68.68,1.68,2v3h-.83v-2.91c0-.92-.32-1.35-1.1-1.35-.58,0-1,.29-1.53.87v3.39h-.83Z"/><path class="cls-3" d="M180.83,765.25a2.44,2.44,0,0,1,2.47-2.54,2.09,2.09,0,0,1,2.22,2.28,3.37,3.37,0,0,1,0,.5h-4.1v-.64H185l-.21.23c0-1.15-.57-1.72-1.46-1.72a1.71,1.71,0,0,0-1.67,1.89,1.76,1.76,0,0,0,1.89,1.9,2.65,2.65,0,0,0,1.48-.46l.3.54a3.33,3.33,0,0,1-1.88.58A2.46,2.46,0,0,1,180.83,765.25Z"/></g><g class="cls-2"><path class="cls-3" d="M275.28,764.41c0-2.11,1.23-3.4,2.94-3.4a2.46,2.46,0,0,1,1.8.8l-.48.53a1.76,1.76,0,0,0-1.32-.59c-1.25,0-2.07,1-2.07,2.64s.82,2.68,2.07,2.68a1.89,1.89,0,0,0,1.47-.72l.48.51a2.54,2.54,0,0,1-2,.95C276.52,767.81,275.28,766.55,275.28,764.41Z"/><path class="cls-3" d="M281.23,765.27a2.4,2.4,0,1,1,2.4,2.54A2.38,2.38,0,0,1,281.23,765.27Zm3.95,0c0-1.12-.62-1.87-1.55-1.87s-1.55.75-1.55,1.87.62,1.85,1.55,1.85S285.18,766.38,285.18,765.27Z"/><path class="cls-3" d="M287.56,762.83h.68l.07.62h0a2.58,2.58,0,0,1,1.68-.74c1.31,0,2,1,2,2.48a2.35,2.35,0,0,1-2.21,2.62,2.31,2.31,0,0,1-1.45-.63h0l0,.92v1.64h-.83Zm3.62,2.36c0-1.07-.4-1.78-1.37-1.78a2.06,2.06,0,0,0-1.42.72v2.42a2,2,0,0,0,1.29.56C290.54,767.11,291.18,766.39,291.18,765.19Z"/><path class="cls-3" d="M295.09,766.06v-4.82h-1.72v-.67h2.55v5.55a.88.88,0,0,0,1,1,2.2,2.2,0,0,0,.91-.22l.21.62a3,3,0,0,1-1.3.29C295.66,767.81,295.09,767.21,295.09,766.06Z"/><path class="cls-3" d="M299.31,765.25a2.44,2.44,0,0,1,2.48-2.54A2.09,2.09,0,0,1,304,765a3.37,3.37,0,0,1,0,.5h-4.11v-.64h3.62l-.21.23c0-1.15-.57-1.72-1.46-1.72a1.71,1.71,0,0,0-1.68,1.89,1.76,1.76,0,0,0,1.9,1.9,2.65,2.65,0,0,0,1.48-.46l.3.54a3.33,3.33,0,0,1-1.88.58A2.46,2.46,0,0,1,299.31,765.25Z"/><path class="cls-3" d="M305.3,769.68l.17-.66a1.56,1.56,0,0,0,.44.07,1.41,1.41,0,0,0,1.33-1l.14-.36-2.26-4.87H306l1.18,2.68c.19.43.4.94.6,1.41h0l.52-1.41,1.05-2.68h.8L308,768.09a2.17,2.17,0,0,1-2.06,1.69A2,2,0,0,1,305.3,769.68Z"/><path class="cls-3" d="M317.28,764.41c0-2.11,1.23-3.4,2.94-3.4a2.46,2.46,0,0,1,1.8.8l-.48.53a1.76,1.76,0,0,0-1.32-.59c-1.25,0-2.07,1-2.07,2.64s.82,2.68,2.07,2.68a1.89,1.89,0,0,0,1.47-.72l.48.51a2.54,2.54,0,0,1-2,.95C318.52,767.81,317.28,766.55,317.28,764.41Z"/><path class="cls-3" d="M323.56,760.57h.83v1.94l-.05,1.15h0a2.44,2.44,0,0,1,1.81-.95c1.15,0,1.68.68,1.68,2v3H327v-2.91c0-.92-.32-1.35-1.11-1.35-.58,0-1,.29-1.53.87v3.39h-.83Z"/><path class="cls-3" d="M331.78,763.5h-2.25v-.67h3.08v4.86h-.83Zm-.33-2.33a.66.66,0,1,1,.66.64A.63.63,0,0,1,331.45,761.17Z"/><path class="cls-3" d="M335.43,765.27a2.52,2.52,0,0,1,2.71-2.56,2.47,2.47,0,0,1,1.77.71l-.41.53a2,2,0,0,0-1.33-.55,1.78,1.78,0,0,0-1.89,1.87,1.76,1.76,0,0,0,1.87,1.85,2.31,2.31,0,0,0,1.5-.61l.37.54a2.89,2.89,0,0,1-1.93.76A2.45,2.45,0,0,1,335.43,765.27Z"/><path class="cls-3" d="M341.43,766.43c0-1.09,1-1.62,3.53-1.82a1.15,1.15,0,0,0-1.29-1.22,3.39,3.39,0,0,0-1.7.58l-.33-.56a4.26,4.26,0,0,1,2.17-.7,1.81,1.81,0,0,1,2,2v3h-.69L345,767h0a3.27,3.27,0,0,1-1.91.78A1.47,1.47,0,0,1,341.43,766.43Zm3.53,0v-1.26c-2.08.16-2.71.57-2.71,1.21s.5.77,1.06.77A2.65,2.65,0,0,0,345,766.42Z"/><path class="cls-3" d="M347.35,768.58a1.35,1.35,0,0,1,.8-1.08v0a.88.88,0,0,1-.5-.8,1.18,1.18,0,0,1,.58-.91v0a1.55,1.55,0,0,1-.6-1.26,1.78,1.78,0,0,1,1.91-1.74,2,2,0,0,1,.72.12h2v.67H351a1.47,1.47,0,0,1,.41,1,1.7,1.7,0,0,1-1.88,1.67,2.1,2.1,0,0,1-.82-.18.67.67,0,0,0-.38.56c0,.38.37.56,1,.56h1.09c1.25,0,1.85.32,1.85,1.14s-1.05,1.7-2.7,1.7C348.17,769.93,347.35,769.44,347.35,768.58Zm4.13-.22c0-.46-.37-.59-1.11-.59h-.95a2.75,2.75,0,0,1-.74-.08c-.46.25-.62.53-.62.81,0,.51.55.83,1.59.83S351.48,768.86,351.48,768.36Zm-.82-3.91a1.12,1.12,0,1,0-1.12,1.15A1.1,1.1,0,0,0,350.66,764.45Z"/><path class="cls-3" d="M353.23,765.27a2.4,2.4,0,1,1,2.4,2.54A2.38,2.38,0,0,1,353.23,765.27Zm3.95,0c0-1.12-.62-1.87-1.55-1.87s-1.55.75-1.55,1.87.62,1.85,1.55,1.85S357.18,766.38,357.18,765.27Z"/><path class="cls-3" d="M365.45,761.13h.92l2.1,4.12.63,1.36h0c0-.65-.11-1.39-.11-2.08v-3.4h.8v6.56h-.92l-2.1-4.12-.63-1.36h0c0,.67.11,1.37.11,2v3.43h-.8Z"/><path class="cls-3" d="M371.31,765.25a2.44,2.44,0,0,1,2.48-2.54A2.09,2.09,0,0,1,376,765a3.37,3.37,0,0,1,0,.5h-4.11v-.64h3.62l-.21.23c0-1.15-.57-1.72-1.46-1.72a1.71,1.71,0,0,0-1.68,1.89,1.76,1.76,0,0,0,1.9,1.9,2.65,2.65,0,0,0,1.48-.46l.3.54a3.33,3.33,0,0,1-1.88.58A2.46,2.46,0,0,1,371.31,765.25Z"/><path class="cls-3" d="M376.71,762.83h.82l.58,2.82c.09.46.16.88.22,1.34h0a12.26,12.26,0,0,1,.28-1.34l.6-2.52h.82l.58,2.52A12.89,12.89,0,0,1,381,767h0c.08-.46.13-.88.22-1.34l.58-2.82h.76l-1,4.86h-1.06l-.56-2.32q-.12-.51-.24-1.44h0q-.12.93-.24,1.44l-.54,2.32h-1.06Z"/><path class="cls-3" d="M383.34,767.05l.38-.55a3.47,3.47,0,0,0,2.11.66c.82,0,1.22-.34,1.22-.75s-.19-.63-1.51-.9-1.9-.69-1.9-1.42.69-1.38,2-1.38a3.65,3.65,0,0,1,2,.62l-.4.53a2.87,2.87,0,0,0-1.63-.51c-.82,0-1.12.33-1.12.7s.42.6,1.42.81c1.61.35,2,.75,2,1.5s-.77,1.45-2.16,1.45A4.27,4.27,0,0,1,383.34,767.05Z"/><path class="cls-3" d="M389.56,762.83h.68l.07.62h0a2.58,2.58,0,0,1,1.68-.74c1.31,0,2,1,2,2.48a2.35,2.35,0,0,1-2.21,2.62,2.31,2.31,0,0,1-1.45-.63h0l0,.92v1.64h-.83Zm3.62,2.36c0-1.07-.4-1.78-1.37-1.78a2.06,2.06,0,0,0-1.42.72v2.42a2,2,0,0,0,1.29.56C392.54,767.11,393.18,766.39,393.18,765.19Z"/><path class="cls-3" d="M395.43,766.43c0-1.09,1-1.62,3.53-1.82a1.15,1.15,0,0,0-1.29-1.22,3.39,3.39,0,0,0-1.7.58l-.33-.56a4.26,4.26,0,0,1,2.17-.7,1.81,1.81,0,0,1,2,2v3h-.69L399,767h0a3.27,3.27,0,0,1-1.91.78A1.47,1.47,0,0,1,395.43,766.43Zm3.53,0v-1.26c-2.08.16-2.71.57-2.71,1.21s.5.77,1.06.77A2.65,2.65,0,0,0,399,766.42Z"/><path class="cls-3" d="M401.56,762.83h.68l.07.62h0a2.58,2.58,0,0,1,1.68-.74c1.31,0,2,1,2,2.48a2.35,2.35,0,0,1-2.21,2.62,2.31,2.31,0,0,1-1.45-.63h0l0,.92v1.64h-.83Zm3.62,2.36c0-1.07-.4-1.78-1.37-1.78a2.06,2.06,0,0,0-1.42.72v2.42a2,2,0,0,0,1.29.56C404.54,767.11,405.18,766.39,405.18,765.19Z"/><path class="cls-3" d="M407.31,765.25a2.44,2.44,0,0,1,2.48-2.54A2.09,2.09,0,0,1,412,765a3.37,3.37,0,0,1,0,.5h-4.11v-.64h3.62l-.21.23c0-1.15-.57-1.72-1.46-1.72a1.71,1.71,0,0,0-1.68,1.89,1.76,1.76,0,0,0,1.9,1.9,2.65,2.65,0,0,0,1.48-.46l.3.54a3.33,3.33,0,0,1-1.88.58A2.46,2.46,0,0,1,407.31,765.25Z"/><path class="cls-3" d="M414.08,762.83h.69l.08,1.15h0a2.56,2.56,0,0,1,2.17-1.27,2,2,0,0,1,1,.2l-.19.71a2.44,2.44,0,0,0-.9-.16,2.28,2.28,0,0,0-2,1.39v2.84h-.83Z"/><path class="cls-3" d="M419.34,767.05l.38-.55a3.47,3.47,0,0,0,2.11.66c.82,0,1.22-.34,1.22-.75s-.19-.63-1.51-.9-1.9-.69-1.9-1.42.69-1.38,2-1.38a3.65,3.65,0,0,1,2,.62l-.4.53a2.87,2.87,0,0,0-1.63-.51c-.82,0-1.12.33-1.12.7s.42.6,1.42.81c1.61.35,2,.75,2,1.5s-.77,1.45-2.16,1.45A4.27,4.27,0,0,1,419.34,767.05Z"/></g><g class="cls-2"><path class="cls-3" d="M519.79,766.84l.5-.58a2.72,2.72,0,0,0,1.91.81c.9,0,1.42-.43,1.42-1s-.51-.9-1.17-1.18l-1-.42a1.86,1.86,0,0,1-1.4-1.69,1.9,1.9,0,0,1,2.14-1.74,2.86,2.86,0,0,1,2,.81l-.44.54a2.31,2.31,0,0,0-1.61-.61c-.76,0-1.27.36-1.27,1s.61.86,1.17,1.08l.92.41c.81.32,1.45.78,1.45,1.75s-.88,1.87-2.32,1.87A3.31,3.31,0,0,1,519.79,766.84Z"/><path class="cls-3" d="M525.8,765.25a2.44,2.44,0,0,1,2.47-2.54,2.09,2.09,0,0,1,2.22,2.28,3.37,3.37,0,0,1,0,.5h-4.1v-.64H530l-.21.23c0-1.15-.57-1.72-1.46-1.72a1.71,1.71,0,0,0-1.68,1.89,1.76,1.76,0,0,0,1.9,1.9,2.65,2.65,0,0,0,1.48-.46l.3.54a3.33,3.33,0,0,1-1.88.58A2.45,2.45,0,0,1,525.8,765.25Z"/><path class="cls-3" d="M531.92,766.43c0-1.09,1-1.62,3.52-1.82a1.15,1.15,0,0,0-1.29-1.22,3.32,3.32,0,0,0-1.69.58l-.34-.56a4.26,4.26,0,0,1,2.17-.7,1.81,1.81,0,0,1,2,2v3h-.69l-.07-.66h0a3.27,3.27,0,0,1-1.91.78A1.47,1.47,0,0,1,531.92,766.43Zm3.52,0v-1.26c-2.08.16-2.71.57-2.71,1.21s.5.77,1.06.77A2.65,2.65,0,0,0,535.44,766.42Z"/><path class="cls-3" d="M539.17,765.8v-2.3h-1.38v-.62l1.41,0,.11-1.56H540v1.56h2.38v.67H540v2.31c0,.87.29,1.32,1.23,1.32a3.2,3.2,0,0,0,1.16-.22l.18.61a4.24,4.24,0,0,1-1.52.29C539.63,767.81,539.17,767,539.17,765.8Z"/><path class="cls-3" d="M545.17,765.8v-2.3h-1.38v-.62l1.41,0,.11-1.56H546v1.56h2.38v.67H546v2.31c0,.87.29,1.32,1.23,1.32a3.2,3.2,0,0,0,1.16-.22l.18.61a4.24,4.24,0,0,1-1.52.29C545.63,767.81,545.17,767,545.17,765.8Z"/><path class="cls-3" d="M551.57,766.06v-4.82h-1.72v-.67h2.55v5.55a.88.88,0,0,0,1,1,2.2,2.2,0,0,0,.91-.22l.21.62a3,3,0,0,1-1.3.29C552.14,767.81,551.57,767.21,551.57,766.06Z"/><path class="cls-3" d="M555.79,765.25a2.44,2.44,0,0,1,2.48-2.54,2.09,2.09,0,0,1,2.22,2.28,3.37,3.37,0,0,1,0,.5h-4.11v-.64H560l-.21.23c0-1.15-.57-1.72-1.46-1.72a1.71,1.71,0,0,0-1.68,1.89,1.76,1.76,0,0,0,1.9,1.9,2.65,2.65,0,0,0,1.48-.46l.3.54a3.33,3.33,0,0,1-1.88.58A2.46,2.46,0,0,1,555.79,765.25Z"/><path class="cls-3" d="M569.69,761.84h-2.17v-.71h5.18v.71h-2.17v5.85h-.84Z"/><path class="cls-3" d="M576.26,763.5H574v-.67h3.08v4.86h-.83Zm-.33-2.33a.66.66,0,1,1,.66.64A.63.63,0,0,1,575.93,761.17Z"/><path class="cls-3" d="M579.69,762.83h.66l.07.64h0a1.21,1.21,0,0,1,1.11-.76c.48,0,.78.28.92.84.28-.52.58-.84,1.14-.84s1.08.53,1.08,1.5v3.48h-.82v-3.42c0-.56-.16-.85-.52-.85s-.52.25-.78.75v3.52h-.76v-3.42c0-.56-.14-.85-.5-.85s-.56.25-.8.75v3.52h-.82Z"/><path class="cls-3" d="M585.79,765.25a2.44,2.44,0,0,1,2.48-2.54,2.09,2.09,0,0,1,2.22,2.28,3.37,3.37,0,0,1,0,.5h-4.11v-.64H590l-.21.23c0-1.15-.57-1.72-1.46-1.72a1.71,1.71,0,0,0-1.68,1.89,1.76,1.76,0,0,0,1.9,1.9,2.65,2.65,0,0,0,1.48-.46l.3.54a3.33,3.33,0,0,1-1.88.58A2.46,2.46,0,0,1,585.79,765.25Z"/><path class="cls-3" d="M591.82,767.05l.38-.55a3.47,3.47,0,0,0,2.11.66c.82,0,1.22-.34,1.22-.75s-.19-.63-1.51-.9-1.9-.69-1.9-1.42.69-1.38,2-1.38a3.65,3.65,0,0,1,2,.62l-.4.53a2.87,2.87,0,0,0-1.63-.51c-.82,0-1.12.33-1.12.7s.42.6,1.42.81c1.61.35,2,.75,2,1.5s-.77,1.45-2.16,1.45A4.27,4.27,0,0,1,591.82,767.05Z"/></g><g class="cls-2"><path class="cls-3" d="M725.27,766.84l.5-.58a2.76,2.76,0,0,0,1.92.81c.9,0,1.42-.43,1.42-1s-.51-.9-1.17-1.18l-1-.42a1.87,1.87,0,0,1-1.41-1.69,1.91,1.91,0,0,1,2.15-1.74,2.86,2.86,0,0,1,2,.81l-.44.54a2.31,2.31,0,0,0-1.61-.61c-.76,0-1.27.36-1.27,1s.61.86,1.17,1.08l.92.41c.81.32,1.45.78,1.45,1.75s-.88,1.87-2.32,1.87A3.33,3.33,0,0,1,725.27,766.84Z"/><path class="cls-3" d="M731.4,766.43c0-1.09,1-1.62,3.53-1.82a1.15,1.15,0,0,0-1.29-1.22,3.39,3.39,0,0,0-1.7.58l-.33-.56a4.26,4.26,0,0,1,2.17-.7,1.81,1.81,0,0,1,2,2v3h-.69L735,767h0a3.27,3.27,0,0,1-1.91.78A1.47,1.47,0,0,1,731.4,766.43Zm3.53,0v-1.26c-2.08.16-2.71.57-2.71,1.21s.5.77,1.06.77A2.65,2.65,0,0,0,734.93,766.42Z"/><path class="cls-3" d="M737.4,765.27a2.52,2.52,0,0,1,2.71-2.56,2.47,2.47,0,0,1,1.77.71l-.41.53a2,2,0,0,0-1.33-.55,1.78,1.78,0,0,0-1.89,1.87,1.76,1.76,0,0,0,1.87,1.85,2.31,2.31,0,0,0,1.5-.61l.37.54a2.89,2.89,0,0,1-1.93.76A2.45,2.45,0,0,1,737.4,765.27Z"/><path class="cls-3" d="M744.05,762.83h.69l.08,1.15h0a2.56,2.56,0,0,1,2.17-1.27,2,2,0,0,1,1,.2l-.19.71a2.44,2.44,0,0,0-.9-.16,2.28,2.28,0,0,0-2,1.39v2.84h-.83Z"/><path class="cls-3" d="M749.4,766.43c0-1.09,1-1.62,3.53-1.82a1.15,1.15,0,0,0-1.29-1.22,3.39,3.39,0,0,0-1.7.58l-.33-.56a4.26,4.26,0,0,1,2.17-.7,1.81,1.81,0,0,1,2,2v3h-.69L753,767h0a3.27,3.27,0,0,1-1.91.78A1.47,1.47,0,0,1,749.4,766.43Zm3.53,0v-1.26c-2.08.16-2.71.57-2.71,1.21s.5.77,1.06.77A2.65,2.65,0,0,0,752.93,766.42Z"/><path class="cls-3" d="M755.18,762.83h.66l.07.64h0a1.21,1.21,0,0,1,1.11-.76c.48,0,.78.28.92.84.28-.52.58-.84,1.14-.84s1.08.53,1.08,1.5v3.48h-.82v-3.42c0-.56-.16-.85-.52-.85s-.52.25-.78.75v3.52h-.76v-3.42c0-.56-.14-.85-.5-.85s-.56.25-.8.75v3.52h-.82Z"/><path class="cls-3" d="M761.28,765.25a2.44,2.44,0,0,1,2.48-2.54A2.09,2.09,0,0,1,766,765a3.37,3.37,0,0,1,0,.5h-4.11v-.64h3.62l-.21.23c0-1.15-.57-1.72-1.46-1.72a1.71,1.71,0,0,0-1.68,1.89,1.76,1.76,0,0,0,1.9,1.9,2.65,2.65,0,0,0,1.48-.46l.3.54a3.33,3.33,0,0,1-1.88.58A2.46,2.46,0,0,1,761.28,765.25Z"/><path class="cls-3" d="M767.53,762.83h.68l.07.82h0a2.52,2.52,0,0,1,1.83-.94c1.15,0,1.68.68,1.68,2v3H771v-2.91c0-.92-.32-1.35-1.11-1.35-.58,0-1,.29-1.53.87v3.39h-.83Z"/><path class="cls-3" d="M774.66,765.8v-2.3h-1.38v-.62l1.41,0,.11-1.56h.69v1.56h2.38v.67h-2.38v2.31c0,.87.29,1.32,1.23,1.32a3.2,3.2,0,0,0,1.16-.22l.18.61a4.24,4.24,0,0,1-1.52.29C775.12,767.81,774.66,767,774.66,765.8Z"/><path class="cls-3" d="M779.2,765.27a2.4,2.4,0,1,1,2.4,2.54A2.38,2.38,0,0,1,779.2,765.27Zm3.95,0c0-1.12-.62-1.87-1.55-1.87s-1.55.75-1.55,1.87.62,1.85,1.55,1.85S783.15,766.38,783.15,765.27Z"/><path class="cls-3" d="M791.59,761.13h1.86c1.34,0,2.25.45,2.25,1.6a1.43,1.43,0,0,1-1.15,1.43v0c1,.15,1.52.67,1.52,1.57,0,1.29-1,1.92-2.47,1.92h-2Zm1.72,2.76c1.12,0,1.57-.36,1.57-1.09s-.52-1-1.53-1h-.93v2.06Zm.17,3.1c1.12,0,1.77-.37,1.77-1.26s-.62-1.14-1.77-1.14h-1.06V767Z"/><path class="cls-3" d="M797.28,765.25a2.44,2.44,0,0,1,2.48-2.54A2.09,2.09,0,0,1,802,765a3.37,3.37,0,0,1,0,.5h-4.11v-.64h3.62l-.21.23c0-1.15-.57-1.72-1.46-1.72a1.71,1.71,0,0,0-1.68,1.89,1.76,1.76,0,0,0,1.9,1.9,2.65,2.65,0,0,0,1.48-.46l.3.54a3.33,3.33,0,0,1-1.88.58A2.46,2.46,0,0,1,797.28,765.25Z"/><path class="cls-3" d="M803.28,765.25a2.44,2.44,0,0,1,2.48-2.54A2.09,2.09,0,0,1,808,765a3.37,3.37,0,0,1,0,.5h-4.11v-.64h3.62l-.21.23c0-1.15-.57-1.72-1.46-1.72a1.71,1.71,0,0,0-1.68,1.89,1.76,1.76,0,0,0,1.9,1.9,2.65,2.65,0,0,0,1.48-.46l.3.54a3.33,3.33,0,0,1-1.88.58A2.46,2.46,0,0,1,803.28,765.25Z"/></g><g class="cls-2"><path class="cls-3" d="M930.73,764.41c0-2.11,1.23-3.4,2.94-3.4a2.46,2.46,0,0,1,1.8.8l-.48.53a1.76,1.76,0,0,0-1.32-.59c-1.25,0-2.07,1-2.07,2.64s.82,2.68,2.07,2.68a1.89,1.89,0,0,0,1.47-.72l.48.51a2.54,2.54,0,0,1-2,.95C932,767.81,930.73,766.55,930.73,764.41Z"/><path class="cls-3" d="M936.68,765.27a2.4,2.4,0,1,1,2.4,2.54A2.38,2.38,0,0,1,936.68,765.27Zm4,0c0-1.12-.62-1.87-1.55-1.87s-1.55.75-1.55,1.87.62,1.85,1.55,1.85S940.63,766.38,940.63,765.27Z"/><path class="cls-3" d="M942.85,765.85v-3h.83v2.91c0,.91.32,1.35,1.12,1.35a1.93,1.93,0,0,0,1.51-.89v-3.37h.83v4.86h-.69l-.07-.85h0a2.37,2.37,0,0,1-1.81,1C943.38,767.81,942.85,767.13,942.85,765.85Z"/><path class="cls-3" d="M949.53,762.83h.69l.08,1.15h0a2.56,2.56,0,0,1,2.17-1.27,2,2,0,0,1,1,.2l-.19.71a2.44,2.44,0,0,0-.9-.16,2.28,2.28,0,0,0-2,1.39v2.84h-.83Z"/><path class="cls-3" d="M957.23,763.5H955v-.67h3.08v4.86h-.83Zm-.33-2.33a.66.66,0,1,1,.66.64A.63.63,0,0,1,956.9,761.17Z"/><path class="cls-3" d="M960.76,765.25a2.44,2.44,0,0,1,2.48-2.54,2.09,2.09,0,0,1,2.22,2.28,3.37,3.37,0,0,1,0,.5h-4.11v-.64h3.62l-.21.23c0-1.15-.57-1.72-1.46-1.72a1.71,1.71,0,0,0-1.68,1.89,1.76,1.76,0,0,0,1.9,1.9,2.65,2.65,0,0,0,1.48-.46l.3.54a3.33,3.33,0,0,1-1.88.58A2.46,2.46,0,0,1,960.76,765.25Z"/><path class="cls-3" d="M967.53,762.83h.69l.08,1.15h0a2.56,2.56,0,0,1,2.17-1.27,2,2,0,0,1,1,.2l-.19.71a2.44,2.44,0,0,0-.9-.16,2.28,2.28,0,0,0-2,1.39v2.84h-.83Z"/><path class="cls-3" d="M972.93,764.08h4.3v.62h-4.3Z"/><path class="cls-3" d="M978.88,766.72l.53-.51a1.71,1.71,0,0,0,1.41.86c.93,0,1.35-.47,1.35-1.55v-3.69h-2.74v-.71H983v4.47a2,2,0,0,1-2.18,2.22A2.28,2.28,0,0,1,978.88,766.72Z"/><path class="cls-3" d="M984.68,765.27a2.4,2.4,0,1,1,2.4,2.54A2.38,2.38,0,0,1,984.68,765.27Zm4,0c0-1.12-.62-1.87-1.55-1.87s-1.55.75-1.55,1.87.62,1.85,1.55,1.85S988.63,766.38,988.63,765.27Z"/><path class="cls-3" d="M990.85,765.85v-3h.83v2.91c0,.91.32,1.35,1.12,1.35a1.93,1.93,0,0,0,1.51-.89v-3.37h.83v4.86h-.69l-.07-.85h0a2.37,2.37,0,0,1-1.81,1C991.38,767.81,990.85,767.13,990.85,765.85Z"/><path class="cls-3" d="M997.53,762.83h.69l.08,1.15h0a2.56,2.56,0,0,1,2.17-1.27,2,2,0,0,1,1,.2l-.19.71a2.44,2.44,0,0,0-.9-.16,2.28,2.28,0,0,0-2,1.39v2.84h-.83Z"/><path class="cls-3" d="M1003,762.83h.68l.07.82h0a2.52,2.52,0,0,1,1.83-.94c1.15,0,1.68.68,1.68,2v3h-.83v-2.91c0-.92-.32-1.35-1.11-1.35-.58,0-1,.29-1.53.87v3.39H1003Z"/><path class="cls-3" d="M1008.88,766.43c0-1.09,1-1.62,3.53-1.82a1.15,1.15,0,0,0-1.29-1.22,3.39,3.39,0,0,0-1.7.58l-.33-.56a4.26,4.26,0,0,1,2.17-.7,1.81,1.81,0,0,1,2,2v3h-.69l-.07-.66h0a3.27,3.27,0,0,1-1.91.78A1.47,1.47,0,0,1,1008.88,766.43Zm3.53,0v-1.26c-2.08.16-2.71.57-2.71,1.21s.5.77,1.06.77A2.65,2.65,0,0,0,1012.41,766.42Z"/><path class="cls-3" d="M1016.54,766.06v-4.82h-1.72v-.67h2.55v5.55a.88.88,0,0,0,1,1,2.2,2.2,0,0,0,.91-.22l.21.62a3,3,0,0,1-1.3.29C1017.11,767.81,1016.54,767.21,1016.54,766.06Z"/></g><path id="point-0-0" class="cls-6" d="M46,65.5H79.13v42.92H46Z"/><g class="cls-2"><text class="cls-5" transform="translate(82.13 92.24)">14</text></g><path id="point-1-0" class="cls-7" d="M46,108.42H185.6v42.93H46Z"/><g class="cls-2"><text class="cls-5" transform="translate(188.6 135.17)">59</text></g><g class="cls-2"><text class="cls-5" transform="translate(0 92.24)">Female</text></g><g class="cls-2"><text class="cls-5" transform="translate(12 135.17)">Male</text></g><g class="cls-2"><text class="cls-5" transform="translate(0 278.42)">Female</text></g><g class="cls-2"><text class="cls-5" transform="translate(12 321.34)">Male</text></g><g class="cls-2"><text class="cls-5" transform="translate(0 464.09)">Female</text></g><g class="cls-2"><text class="cls-5" transform="translate(12 507.02)">Male</text></g><g class="cls-2"><text class="cls-5" transform="translate(0 650.27)">Female</text></g><g class="cls-2"><text class="cls-5" transform="translate(12 693.19)">Male</text></g><g class="cls-2"><text class="cls-5" transform="translate(0 836.95)">Female</text></g><g class="cls-2"><text class="cls-5" transform="translate(12 879.87)">Male</text></g><path id="point-0-1" class="cls-6" d="M254.49,65.5h52.05v42.92H254.49Z"/><g class="cls-2"><text class="cls-5" transform="translate(309.54 92.24)">22</text></g><path id="point-1-1" class="cls-7" d="M254.49,108.42h73.35v42.93H254.49Z"/><g class="cls-2"><text class="cls-5" transform="translate(330.84 135.17)">31</text></g><path id="point-0-2" class="cls-6" d="M463,65.5h14.2v42.92H463Z"/><g class="cls-2"><text class="cls-5" transform="translate(480.17 92.24)">6</text></g><path id="point-1-2" class="cls-7" d="M463,108.42H635.69v42.93H463Z"/><g class="cls-2"><text class="cls-5" transform="translate(638.7 135.17)">73</text></g><path id="point-0-3" class="cls-6" d="M671.46,65.5h33.12v42.92H671.46Z"/><g class="cls-2"><text class="cls-5" transform="translate(707.58 92.24)">14</text></g><path id="point-1-3" class="cls-7" d="M671.46,108.42H766.1v42.93H671.46Z"/><g class="cls-2"><text class="cls-5" transform="translate(769.1 135.17)">40</text></g><path id="point-0-4" class="cls-6" d="M879.94,65.5h26v42.92h-26Z"/><g class="cls-2"><text class="cls-5" transform="translate(908.97 92.24)">11</text></g><path id="point-1-4" class="cls-7" d="M879.94,108.42H981.68v42.93H879.94Z"/><g class="cls-2"><text class="cls-5" transform="translate(984.09 135.17)">43</text></g><g class="cls-8"><g class="cls-2"><text class="cls-5" transform="translate(49.54 278.42)">0</text></g><g class="cls-2"><text class="cls-9" transform="translate(49.54 278.42)">0</text></g></g><path id="point-1-5" class="cls-7" d="M46,294.6h82.81v42.92H46Z"/><g class="cls-2"><text class="cls-5" transform="translate(132.6 321.34)">35</text></g><path id="point-0-6" class="cls-6" d="M254.49,251.67h16.56V294.6H254.49Z"/><g class="cls-2"><text class="cls-5" transform="translate(274.05 278.42)">7</text></g><path id="point-1-6" class="cls-7" d="M254.49,294.6h78.08v42.92H254.49Z"/><g class="cls-2"><text class="cls-5" transform="translate(335.57 321.34)">33</text></g><path id="point-0-7" class="cls-6" d="M463,251.67H481.9V294.6H463Z"/><g class="cls-2"><text class="cls-5" transform="translate(484.9 278.42)">8</text></g><path id="point-1-7" class="cls-7" d="M463,294.6h82.81v42.92H463Z"/><g class="cls-2"><text class="cls-5" transform="translate(548.78 321.34)">35</text></g><path id="point-0-8" class="cls-6" d="M671.46,251.67h18.93V294.6H671.46Z"/><g class="cls-2"><text class="cls-5" transform="translate(693.39 278.42)">8</text></g><path id="point-1-8" class="cls-7" d="M671.46,294.6h75.71v42.92H671.46Z"/><g class="cls-2"><text class="cls-5" transform="translate(750.17 321.34)">32</text></g><path id="point-0-9" class="cls-6" d="M879.94,251.67h33.13V294.6H879.94Z"/><g class="cls-2"><text class="cls-5" transform="translate(916.51 278.42)">14</text></g><path id="point-1-9" class="cls-7" d="M879.94,294.6h75.71v42.92H879.94Z"/><g class="cls-2"><text class="cls-5" transform="translate(959.1 321.34)">32</text></g><path id="point-0-10" class="cls-6" d="M46,437.35H74.4v42.93H46Z"/><g class="cls-2"><text class="cls-5" transform="translate(77.55 464.09)">12</text></g><path id="point-1-10" class="cls-7" d="M46,480.28h59.15V523.2H46Z"/><g class="cls-2"><text class="cls-5" transform="translate(108.31 507.02)">25</text></g><path id="point-0-11" class="cls-6" d="M254.49,437.35h23.66v42.93H254.49Z"/><g class="cls-2"><text class="cls-5" transform="translate(281.59 464.09)">10</text></g><path id="point-1-11" class="cls-7" d="M254.49,480.28H337.3V523.2H254.49Z"/><g class="cls-2"><text class="cls-5" transform="translate(340.74 507.02)">35</text></g><path id="point-0-12" class="cls-6" d="M463,437.35h30.76v42.93H463Z"/><g class="cls-2"><text class="cls-5" transform="translate(496.73 464.09)">13</text></g><path id="point-1-12" class="cls-7" d="M463,480.28h56.79V523.2H463Z"/><g class="cls-2"><text class="cls-5" transform="translate(522.76 507.02)">24</text></g><path id="point-0-13" class="cls-6" d="M671.46,437.35H688v42.93H671.46Z"/><g class="cls-2"><text class="cls-5" transform="translate(691.02 464.09)">7</text></g><path id="point-1-13" class="cls-7" d="M671.46,480.28h56.78V523.2H671.46Z"/><g class="cls-2"><text class="cls-5" transform="translate(731.24 507.02)">24</text></g><path id="point-0-14" class="cls-6" d="M879.94,437.35H896.5v42.93H879.94Z"/><g class="cls-2"><text class="cls-5" transform="translate(899.5 464.09)">7</text></g><path id="point-1-14" class="cls-7" d="M879.94,480.28h47.32V523.2H879.94Z"/><g class="cls-2"><text class="cls-5" transform="translate(930.13 507.02)">20</text></g><path id="point-0-15" class="cls-6" d="M46,623.53H53.1v42.92H46Z"/><path id="point-1-15" class="cls-7" d="M46,666.45h80.44v42.93H46Z"/><g class="cls-2"><text class="cls-5" transform="translate(129.45 693.19)">34</text></g><path id="point-0-16" class="cls-6" d="M254.49,623.53h26v42.92h-26Z"/><g class="cls-2"><text class="cls-5" transform="translate(283.81 650.27)">11</text></g><g class="cls-2"><text class="cls-5" transform="translate(57.1 650.27)">3</text></g><path id="point-1-16" class="cls-7" d="M254.49,666.45h44.95v42.93H254.49Z"/><g class="cls-2"><text class="cls-5" transform="translate(302.15 693.19)">19</text></g><path id="point-0-17" class="cls-6" d="M463,623.53h16.57v42.92H463Z"/><g class="cls-2"><text class="cls-5" transform="translate(483.17 650.27)">7</text></g><path id="point-1-17" class="cls-7" d="M463,666.45H503.2v42.93H463Z"/><g class="cls-2"><text class="cls-5" transform="translate(506.2 693.19)">17</text></g><path id="point-0-18" class="cls-6" d="M671.46,623.53h2.36v42.92h-2.36Z"/><path id="point-1-18" class="cls-7" d="M671.46,666.45h68.61v42.93H671.46Z"/><g class="cls-2"><text class="cls-5" transform="translate(743.07 693.19)">29</text></g><path id="point-0-19" class="cls-6" d="M879.94,623.53h9.47v42.92h-9.47Z"/><g class="cls-2"><text class="cls-5" transform="translate(892.4 650.27)">4</text></g><g class="cls-2"><text class="cls-5" transform="translate(676.82 650.27)">1</text></g><path id="point-1-19" class="cls-7" d="M879.94,666.45h49.69v42.93H879.94Z"/><g class="cls-2"><text class="cls-5" transform="translate(932.63 693.19)">21</text></g><path id="point-0-20" class="cls-6" d="M46,810.2H60.2v42.93H46Z"/><g class="cls-2"><text class="cls-5" transform="translate(63.2 836.94)">6</text></g><g class="cls-2"><text class="cls-5" transform="translate(264.59 836.94)">3</text></g><path id="point-1-20" class="cls-7" d="M46,853.13H91v42.92H46Z"/><g class="cls-2"><text class="cls-5" transform="translate(93.82 879.87)">19</text></g><path id="point-0-21" class="cls-6" d="M254.49,810.2h7.1v42.93h-7.1Z"/><path id="point-1-21" class="cls-7" d="M254.49,853.13H290v42.92H254.49Z"/><g class="cls-2"><text class="cls-5" transform="translate(269.13 879.87)">15</text></g><path id="point-0-22" class="cls-6" d="M463,810.2h14.2v42.93H463Z"/><g class="cls-2"><text class="cls-5" transform="translate(480.17 836.94)">6</text></g><g class="cls-2"><text class="cls-5" transform="translate(885.31 836.94)">1</text></g><g class="cls-2"><text class="cls-5" transform="translate(681.56 836.94)">3</text></g><path id="point-1-22" class="cls-7" d="M463,853.13H515v42.92H463Z"/><g class="cls-2"><text class="cls-5" transform="translate(518.03 879.87)">22</text></g><path id="point-0-23" class="cls-6" d="M671.46,810.2h7.1v42.93h-7.1Z"/><path id="point-1-23" class="cls-7" d="M671.46,853.13h49.68v42.92H671.46Z"/><g class="cls-2"><text class="cls-5" transform="translate(700.29 879.87)">21</text></g><path id="point-0-24" class="cls-6" d="M879.94,810.2h2.37v42.93h-2.37Z"/><path id="point-1-24" class="cls-7" d="M879.94,853.13h40.22v42.92H879.94Z"/><g class="cls-2"><text class="cls-5" transform="translate(899.31 879.87)">17</text></g></g></g></svg>