<?xml version="1.0" encoding="utf-8"?>
<!-- Generator: Adobe Illustrator 24.1.0, SVG Export Plug-In . SVG Version: 6.00 Build 0)  -->
<svg version="1.1" id="Layer_1" xmlns="http://www.w3.org/2000/svg" xmlns:xlink="http://www.w3.org/1999/xlink" x="0px" y="0px"
	 viewBox="0 0 100 100" style="enable-background:new 0 0 100 100;" xml:space="preserve">
<style type="text/css">
	.st0{fill:#63EAE6;}
</style>
<g>
	<g>
		<g>
			<path class="st0" d="M41.7,51.6c0,1.5,0,3,0,4.4c0,3.1,0,6.2,0,9.4c0,2.8,0,5.7,0,8.5c0,0.7,0,1.4,0,2.1c0,0.1,0,0.1,0,0.2
				c0,0,0,0,0,0c0,0.1,0,0.2,0,0.3c0,0.1,0,0.1,0,0.2c0,0.1-0.1,0.3,0,0.1c0.1-0.3,0,0.2-0.1,0.3c0,0.1-0.1,0.3-0.1,0.4
				c0,0.1-0.1,0.2-0.1,0.4c0,0.1-0.1,0.1,0,0c0.2-0.2,0,0,0,0.1c-0.1,0.2-0.3,0.4-0.4,0.7c0,0-0.1,0.2-0.1,0.2c0,0,0.3-0.3,0.1-0.1
				c-0.1,0.1-0.2,0.3-0.3,0.4c-0.1,0.1-0.2,0.2-0.3,0.3c-0.1,0.1-0.4,0.3-0.1,0.1c0.3-0.1-0.1,0.1-0.2,0.1c-0.1,0.1-0.3,0.2-0.4,0.2
				c0,0-0.3,0.2-0.4,0.2c0,0,0.4-0.1,0.2-0.1c-0.1,0-0.1,0-0.2,0.1c-0.2,0.1-0.7,0.1-0.9,0.2c0,0,0.4,0,0.2,0c-0.1,0-0.1,0-0.2,0
				c-0.1,0-0.3,0-0.4,0c0,0,0,0,0,0c-0.1,0-0.1,0-0.2,0c-0.7,0-1.4,0-2.1,0c-2.8,0-5.7,0-8.5,0c-3.1,0-6.2,0-9.4,0c-1.5,0-3,0-4.5,0
				c-0.1,0-0.2,0-0.3,0c-0.1,0-0.1,0-0.2,0c-0.1,0-0.2-0.1,0,0c0.2,0.1,0.1,0,0,0c-0.1,0-0.2,0-0.3-0.1c-0.1,0-0.3-0.1-0.4-0.1
				c-0.1,0-0.5-0.2-0.2-0.1c0.3,0.1-0.1-0.1-0.2-0.1c-0.3-0.1-0.5-0.3-0.7-0.4c-0.3-0.2,0.2,0.2,0,0c-0.1-0.1-0.2-0.2-0.3-0.3
				c-0.1-0.1-0.2-0.2-0.3-0.3c0,0-0.1-0.1-0.1-0.1c0,0,0.2,0.3,0.1,0.1c-0.1-0.2-0.3-0.4-0.4-0.7c-0.1-0.1-0.1-0.3-0.2-0.4
				c0,0,0.1,0.4,0.1,0.2c0-0.1-0.1-0.2-0.1-0.2c-0.1-0.2-0.1-0.6-0.2-0.8c0,0,0,0.4,0,0.2c0-0.1,0-0.1,0-0.2c0-0.1,0-0.3,0-0.4
				c0,0,0,0,0-0.1c0-0.1,0-0.3,0-0.4c0-1.7,0-3.5,0-5.3c0-3,0-5.9,0-8.9c0-3.3,0-6.6,0-9.9c0-2.7,0-5.4,0-8.1c0-1.3,0-2.5,0-3.8
				c0-0.7,0-1.4,0.1-2.1c0-0.1,0-0.3,0-0.4c0-0.1,0-0.1,0-0.2c0-0.2,0,0.2,0,0.2c0.1-0.3,0.1-0.6,0.1-0.9c0.1-0.5,0.2-1.1,0.4-1.6
				c0.1-0.5,0.3-1.1,0.5-1.6c0.1-0.2,0.2-0.5,0.3-0.7c0-0.1,0.2-0.5,0.1-0.2c-0.1,0.3,0.1-0.2,0.1-0.2c0.5-1,1-2,1.6-2.9
				c0.3-0.4,0.6-0.9,0.9-1.3c0.1-0.2-0.1,0.1-0.1,0.1c0,0,0.1-0.1,0.1-0.1c0.1-0.1,0.2-0.2,0.2-0.3c0.2-0.2,0.4-0.5,0.6-0.7
				c0.7-0.8,1.5-1.6,2.4-2.3c0.1-0.1,0.2-0.2,0.3-0.2c0.3-0.2-0.3,0.2,0,0c0.2-0.2,0.4-0.3,0.7-0.5c0.5-0.3,0.9-0.6,1.4-0.9
				s1-0.5,1.5-0.8c0.2-0.1,0.5-0.2,0.7-0.3c0.1,0,0.5-0.2,0.2-0.1c-0.3,0.1,0.2-0.1,0.2-0.1c1-0.4,2.1-0.7,3.2-1
				c0.6-0.1,1.1-0.2,1.7-0.3c0.2,0-0.2,0-0.2,0c0.1,0,0.1,0,0.2,0c0.1,0,0.3,0,0.4,0c0.3,0,0.6-0.1,0.9-0.1c0.8,0,1.6,0,2.3,0
				c0.3,0,0.5,0,0.8,0c0,0,0.1,0,0.1,0c0,0-0.4-0.1-0.2,0c0,0,0.1,0,0.2,0c0.4,0.1-0.1,0-0.1,0c0,0,0.1,0.1,0.2,0.1
				c0.2,0.1-0.2-0.1-0.1-0.1c0,0,0.1,0.1,0.1,0.1c0.2,0.2-0.2-0.3-0.1-0.1c0,0,0.1,0.2,0.1,0.2c0,0-0.1-0.4-0.1-0.2
				c0,0.1,0.1,0.5,0.1,0.2c-0.1-0.3,0,0,0,0c0,0.2,0,0.3,0,0.5c0,0.6,0,1.3,0,1.9c0,1.5,0,3,0,4.5c0,0.2,0,0.3,0,0.5c0,0,0,0,0,0.1
				v0.1c0,0,0-0.1,0-0.1c0-0.2,0-0.2,0,0c0,0,0,0,0,0.1c0,0.1,0,0.1,0,0c0.1-0.1,0.1-0.1,0-0.1c0,0,0,0.1-0.1,0.1
				c0,0-0.1,0.2-0.1,0.2c0,0,0.2-0.3,0.1-0.1c0,0-0.1,0.1-0.1,0.1c0,0,0.4-0.2,0.1-0.1c0,0-0.1,0.1-0.2,0.1c-0.2,0.1-0.1,0,0,0
				c0,0,0.1,0,0.1,0c0,0-0.1,0-0.1,0c0,0-0.1,0-0.1,0c0.1,0,0.2,0,0.3,0c-0.1-0.1-0.7,0-0.9,0c-0.3,0-0.6,0-0.9,0.1
				c-2.6,0.3-5,1.3-7.1,3c-1.9,1.5-3.3,3.6-4.2,5.8c-0.7,1.8-0.9,3.7-0.9,5.6c0,1.2,0,2.4,0,3.6c0,1.1,0.9,2,2,2c2.9,0,5.8,0,8.7,0
				c3.3,0,6.6,0,9.9,0c0.2,0,0.7-0.1,0.8,0c0,0-0.4-0.1-0.1,0c0.1,0,0.3,0,0.4,0.1c0.2,0,0.4,0.1,0.6,0.2c0.3,0.1-0.4-0.2,0,0
				c0.1,0,0.2,0.1,0.3,0.1c0.2,0.1,0.3,0.2,0.5,0.3c0,0,0.2,0.1,0.2,0.1c-0.2-0.2-0.3-0.2-0.1-0.1c0,0,0.1,0.1,0.1,0.1
				c0.2,0.1,0.3,0.3,0.4,0.4c0,0,0.2,0.2,0.2,0.2c0,0-0.3-0.4,0,0c0.1,0.2,0.2,0.4,0.3,0.5c0,0.1,0.1,0.2,0.1,0.2c0.2,0.4,0,0,0,0
				c0.1,0,0.2,0.6,0.2,0.6c0,0.1,0,0.2,0.1,0.3c0,0.1,0,0.1,0,0.2c0,0.1,0,0.1,0-0.2C41.7,51,41.7,51.5,41.7,51.6c0,1,0.9,2,2,2
				c1,0,2-0.9,2-2c0-2-0.7-3.8-2.1-5.2c-1.3-1.4-3.1-2.2-5.1-2.4c-1-0.1-2.1,0-3.1,0c-4.2,0-8.4,0-12.6,0c-1.2,0-2.4,0-3.5,0
				c0.7,0.7,1.3,1.3,2,2c0-1.3,0-2.5,0-3.8c0-0.2,0-0.3,0-0.5c0-0.3,0-0.5,0-0.8c0-0.2,0-0.3,0-0.5c0-0.1,0-0.1,0-0.2
				c0-0.3-0.1,0.4,0,0.1c0.1-0.6,0.2-1.1,0.4-1.7c0.1-0.3,0.2-0.5,0.3-0.8c0-0.1,0-0.1,0.1-0.2c0.1-0.2-0.1,0.2-0.1,0.2
				c0-0.1,0.2-0.4,0.2-0.4c0.3-0.5,0.5-1,0.9-1.5c0.1-0.1,0.1-0.2,0.2-0.3c0.2-0.3-0.2,0.3,0,0c0.2-0.2,0.4-0.5,0.6-0.7
				c0.4-0.4,0.8-0.8,1.2-1.1c0,0,0.1-0.1,0.1-0.1c0.2-0.1-0.1,0.1-0.1,0.1c0-0.1,0.3-0.2,0.3-0.2c0.2-0.2,0.5-0.3,0.8-0.5
				c0.2-0.1,0.5-0.3,0.7-0.4c0.1-0.1,0.2-0.1,0.4-0.2c0,0,0.2-0.1,0.2-0.1c0,0-0.4,0.2-0.1,0c0.5-0.2,1.1-0.4,1.6-0.5
				c0.3-0.1,0.6-0.1,0.8-0.2c0.1,0,0.1,0,0.2,0c0,0-0.4,0-0.2,0c0.2,0,0.4,0,0.5,0c0.7,0,1.4,0,2.1-0.2c1.7-0.6,2.8-2.1,2.9-3.9
				c0-0.3,0-0.7,0-1c0-1.6,0-3.2,0-4.7c0-1.7,0.1-3.4-1.3-4.7c-1-0.9-2.1-1.1-3.4-1.1c-0.8,0-1.6,0-2.3,0c-5,0.2-9.8,2.1-13.7,5.2
				c-3.7,2.9-6.5,7-7.9,11.6c-0.8,2.6-1,5.2-1,7.9c0,2.1,0,4.2,0,6.3c0,3.2,0,6.3,0,9.5c0,3.3,0,6.6,0,9.9c0,2.5,0,5,0,7.5
				c0,1.7-0.1,3.5,0.5,5.1c1.2,2.8,3.6,4.7,6.6,5c0.6,0.1,1.1,0,1.7,0c2.6,0,5.1,0,7.7,0c3.3,0,6.6,0,9.9,0c1.9,0,3.9,0,5.8,0
				c4.3,0,7.8-3.5,7.8-7.9c0-1.9,0-3.7,0-5.6c0-3.3,0-6.6,0-9.8c0-2.6,0-5.2,0-7.9c0-0.4,0-0.8,0-1.2c0-1-0.9-2-2-2
				C42.6,49.7,41.7,50.5,41.7,51.6z"/>
		</g>
	</g>
	<g>
		<g>
			<path class="st0" d="M90.4,51.6c0,1.5,0,3,0,4.4c0,3.1,0,6.2,0,9.4c0,2.8,0,5.7,0,8.5c0,0.7,0,1.4,0,2.1c0,0.1,0,0.1,0,0.2
				c0,0,0,0,0,0c0,0.1,0,0.2,0,0.3c0,0.1,0,0.1,0,0.2c0,0.1-0.1,0.3,0,0.1c0.1-0.3,0,0.2-0.1,0.3c0,0.1-0.1,0.3-0.1,0.4
				c0,0.1-0.1,0.2-0.1,0.4c0,0.1-0.1,0.1,0,0c0.2-0.2,0,0,0,0.1c-0.1,0.2-0.3,0.4-0.4,0.7c0,0-0.1,0.2-0.1,0.2c0,0,0.3-0.3,0.1-0.1
				c-0.1,0.1-0.2,0.3-0.3,0.4c-0.1,0.1-0.2,0.2-0.3,0.3c-0.1,0.1-0.4,0.3-0.1,0.1c0.3-0.1-0.1,0.1-0.2,0.1c-0.1,0.1-0.3,0.2-0.4,0.2
				c0,0-0.3,0.2-0.4,0.2c0,0,0.4-0.1,0.2-0.1c-0.1,0-0.1,0-0.2,0.1c-0.2,0.1-0.7,0.1-0.9,0.2c0,0,0.4,0,0.2,0c-0.1,0-0.1,0-0.2,0
				c-0.1,0-0.3,0-0.4,0c0,0,0,0,0,0c-0.1,0-0.1,0-0.2,0c-0.7,0-1.4,0-2.1,0c-2.8,0-5.7,0-8.5,0c-3.1,0-6.2,0-9.4,0c-1.5,0-3,0-4.5,0
				c-0.1,0-0.2,0-0.3,0c-0.1,0-0.1,0-0.2,0c-0.1,0-0.2-0.1,0,0c0.2,0.1,0.1,0,0,0c-0.1,0-0.2,0-0.3-0.1c-0.1,0-0.3-0.1-0.4-0.1
				c-0.1,0-0.5-0.2-0.2-0.1c0.3,0.1-0.1-0.1-0.2-0.1c-0.3-0.1-0.5-0.3-0.7-0.4c-0.3-0.2,0.2,0.2,0,0c-0.1-0.1-0.2-0.2-0.3-0.3
				c-0.1-0.1-0.2-0.2-0.3-0.3c0,0-0.1-0.1-0.1-0.1c0,0,0.2,0.3,0.1,0.1c-0.1-0.2-0.3-0.4-0.4-0.7c-0.1-0.1-0.1-0.3-0.2-0.4
				c0,0,0.1,0.4,0.1,0.2c0-0.1-0.1-0.2-0.1-0.2c-0.1-0.2-0.1-0.6-0.2-0.8c0,0,0,0.4,0,0.2c0-0.1,0-0.1,0-0.2c0-0.1,0-0.3,0-0.4
				c0,0,0,0,0-0.1c0-0.1,0-0.3,0-0.4c0-1.7,0-3.5,0-5.3c0-3,0-5.9,0-8.9c0-3.3,0-6.6,0-9.9c0-2.7,0-5.4,0-8.1c0-1.3,0-2.5,0-3.8
				c0-0.7,0-1.4,0.1-2.1c0-0.1,0-0.3,0-0.4c0-0.1,0-0.1,0-0.2c0-0.2,0,0.2,0,0.2c0.1-0.3,0.1-0.6,0.1-0.9c0.1-0.5,0.2-1.1,0.4-1.6
				c0.1-0.5,0.3-1.1,0.5-1.6c0.1-0.2,0.2-0.5,0.3-0.7c0-0.1,0.2-0.5,0.1-0.2c-0.1,0.3,0.1-0.2,0.1-0.2c0.5-1,1-2,1.6-2.9
				c0.3-0.4,0.6-0.9,0.9-1.3c0.1-0.2-0.1,0.1-0.1,0.1c0,0,0.1-0.1,0.1-0.1c0.1-0.1,0.2-0.2,0.2-0.3c0.2-0.2,0.4-0.5,0.6-0.7
				c0.7-0.8,1.5-1.6,2.4-2.3c0.1-0.1,0.2-0.2,0.3-0.2c0.3-0.2-0.3,0.2,0,0c0.2-0.2,0.4-0.3,0.7-0.5c0.5-0.3,0.9-0.6,1.4-0.9
				c0.5-0.3,1-0.5,1.5-0.8c0.2-0.1,0.5-0.2,0.7-0.3c0.1,0,0.5-0.2,0.2-0.1c-0.3,0.1,0.2-0.1,0.2-0.1c1-0.4,2.1-0.7,3.2-1
				c0.6-0.1,1.1-0.2,1.7-0.3c0.2,0-0.2,0-0.2,0c0.1,0,0.1,0,0.2,0c0.1,0,0.3,0,0.4,0c0.3,0,0.6-0.1,0.9-0.1c0.8,0,1.6,0,2.3,0
				c0.3,0,0.5,0,0.8,0c0,0,0.1,0,0.1,0c0,0-0.4-0.1-0.2,0c0,0,0.1,0,0.2,0c0.4,0.1-0.1,0-0.1,0c0,0,0.1,0.1,0.2,0.1
				c0.2,0.1-0.2-0.1-0.1-0.1c0,0,0.1,0.1,0.1,0.1c0.2,0.2-0.2-0.3-0.1-0.1c0,0,0.1,0.2,0.1,0.2c0,0-0.1-0.4-0.1-0.2
				c0,0.1,0.1,0.5,0.1,0.2c-0.1-0.3,0,0,0,0c0,0.2,0,0.3,0,0.5c0,0.6,0,1.3,0,1.9c0,1.5,0,3,0,4.5c0,0.2,0,0.3,0,0.5c0,0,0,0,0,0.1
				v0.1c0,0,0-0.1,0-0.1c0-0.2,0-0.2,0,0c0,0,0,0,0,0.1c0,0.1,0,0.1,0,0c0.1-0.1,0.1-0.1,0-0.1c0,0,0,0.1-0.1,0.1
				c0,0-0.1,0.2-0.1,0.2c0,0,0.2-0.3,0.1-0.1c0,0-0.1,0.1-0.1,0.1c0,0,0.4-0.2,0.1-0.1c0,0-0.1,0.1-0.2,0.1c-0.2,0.1-0.1,0,0,0
				c0,0,0.1,0,0.1,0c0,0-0.1,0-0.1,0c0,0-0.1,0-0.1,0c0.1,0,0.2,0,0.3,0c-0.1-0.1-0.7,0-0.9,0c-0.3,0-0.6,0-0.9,0.1
				c-2.6,0.3-5,1.3-7.1,3c-1.9,1.5-3.3,3.6-4.2,5.8c-0.7,1.8-0.9,3.7-0.9,5.6c0,1.2,0,2.4,0,3.6c0,1.1,0.9,2,2,2c2.9,0,5.8,0,8.7,0
				c3.3,0,6.6,0,9.9,0c0.2,0,0.7-0.1,0.8,0c0,0-0.4-0.1-0.1,0c0.1,0,0.3,0,0.4,0.1c0.2,0,0.4,0.1,0.6,0.2c0.3,0.1-0.4-0.2,0,0
				c0.1,0,0.2,0.1,0.3,0.1c0.2,0.1,0.3,0.2,0.5,0.3c0,0,0.2,0.1,0.2,0.1c-0.2-0.2-0.3-0.2-0.1-0.1c0,0,0.1,0.1,0.1,0.1
				c0.2,0.1,0.3,0.3,0.4,0.4c0,0,0.2,0.2,0.2,0.2c0,0-0.3-0.4,0,0c0.1,0.2,0.2,0.4,0.3,0.5c0,0.1,0.1,0.2,0.1,0.2c0.2,0.4,0,0,0,0
				c0.1,0,0.2,0.6,0.2,0.6c0,0.1,0,0.2,0.1,0.3c0,0.1,0,0.1,0,0.2c0,0.1,0,0.1,0-0.2C90.5,51,90.4,51.5,90.4,51.6c0,1,0.9,2,2,2
				c1,0,2-0.9,2-2c0-2-0.7-3.8-2.1-5.2c-1.3-1.4-3.1-2.2-5.1-2.4c-1-0.1-2.1,0-3.1,0c-4.2,0-8.4,0-12.6,0c-1.2,0-2.4,0-3.5,0
				c0.7,0.7,1.3,1.3,2,2c0-1.3,0-2.5,0-3.8c0-0.2,0-0.3,0-0.5c0-0.3,0-0.5,0-0.8c0-0.2,0-0.3,0-0.5c0-0.1,0-0.1,0-0.2
				c0-0.3-0.1,0.4,0,0.1c0.1-0.6,0.2-1.1,0.4-1.7c0.1-0.3,0.2-0.5,0.3-0.8c0-0.1,0-0.1,0.1-0.2c0.1-0.2-0.1,0.2-0.1,0.2
				c0-0.1,0.2-0.4,0.2-0.4c0.3-0.5,0.5-1,0.9-1.5c0.1-0.1,0.1-0.2,0.2-0.3c0.2-0.3-0.2,0.3,0,0c0.2-0.2,0.4-0.5,0.6-0.7
				c0.4-0.4,0.8-0.8,1.2-1.1c0,0,0.1-0.1,0.1-0.1c0.2-0.1-0.1,0.1-0.1,0.1c0-0.1,0.3-0.2,0.3-0.2c0.2-0.2,0.5-0.3,0.8-0.5
				c0.2-0.1,0.5-0.3,0.7-0.4c0.1-0.1,0.2-0.1,0.4-0.2c0,0,0.2-0.1,0.2-0.1c0,0-0.4,0.2-0.1,0c0.5-0.2,1.1-0.4,1.6-0.5
				c0.3-0.1,0.6-0.1,0.8-0.2c0.1,0,0.1,0,0.2,0c0,0-0.4,0-0.2,0c0.2,0,0.4,0,0.5,0c0.7,0,1.4,0,2.1-0.2c1.7-0.6,2.8-2.1,2.9-3.9
				c0-0.3,0-0.7,0-1c0-1.6,0-3.2,0-4.7c0-1.7,0.1-3.4-1.3-4.7c-1-0.9-2.1-1.1-3.4-1.1c-0.8,0-1.6,0-2.3,0c-5,0.2-9.8,2.1-13.7,5.2
				c-3.7,2.9-6.5,7-7.9,11.6c-0.8,2.5-1,5.2-1,7.9c0,2.1,0,4.2,0,6.3c0,3.2,0,6.3,0,9.5c0,3.3,0,6.6,0,9.9c0,2.5,0,5,0,7.5
				c0,1.7-0.1,3.5,0.5,5.1c1.2,2.8,3.6,4.7,6.6,5c0.6,0.1,1.1,0,1.7,0c2.6,0,5.1,0,7.7,0c3.3,0,6.6,0,9.9,0c1.9,0,3.9,0,5.8,0
				c4.3,0,7.8-3.5,7.8-7.9c0-1.9,0-3.7,0-5.6c0-3.3,0-6.6,0-9.8c0-2.6,0-5.2,0-7.9c0-0.4,0-0.8,0-1.2c0-1-0.9-2-2-2
				C91.3,49.7,90.4,50.5,90.4,51.6z"/>
		</g>
	</g>
</g>
</svg>
